<?xml version="1.0" encoding="utf-8" standalone="no"?>
<!DOCTYPE svg PUBLIC "-//W3C//DTD SVG 1.1//EN"
  "http://www.w3.org/Graphics/SVG/1.1/DTD/svg11.dtd">
<svg xmlns:xlink="http://www.w3.org/1999/xlink" width="194.709272pt" height="192.353701pt" viewBox="0 0 194.709272 192.353701" xmlns="http://www.w3.org/2000/svg" version="1.1">
 <metadata>
  <rdf:RDF xmlns:dc="http://purl.org/dc/elements/1.1/" xmlns:cc="http://creativecommons.org/ns#" xmlns:rdf="http://www.w3.org/1999/02/22-rdf-syntax-ns#">
   <cc:Work>
    <dc:type rdf:resource="http://purl.org/dc/dcmitype/StillImage"/>
    <dc:date>2023-09-13T15:29:14.407515</dc:date>
    <dc:format>image/svg+xml</dc:format>
    <dc:creator>
     <cc:Agent>
      <dc:title>Matplotlib v3.7.3, https://matplotlib.org/</dc:title>
     </cc:Agent>
    </dc:creator>
   </cc:Work>
  </rdf:RDF>
 </metadata>
 <defs>
  <style type="text/css">*{stroke-linejoin: round; stroke-linecap: butt}</style>
 </defs>
 <g id="figure_1">
  <g id="patch_1">
   <path d="M 0 192.353701 
L 194.709272 192.353701 
L 194.709272 0 
L 0 0 
z
" style="fill: #ffffff"/>
  </g>
  <g id="axes_1">
   <g id="patch_2">
    <path d="M 23.4225 47.710709 
L 86.883386 47.710709 
L 86.883386 7.2 
L 23.4225 7.2 
z
" style="fill: #ffffff"/>
   </g>
   <g id="PolyCollection_1">
    <defs>
     <path id="m51a215a874" d="M 24.970326 -146.302032 
L 24.970326 -146.302032 
L 28.065979 -157.522184 
L 31.161632 -163.517664 
L 34.257285 -164.565397 
L 37.352938 -165.347079 
L 40.448591 -165.500111 
L 43.544244 -165.613991 
L 46.639897 -165.727871 
L 49.73555 -165.735726 
L 52.831203 -165.743581 
L 55.926856 -165.751437 
L 59.022509 -165.759292 
L 62.118162 -165.767147 
L 65.213815 -165.775002 
L 68.309468 -165.782858 
L 71.405121 -165.790713 
L 74.500774 -165.798568 
L 77.596427 -165.806424 
L 80.69208 -165.814279 
L 83.787733 -165.822134 
L 86.883386 -165.822134 
L 86.883386 -165.822134 
L 86.883386 -165.822134 
L 83.787733 -165.822134 
L 80.69208 -165.814279 
L 77.596427 -165.806424 
L 74.500774 -165.798568 
L 71.405121 -165.790713 
L 68.309468 -165.782858 
L 65.213815 -165.775002 
L 62.118162 -165.767147 
L 59.022509 -165.759292 
L 55.926856 -165.751437 
L 52.831203 -165.743581 
L 49.73555 -165.735726 
L 46.639897 -165.727871 
L 43.544244 -165.613991 
L 40.448591 -165.500111 
L 37.352938 -165.347079 
L 34.257285 -164.565397 
L 31.161632 -163.517664 
L 28.065979 -157.522184 
L 24.970326 -146.302032 
z
" style="stroke: #d62728; stroke-opacity: 0.2; stroke-width: 0.5"/>
    </defs>
    <g clip-path="url(#p58b5b1a54b)">
     <use xlink:href="#m51a215a874" x="0" y="192.353701" style="fill: #d62728; fill-opacity: 0.2; stroke: #d62728; stroke-opacity: 0.2; stroke-width: 0.5"/>
    </g>
   </g>
   <g id="PolyCollection_2">
    <defs>
     <path id="m3a0a534c6e" d="M 24.970326 -146.302032 
L 24.970326 -146.302032 
L 28.065979 -155.386324 
L 31.161632 -160.905578 
L 34.257285 -165.587555 
L 37.352938 -168.192377 
L 40.448591 -170.046353 
L 43.544244 -171.005112 
L 46.639897 -171.382844 
L 49.73555 -171.665889 
L 52.831203 -171.911207 
L 55.926856 -171.975745 
L 59.022509 -172.032354 
L 62.118162 -172.088962 
L 65.213815 -172.145571 
L 68.309468 -172.20218 
L 71.405121 -172.258789 
L 74.500774 -172.258789 
L 77.596427 -172.258789 
L 80.69208 -172.258789 
L 83.787733 -172.258789 
L 86.883386 -172.258789 
L 86.883386 -174.789873 
L 86.883386 -174.789873 
L 83.787733 -174.789873 
L 80.69208 -174.789873 
L 77.596427 -174.789873 
L 74.500774 -174.789873 
L 71.405121 -174.789873 
L 68.309468 -174.506829 
L 65.213815 -174.223784 
L 62.118162 -173.94074 
L 59.022509 -173.657695 
L 55.926856 -173.374651 
L 52.831203 -173.091606 
L 49.73555 -172.808562 
L 46.639897 -172.525517 
L 43.544244 -172.097296 
L 40.448591 -171.20264 
L 37.352938 -169.184965 
L 34.257285 -166.62637 
L 31.161632 -161.915733 
L 28.065979 -156.499296 
L 24.970326 -146.302032 
z
" style="stroke: #2ca02c; stroke-opacity: 0.2; stroke-width: 0.5"/>
    </defs>
    <g clip-path="url(#p58b5b1a54b)">
     <use xlink:href="#m3a0a534c6e" x="0" y="192.353701" style="fill: #2ca02c; fill-opacity: 0.2; stroke: #2ca02c; stroke-opacity: 0.2; stroke-width: 0.5"/>
    </g>
   </g>
   <g id="PolyCollection_3">
    <defs>
     <path id="m0dccdce9a2" d="M 24.970326 -146.302032 
L 24.970326 -146.302032 
L 28.065979 -158.074912 
L 31.161632 -162.544458 
L 34.257285 -164.963807 
L 37.352938 -166.975787 
L 40.448591 -167.953948 
L 43.544244 -168.40907 
L 46.639897 -168.668836 
L 49.73555 -169.002763 
L 52.831203 -169.230665 
L 55.926856 -169.23852 
L 59.022509 -169.246376 
L 62.118162 -169.254231 
L 65.213815 -169.262086 
L 68.309468 -169.269942 
L 71.405121 -169.277797 
L 74.500774 -169.285652 
L 77.596427 -169.293507 
L 80.69208 -169.301363 
L 83.787733 -169.309218 
L 86.883386 -169.317073 
L 86.883386 -177.185888 
L 86.883386 -177.185888 
L 83.787733 -177.003566 
L 80.69208 -176.821244 
L 77.596427 -176.638922 
L 74.500774 -176.4566 
L 71.405121 -176.272707 
L 68.309468 -176.088814 
L 65.213815 -175.883716 
L 62.118162 -175.655814 
L 59.022509 -175.427911 
L 55.926856 -175.200009 
L 52.831203 -174.972106 
L 49.73555 -173.627967 
L 46.639897 -172.177803 
L 43.544244 -170.727639 
L 40.448591 -169.238323 
L 37.352938 -167.360232 
L 34.257285 -165.28182 
L 31.161632 -162.544458 
L 28.065979 -158.074912 
L 24.970326 -146.302032 
z
" style="stroke: #1f77b4; stroke-opacity: 0.2; stroke-width: 0.5"/>
    </defs>
    <g clip-path="url(#p58b5b1a54b)">
     <use xlink:href="#m0dccdce9a2" x="0" y="192.353701" style="fill: #1f77b4; fill-opacity: 0.2; stroke: #1f77b4; stroke-opacity: 0.2; stroke-width: 0.5"/>
    </g>
   </g>
   <g id="PolyCollection_4">
    <defs>
     <path id="meec416ff2b" d="M 24.970326 -146.302032 
L 24.970326 -146.302032 
L 28.065979 -154.398964 
L 31.161632 -156.854885 
L 34.257285 -159.265869 
L 37.352938 -160.050751 
L 40.448591 -160.058606 
L 43.544244 -160.066461 
L 46.639897 -160.074317 
L 49.73555 -160.082172 
L 52.831203 -160.090027 
L 55.926856 -160.097883 
L 59.022509 -160.105738 
L 62.118162 -160.113593 
L 65.213815 -160.121448 
L 68.309468 -160.129304 
L 71.405121 -160.137159 
L 74.500774 -160.145014 
L 77.596427 -160.15287 
L 80.69208 -160.160725 
L 83.787733 -160.16858 
L 86.883386 -160.176435 
L 86.883386 -165.690444 
L 86.883386 -165.690444 
L 83.787733 -165.682589 
L 80.69208 -165.674733 
L 77.596427 -165.666878 
L 74.500774 -165.659023 
L 71.405121 -165.651167 
L 68.309468 -165.467274 
L 65.213815 -165.239372 
L 62.118162 -165.011469 
L 59.022509 -164.783567 
L 55.926856 -164.555665 
L 52.831203 -164.327762 
L 49.73555 -164.09986 
L 46.639897 -163.871957 
L 43.544244 -163.644055 
L 40.448591 -163.416152 
L 37.352938 -161.413599 
L 34.257285 -159.603325 
L 31.161632 -157.023613 
L 28.065979 -154.398964 
L 24.970326 -146.302032 
z
" style="stroke: #ff7f0e; stroke-opacity: 0.2; stroke-width: 0.5"/>
    </defs>
    <g clip-path="url(#p58b5b1a54b)">
     <use xlink:href="#meec416ff2b" x="0" y="192.353701" style="fill: #ff7f0e; fill-opacity: 0.2; stroke: #ff7f0e; stroke-opacity: 0.2; stroke-width: 0.5"/>
    </g>
   </g>
   <g id="matplotlib.axis_1">
    <g id="xtick_1">
     <g id="line2d_1">
      <path d="M 24.970326 47.710709 
L 24.970326 7.2 
" clip-path="url(#p58b5b1a54b)" style="fill: none; stroke: #b0b0b0; stroke-width: 0.8; stroke-linecap: square"/>
     </g>
     <g id="line2d_2">
      <defs>
       <path id="m6b08af9e3f" d="M 0 0 
L 0 -3.5 
" style="stroke: #000000; stroke-width: 0.8"/>
      </defs>
      <g>
       <use xlink:href="#m6b08af9e3f" x="24.970326" y="47.710709" style="stroke: #000000; stroke-width: 0.8"/>
      </g>
     </g>
     <g id="text_1">
      <!-- 0 -->
      <g transform="translate(22.425326 57.289459) scale(0.08 -0.08)">
       <defs>
        <path id="DejaVuSans-30" d="M 2034 4250 
Q 1547 4250 1301 3770 
Q 1056 3291 1056 2328 
Q 1056 1369 1301 889 
Q 1547 409 2034 409 
Q 2525 409 2770 889 
Q 3016 1369 3016 2328 
Q 3016 3291 2770 3770 
Q 2525 4250 2034 4250 
z
M 2034 4750 
Q 2819 4750 3233 4129 
Q 3647 3509 3647 2328 
Q 3647 1150 3233 529 
Q 2819 -91 2034 -91 
Q 1250 -91 836 529 
Q 422 1150 422 2328 
Q 422 3509 836 4129 
Q 1250 4750 2034 4750 
z
" transform="scale(0.015625)"/>
       </defs>
       <use xlink:href="#DejaVuSans-30"/>
      </g>
     </g>
    </g>
    <g id="xtick_2">
     <g id="line2d_3">
      <path d="M 40.448591 47.710709 
L 40.448591 7.2 
" clip-path="url(#p58b5b1a54b)" style="fill: none; stroke: #b0b0b0; stroke-width: 0.8; stroke-linecap: square"/>
     </g>
     <g id="line2d_4">
      <g>
       <use xlink:href="#m6b08af9e3f" x="40.448591" y="47.710709" style="stroke: #000000; stroke-width: 0.8"/>
      </g>
     </g>
     <g id="text_2">
      <!-- 5 -->
      <g transform="translate(37.903591 57.289459) scale(0.08 -0.08)">
       <defs>
        <path id="DejaVuSans-35" d="M 691 4666 
L 3169 4666 
L 3169 4134 
L 1269 4134 
L 1269 2991 
Q 1406 3038 1543 3061 
Q 1681 3084 1819 3084 
Q 2600 3084 3056 2656 
Q 3513 2228 3513 1497 
Q 3513 744 3044 326 
Q 2575 -91 1722 -91 
Q 1428 -91 1123 -41 
Q 819 9 494 109 
L 494 744 
Q 775 591 1075 516 
Q 1375 441 1709 441 
Q 2250 441 2565 725 
Q 2881 1009 2881 1497 
Q 2881 1984 2565 2268 
Q 2250 2553 1709 2553 
Q 1456 2553 1204 2497 
Q 953 2441 691 2322 
L 691 4666 
z
" transform="scale(0.015625)"/>
       </defs>
       <use xlink:href="#DejaVuSans-35"/>
      </g>
     </g>
    </g>
    <g id="xtick_3">
     <g id="line2d_5">
      <path d="M 55.926856 47.710709 
L 55.926856 7.2 
" clip-path="url(#p58b5b1a54b)" style="fill: none; stroke: #b0b0b0; stroke-width: 0.8; stroke-linecap: square"/>
     </g>
     <g id="line2d_6">
      <g>
       <use xlink:href="#m6b08af9e3f" x="55.926856" y="47.710709" style="stroke: #000000; stroke-width: 0.8"/>
      </g>
     </g>
     <g id="text_3">
      <!-- 10 -->
      <g transform="translate(50.836856 57.289459) scale(0.08 -0.08)">
       <defs>
        <path id="DejaVuSans-31" d="M 794 531 
L 1825 531 
L 1825 4091 
L 703 3866 
L 703 4441 
L 1819 4666 
L 2450 4666 
L 2450 531 
L 3481 531 
L 3481 0 
L 794 0 
L 794 531 
z
" transform="scale(0.015625)"/>
       </defs>
       <use xlink:href="#DejaVuSans-31"/>
       <use xlink:href="#DejaVuSans-30" x="63.623047"/>
      </g>
     </g>
    </g>
    <g id="xtick_4">
     <g id="line2d_7">
      <path d="M 71.405121 47.710709 
L 71.405121 7.2 
" clip-path="url(#p58b5b1a54b)" style="fill: none; stroke: #b0b0b0; stroke-width: 0.8; stroke-linecap: square"/>
     </g>
     <g id="line2d_8">
      <g>
       <use xlink:href="#m6b08af9e3f" x="71.405121" y="47.710709" style="stroke: #000000; stroke-width: 0.8"/>
      </g>
     </g>
     <g id="text_4">
      <!-- 15 -->
      <g transform="translate(66.315121 57.289459) scale(0.08 -0.08)">
       <use xlink:href="#DejaVuSans-31"/>
       <use xlink:href="#DejaVuSans-35" x="63.623047"/>
      </g>
     </g>
    </g>
    <g id="xtick_5">
     <g id="line2d_9">
      <path d="M 86.883386 47.710709 
L 86.883386 7.2 
" clip-path="url(#p58b5b1a54b)" style="fill: none; stroke: #b0b0b0; stroke-width: 0.8; stroke-linecap: square"/>
     </g>
     <g id="line2d_10">
      <g>
       <use xlink:href="#m6b08af9e3f" x="86.883386" y="47.710709" style="stroke: #000000; stroke-width: 0.8"/>
      </g>
     </g>
     <g id="text_5">
      <!-- 20 -->
      <g transform="translate(81.793386 57.289459) scale(0.08 -0.08)">
       <defs>
        <path id="DejaVuSans-32" d="M 1228 531 
L 3431 531 
L 3431 0 
L 469 0 
L 469 531 
Q 828 903 1448 1529 
Q 2069 2156 2228 2338 
Q 2531 2678 2651 2914 
Q 2772 3150 2772 3378 
Q 2772 3750 2511 3984 
Q 2250 4219 1831 4219 
Q 1534 4219 1204 4116 
Q 875 4013 500 3803 
L 500 4441 
Q 881 4594 1212 4672 
Q 1544 4750 1819 4750 
Q 2544 4750 2975 4387 
Q 3406 4025 3406 3419 
Q 3406 3131 3298 2873 
Q 3191 2616 2906 2266 
Q 2828 2175 2409 1742 
Q 1991 1309 1228 531 
z
" transform="scale(0.015625)"/>
       </defs>
       <use xlink:href="#DejaVuSans-32"/>
       <use xlink:href="#DejaVuSans-30" x="63.623047"/>
      </g>
     </g>
    </g>
   </g>
   <g id="matplotlib.axis_2">
    <g id="ytick_1">
     <g id="line2d_11">
      <path d="M 23.4225 47.710709 
L 86.883386 47.710709 
" clip-path="url(#p58b5b1a54b)" style="fill: none; stroke: #b0b0b0; stroke-width: 0.8; stroke-linecap: square"/>
     </g>
     <g id="line2d_12">
      <defs>
       <path id="mc577e892a5" d="M 0 0 
L 3.5 0 
" style="stroke: #000000; stroke-width: 0.8"/>
      </defs>
      <g>
       <use xlink:href="#mc577e892a5" x="23.4225" y="47.710709" style="stroke: #000000; stroke-width: 0.8"/>
      </g>
     </g>
     <g id="text_6">
      <!-- 0.5 -->
      <g transform="translate(7.2 50.750084) scale(0.08 -0.08)">
       <defs>
        <path id="DejaVuSans-2e" d="M 684 794 
L 1344 794 
L 1344 0 
L 684 0 
L 684 794 
z
" transform="scale(0.015625)"/>
       </defs>
       <use xlink:href="#DejaVuSans-30"/>
       <use xlink:href="#DejaVuSans-2e" x="63.623047"/>
       <use xlink:href="#DejaVuSans-35" x="95.410156"/>
      </g>
     </g>
    </g>
    <g id="ytick_2">
     <g id="line2d_13">
      <path d="M 23.4225 31.506425 
L 86.883386 31.506425 
" clip-path="url(#p58b5b1a54b)" style="fill: none; stroke: #b0b0b0; stroke-width: 0.8; stroke-linecap: square"/>
     </g>
     <g id="line2d_14">
      <g>
       <use xlink:href="#mc577e892a5" x="23.4225" y="31.506425" style="stroke: #000000; stroke-width: 0.8"/>
      </g>
     </g>
     <g id="text_7">
      <!-- 1.0 -->
      <g transform="translate(7.2 34.5458) scale(0.08 -0.08)">
       <use xlink:href="#DejaVuSans-31"/>
       <use xlink:href="#DejaVuSans-2e" x="63.623047"/>
       <use xlink:href="#DejaVuSans-30" x="95.410156"/>
      </g>
     </g>
    </g>
    <g id="ytick_3">
     <g id="line2d_15">
      <path d="M 23.4225 15.302142 
L 86.883386 15.302142 
" clip-path="url(#p58b5b1a54b)" style="fill: none; stroke: #b0b0b0; stroke-width: 0.8; stroke-linecap: square"/>
     </g>
     <g id="line2d_16">
      <g>
       <use xlink:href="#mc577e892a5" x="23.4225" y="15.302142" style="stroke: #000000; stroke-width: 0.8"/>
      </g>
     </g>
     <g id="text_8">
      <!-- 1.5 -->
      <g transform="translate(7.2 18.341517) scale(0.08 -0.08)">
       <use xlink:href="#DejaVuSans-31"/>
       <use xlink:href="#DejaVuSans-2e" x="63.623047"/>
       <use xlink:href="#DejaVuSans-35" x="95.410156"/>
      </g>
     </g>
    </g>
   </g>
   <g id="line2d_17">
    <path d="M 24.970326 46.051669 
L 28.065979 34.831517 
L 31.161632 28.836037 
L 34.257285 27.788303 
L 37.352938 27.006621 
L 40.448591 26.853589 
L 43.544244 26.73971 
L 46.639897 26.62583 
L 49.73555 26.617975 
L 52.831203 26.61012 
L 55.926856 26.602264 
L 59.022509 26.594409 
L 62.118162 26.586554 
L 65.213815 26.578698 
L 68.309468 26.570843 
L 71.405121 26.562988 
L 74.500774 26.555133 
L 77.596427 26.547277 
L 80.69208 26.539422 
L 83.787733 26.531567 
L 86.883386 26.531567 
" clip-path="url(#p58b5b1a54b)" style="fill: none; stroke-dasharray: 2,3.3; stroke-dashoffset: 0; stroke: #d62728; stroke-width: 2"/>
   </g>
   <g id="line2d_18">
    <path d="M 24.970326 46.051669 
L 28.065979 35.973059 
L 31.161632 30.548184 
L 34.257285 25.960099 
L 37.352938 23.508869 
L 40.448591 21.362338 
L 43.544244 20.464596 
L 46.639897 20.076439 
L 49.73555 19.798617 
L 52.831203 19.538216 
L 55.926856 19.277815 
L 59.022509 19.017414 
L 62.118162 18.757013 
L 65.213815 18.496613 
L 68.309468 18.236212 
L 71.405121 17.975811 
L 74.500774 17.964489 
L 77.596427 17.964489 
L 80.69208 17.964489 
L 83.787733 17.964489 
L 86.883386 17.964489 
" clip-path="url(#p58b5b1a54b)" style="fill: none; stroke-dasharray: 7.4,3.2; stroke-dashoffset: 0; stroke: #2ca02c; stroke-width: 2"/>
   </g>
   <g id="line2d_19">
    <path d="M 24.970326 46.051669 
L 28.065979 34.286165 
L 31.161632 29.821735 
L 34.257285 27.136941 
L 37.352938 25.072052 
L 40.448591 23.721421 
L 43.544244 22.913616 
L 46.639897 22.40116 
L 49.73555 21.895183 
L 52.831203 21.510513 
L 55.926856 21.378322 
L 59.022509 21.272215 
L 62.118162 21.193945 
L 65.213815 21.133279 
L 68.309468 21.081414 
L 71.405121 21.038665 
L 74.500774 20.996859 
L 77.596427 20.955367 
L 80.69208 20.922678 
L 83.787733 20.890616 
L 86.883386 20.867671 
" clip-path="url(#p58b5b1a54b)" style="fill: none; stroke-dasharray: 12.8,3.2,2,3.2; stroke-dashoffset: 0; stroke: #1f77b4; stroke-width: 2"/>
   </g>
   <g id="line2d_20">
    <path d="M 24.970326 46.051669 
L 28.065979 37.954737 
L 31.161632 35.292675 
L 34.257285 32.760615 
L 37.352938 32.121005 
L 40.448591 31.804305 
L 43.544244 31.761242 
L 46.639897 31.718179 
L 49.73555 31.675116 
L 52.831203 31.632054 
L 55.926856 31.588991 
L 59.022509 31.545928 
L 62.118162 31.511667 
L 65.213815 31.477406 
L 68.309468 31.443145 
L 71.405121 31.417686 
L 74.500774 31.409831 
L 77.596427 31.401975 
L 80.69208 31.39412 
L 83.787733 31.386265 
L 86.883386 31.37841 
" clip-path="url(#p58b5b1a54b)" style="fill: none; stroke: #ff7f0e; stroke-width: 2; stroke-linecap: square"/>
   </g>
   <g id="patch_3">
    <path d="M 23.4225 47.710709 
L 23.4225 7.2 
" style="fill: none; stroke: #bcbcbc; stroke-width: 0.8; stroke-linejoin: miter; stroke-linecap: square"/>
   </g>
   <g id="patch_4">
    <path d="M 86.883386 47.710709 
L 86.883386 7.2 
" style="fill: none; stroke: #bcbcbc; stroke-width: 0.8; stroke-linejoin: miter; stroke-linecap: square"/>
   </g>
   <g id="patch_5">
    <path d="M 23.4225 47.710709 
L 86.883386 47.710709 
" style="fill: none; stroke: #bcbcbc; stroke-width: 0.8; stroke-linejoin: miter; stroke-linecap: square"/>
   </g>
   <g id="patch_6">
    <path d="M 23.4225 7.2 
L 86.883386 7.2 
" style="fill: none; stroke: #bcbcbc; stroke-width: 0.8; stroke-linejoin: miter; stroke-linecap: square"/>
   </g>
  </g>
  <g id="axes_2">
   <g id="patch_7">
    <path d="M 118.958386 47.710709 
L 182.419272 47.710709 
L 182.419272 7.2 
L 118.958386 7.2 
z
" style="fill: #ffffff"/>
   </g>
   <g id="PolyCollection_5">
    <defs>
     <path id="m13d161d219" d="M 121.980333 -146.302032 
L 121.980333 -146.302032 
L 128.024227 -158.55979 
L 134.068121 -166.523222 
L 140.112014 -171.80589 
L 146.155908 -174.70899 
L 152.199802 -176.219329 
L 158.243696 -177.343422 
L 164.28759 -177.351277 
L 170.331484 -177.359132 
L 176.375378 -177.366987 
L 182.419272 -177.341093 
L 188.463166 -177.501749 
L 194.507059 -175.354407 
L 200.550953 -174.429844 
L 206.594847 -168.708211 
L 212.638741 -169.270518 
L 218.682635 -169.228021 
L 224.726529 -169.686812 
L 230.770423 -169.028455 
L 230.770423 -180.539717 
L 230.770423 -180.539717 
L 224.726529 -181.191878 
L 218.682635 -180.187908 
L 212.638741 -180.190602 
L 206.594847 -181.149001 
L 200.550953 -183.644579 
L 194.507059 -183.537135 
L 188.463166 -183.320634 
L 182.419272 -181.123864 
L 176.375378 -180.593824 
L 170.331484 -180.585969 
L 164.28759 -180.578114 
L 158.243696 -180.570258 
L 152.199802 -179.446166 
L 146.155908 -177.901706 
L 140.112014 -173.431462 
L 134.068121 -167.429588 
L 128.024227 -159.062994 
L 121.980333 -146.302032 
z
" style="stroke: #d62728; stroke-opacity: 0.2; stroke-width: 0.5"/>
    </defs>
    <g clip-path="url(#p663d904da2)">
     <use xlink:href="#m13d161d219" x="0" y="192.353701" style="fill: #d62728; fill-opacity: 0.2; stroke: #d62728; stroke-opacity: 0.2; stroke-width: 0.5"/>
    </g>
   </g>
   <g id="PolyCollection_6">
    <defs>
     <path id="md5335e07f6" d="M 121.980333 -146.302032 
L 121.980333 -146.302032 
L 128.024227 -157.897605 
L 134.068121 -167.582589 
L 140.112014 -173.066535 
L 146.155908 -176.32605 
L 152.199802 -177.674499 
L 158.243696 -178.394299 
L 164.28759 -178.394299 
L 170.331484 -178.394299 
L 176.375378 -178.394299 
L 182.419272 -178.394299 
L 188.463166 -178.394299 
L 194.507059 -178.019677 
L 200.550953 -177.590622 
L 206.594847 -174.589704 
L 212.638741 -174.939693 
L 218.682635 -174.615596 
L 224.726529 -176.776244 
L 230.770423 -174.304356 
L 230.770423 -181.754135 
L 230.770423 -181.754135 
L 224.726529 -183.820008 
L 218.682635 -183.820008 
L 212.638741 -183.820008 
L 206.594847 -181.199387 
L 200.550953 -181.199387 
L 194.507059 -181.199387 
L 188.463166 -181.199387 
L 182.419272 -181.199387 
L 176.375378 -178.394299 
L 170.331484 -178.394299 
L 164.28759 -178.394299 
L 158.243696 -178.394299 
L 152.199802 -177.674499 
L 146.155908 -176.32605 
L 140.112014 -173.066535 
L 134.068121 -167.582589 
L 128.024227 -157.897605 
L 121.980333 -146.302032 
z
" style="stroke: #2ca02c; stroke-opacity: 0.2; stroke-width: 0.5"/>
    </defs>
    <g clip-path="url(#p663d904da2)">
     <use xlink:href="#md5335e07f6" x="0" y="192.353701" style="fill: #2ca02c; fill-opacity: 0.2; stroke: #2ca02c; stroke-opacity: 0.2; stroke-width: 0.5"/>
    </g>
   </g>
   <g id="PolyCollection_7">
    <defs>
     <path id="m66f0eeec97" d="M 121.980333 -146.302032 
L 121.980333 -146.302032 
L 128.024227 -152.883122 
L 134.068121 -157.742033 
L 140.112014 -160.548902 
L 146.155908 -162.354475 
L 152.199802 -162.749417 
L 158.243696 -163.133913 
L 164.28759 -163.434832 
L 170.331484 -163.629728 
L 176.375378 -163.776517 
L 182.419272 -163.817379 
L 188.463166 -164.304338 
L 194.507059 -164.12071 
L 200.550953 -163.658087 
L 206.594847 -160.393485 
L 212.638741 -160.335273 
L 218.682635 -158.96198 
L 224.726529 -158.890969 
L 230.770423 -158.153854 
L 230.770423 -168.248834 
L 230.770423 -168.248834 
L 224.726529 -169.164355 
L 218.682635 -168.942964 
L 212.638741 -168.721573 
L 206.594847 -169.268924 
L 200.550953 -172.75162 
L 194.507059 -171.280351 
L 188.463166 -171.27975 
L 182.419272 -171.192057 
L 176.375378 -170.657074 
L 170.331484 -170.605591 
L 164.28759 -170.431297 
L 158.243696 -170.28441 
L 152.199802 -170.160007 
L 146.155908 -169.274214 
L 140.112014 -167.471007 
L 134.068121 -162.93957 
L 128.024227 -156.097581 
L 121.980333 -146.302032 
z
" style="stroke: #1f77b4; stroke-opacity: 0.2; stroke-width: 0.5"/>
    </defs>
    <g clip-path="url(#p663d904da2)">
     <use xlink:href="#m66f0eeec97" x="0" y="192.353701" style="fill: #1f77b4; fill-opacity: 0.2; stroke: #1f77b4; stroke-opacity: 0.2; stroke-width: 0.5"/>
    </g>
   </g>
   <g id="PolyCollection_8">
    <defs>
     <path id="m080c0f2f9a" d="M 121.980333 -146.302032 
L 121.980333 -146.302032 
L 128.024227 -151.729861 
L 134.068121 -156.601206 
L 140.112014 -159.442235 
L 146.155908 -161.167536 
L 152.199802 -162.125036 
L 158.243696 -162.493184 
L 164.28759 -162.831706 
L 170.331484 -163.170228 
L 176.375378 -163.398131 
L 182.419272 -164.060461 
L 188.463166 -164.591905 
L 194.507059 -161.394332 
L 200.550953 -161.131474 
L 206.594847 -160.481646 
L 212.638741 -158.509091 
L 218.682635 -155.617472 
L 224.726529 -155.691336 
L 230.770423 -155.491652 
L 230.770423 -167.1766 
L 230.770423 -167.1766 
L 224.726529 -169.95647 
L 218.682635 -169.948839 
L 212.638741 -170.02681 
L 206.594847 -171.772257 
L 200.550953 -170.65293 
L 194.507059 -170.019413 
L 188.463166 -169.566102 
L 182.419272 -168.218779 
L 176.375378 -167.410774 
L 170.331484 -167.105958 
L 164.28759 -166.767436 
L 158.243696 -166.428914 
L 152.199802 -165.583891 
L 146.155908 -163.678229 
L 140.112014 -161.288292 
L 134.068121 -157.561882 
L 128.024227 -152.670153 
L 121.980333 -146.302032 
z
" style="stroke: #ff7f0e; stroke-opacity: 0.2; stroke-width: 0.5"/>
    </defs>
    <g clip-path="url(#p663d904da2)">
     <use xlink:href="#m080c0f2f9a" x="0" y="192.353701" style="fill: #ff7f0e; fill-opacity: 0.2; stroke: #ff7f0e; stroke-opacity: 0.2; stroke-width: 0.5"/>
    </g>
   </g>
   <g id="matplotlib.axis_3">
    <g id="xtick_6">
     <g id="line2d_21">
      <path d="M 121.980333 47.710709 
L 121.980333 7.2 
" clip-path="url(#p663d904da2)" style="fill: none; stroke: #b0b0b0; stroke-width: 0.8; stroke-linecap: square"/>
     </g>
     <g id="line2d_22">
      <g>
       <use xlink:href="#m6b08af9e3f" x="121.980333" y="47.710709" style="stroke: #000000; stroke-width: 0.8"/>
      </g>
     </g>
     <g id="text_9">
      <!-- 0 -->
      <g transform="translate(119.435333 57.289459) scale(0.08 -0.08)">
       <use xlink:href="#DejaVuSans-30"/>
      </g>
     </g>
    </g>
    <g id="xtick_7">
     <g id="line2d_23">
      <path d="M 152.199802 47.710709 
L 152.199802 7.2 
" clip-path="url(#p663d904da2)" style="fill: none; stroke: #b0b0b0; stroke-width: 0.8; stroke-linecap: square"/>
     </g>
     <g id="line2d_24">
      <g>
       <use xlink:href="#m6b08af9e3f" x="152.199802" y="47.710709" style="stroke: #000000; stroke-width: 0.8"/>
      </g>
     </g>
     <g id="text_10">
      <!-- 5 -->
      <g transform="translate(149.654802 57.289459) scale(0.08 -0.08)">
       <use xlink:href="#DejaVuSans-35"/>
      </g>
     </g>
    </g>
    <g id="xtick_8">
     <g id="line2d_25">
      <path d="M 182.419272 47.710709 
L 182.419272 7.2 
" clip-path="url(#p663d904da2)" style="fill: none; stroke: #b0b0b0; stroke-width: 0.8; stroke-linecap: square"/>
     </g>
     <g id="line2d_26">
      <g>
       <use xlink:href="#m6b08af9e3f" x="182.419272" y="47.710709" style="stroke: #000000; stroke-width: 0.8"/>
      </g>
     </g>
     <g id="text_11">
      <!-- 10 -->
      <g transform="translate(177.329272 57.289459) scale(0.08 -0.08)">
       <use xlink:href="#DejaVuSans-31"/>
       <use xlink:href="#DejaVuSans-30" x="63.623047"/>
      </g>
     </g>
    </g>
   </g>
   <g id="matplotlib.axis_4">
    <g id="ytick_4">
     <g id="line2d_27">
      <path d="M 118.958386 47.710709 
L 182.419272 47.710709 
" clip-path="url(#p663d904da2)" style="fill: none; stroke: #b0b0b0; stroke-width: 0.8; stroke-linecap: square"/>
     </g>
     <g id="line2d_28">
      <g>
       <use xlink:href="#mc577e892a5" x="118.958386" y="47.710709" style="stroke: #000000; stroke-width: 0.8"/>
      </g>
     </g>
     <g id="text_12">
      <!-- 0.5 -->
      <g transform="translate(102.735886 50.750084) scale(0.08 -0.08)">
       <use xlink:href="#DejaVuSans-30"/>
       <use xlink:href="#DejaVuSans-2e" x="63.623047"/>
       <use xlink:href="#DejaVuSans-35" x="95.410156"/>
      </g>
     </g>
    </g>
    <g id="ytick_5">
     <g id="line2d_29">
      <path d="M 118.958386 31.506425 
L 182.419272 31.506425 
" clip-path="url(#p663d904da2)" style="fill: none; stroke: #b0b0b0; stroke-width: 0.8; stroke-linecap: square"/>
     </g>
     <g id="line2d_30">
      <g>
       <use xlink:href="#mc577e892a5" x="118.958386" y="31.506425" style="stroke: #000000; stroke-width: 0.8"/>
      </g>
     </g>
     <g id="text_13">
      <!-- 1.0 -->
      <g transform="translate(102.735886 34.5458) scale(0.08 -0.08)">
       <use xlink:href="#DejaVuSans-31"/>
       <use xlink:href="#DejaVuSans-2e" x="63.623047"/>
       <use xlink:href="#DejaVuSans-30" x="95.410156"/>
      </g>
     </g>
    </g>
    <g id="ytick_6">
     <g id="line2d_31">
      <path d="M 118.958386 15.302142 
L 182.419272 15.302142 
" clip-path="url(#p663d904da2)" style="fill: none; stroke: #b0b0b0; stroke-width: 0.8; stroke-linecap: square"/>
     </g>
     <g id="line2d_32">
      <g>
       <use xlink:href="#mc577e892a5" x="118.958386" y="15.302142" style="stroke: #000000; stroke-width: 0.8"/>
      </g>
     </g>
     <g id="text_14">
      <!-- 1.5 -->
      <g transform="translate(102.735886 18.341517) scale(0.08 -0.08)">
       <use xlink:href="#DejaVuSans-31"/>
       <use xlink:href="#DejaVuSans-2e" x="63.623047"/>
       <use xlink:href="#DejaVuSans-35" x="95.410156"/>
      </g>
     </g>
    </g>
   </g>
   <g id="line2d_33">
    <path d="M 121.980333 46.051669 
L 128.024227 33.689077 
L 134.068121 25.64178 
L 140.112014 20.207483 
L 146.155908 16.406242 
L 152.199802 14.835543 
L 158.243696 13.684743 
L 164.28759 13.650179 
L 170.331484 13.642651 
L 176.375378 13.635123 
L 182.419272 13.269519 
L 188.463166 12.78366 
L 194.507059 12.712882 
L 195.709272 12.769447 
" clip-path="url(#p663d904da2)" style="fill: none; stroke-dasharray: 2,3.3; stroke-dashoffset: 0; stroke: #d62728; stroke-width: 2"/>
   </g>
   <g id="line2d_34">
    <path d="M 121.980333 46.051669 
L 128.024227 34.456095 
L 134.068121 24.771112 
L 140.112014 19.287166 
L 146.155908 16.027651 
L 152.199802 14.679202 
L 158.243696 13.959402 
L 164.28759 13.959402 
L 170.331484 13.959402 
L 176.375378 13.959402 
L 182.419272 13.525374 
L 188.463166 12.968511 
L 194.507059 12.559744 
L 195.709272 12.459981 
" clip-path="url(#p663d904da2)" style="fill: none; stroke-dasharray: 7.4,3.2; stroke-dashoffset: 0; stroke: #2ca02c; stroke-width: 2"/>
   </g>
   <g id="line2d_35">
    <path d="M 121.980333 46.051669 
L 128.024227 37.639971 
L 134.068121 32.049067 
L 140.112014 28.494096 
L 146.155908 26.759801 
L 152.199802 26.23071 
L 158.243696 25.907804 
L 164.28759 25.604366 
L 170.331484 25.377796 
L 176.375378 25.174636 
L 182.419272 24.711651 
L 188.463166 24.347521 
L 194.507059 24.241065 
L 195.709272 24.264501 
" clip-path="url(#p663d904da2)" style="fill: none; stroke-dasharray: 12.8,3.2,2,3.2; stroke-dashoffset: 0; stroke: #1f77b4; stroke-width: 2"/>
   </g>
   <g id="line2d_36">
    <path d="M 121.980333 46.051669 
L 128.024227 39.897795 
L 134.068121 35.059624 
L 140.112014 32.282265 
L 146.155908 30.057595 
L 152.199802 28.525005 
L 158.243696 27.886143 
L 164.28759 27.506475 
L 170.331484 27.143265 
L 176.375378 26.86664 
L 182.419272 26.273831 
L 188.463166 25.579479 
L 194.507059 25.44745 
L 195.709272 25.315262 
" clip-path="url(#p663d904da2)" style="fill: none; stroke: #ff7f0e; stroke-width: 2; stroke-linecap: square"/>
   </g>
   <g id="patch_8">
    <path d="M 118.958386 47.710709 
L 118.958386 7.2 
" style="fill: none; stroke: #bcbcbc; stroke-width: 0.8; stroke-linejoin: miter; stroke-linecap: square"/>
   </g>
   <g id="patch_9">
    <path d="M 182.419272 47.710709 
L 182.419272 7.2 
" style="fill: none; stroke: #bcbcbc; stroke-width: 0.8; stroke-linejoin: miter; stroke-linecap: square"/>
   </g>
   <g id="patch_10">
    <path d="M 118.958386 47.710709 
L 182.419272 47.710709 
" style="fill: none; stroke: #bcbcbc; stroke-width: 0.8; stroke-linejoin: miter; stroke-linecap: square"/>
   </g>
   <g id="patch_11">
    <path d="M 118.958386 7.2 
L 182.419272 7.2 
" style="fill: none; stroke: #bcbcbc; stroke-width: 0.8; stroke-linejoin: miter; stroke-linecap: square"/>
   </g>
  </g>
  <g id="axes_3">
   <g id="patch_12">
    <path d="M 23.4225 112.601417 
L 86.883386 112.601417 
L 86.883386 72.090709 
L 23.4225 72.090709 
z
" style="fill: #ffffff"/>
   </g>
   <g id="PolyCollection_9">
    <defs>
     <path id="m0aa7b8baff" d="M 24.970326 -94.737743 
L 24.970326 -86.297661 
L 28.065979 -90.125094 
L 31.161632 -93.585465 
L 34.257285 -95.378679 
L 37.352938 -96.661756 
L 40.448591 -97.578513 
L 43.544244 -97.982017 
L 46.639897 -98.202023 
L 49.73555 -98.379276 
L 52.831203 -98.547045 
L 55.926856 -98.585111 
L 59.022509 -98.599355 
L 62.118162 -98.613599 
L 65.213815 -98.627843 
L 68.309468 -98.642087 
L 71.405121 -98.653194 
L 74.500774 -98.653685 
L 77.596427 -98.654176 
L 80.69208 -98.654667 
L 83.787733 -98.655158 
L 83.787733 -113.816607 
L 83.787733 -113.816607 
L 80.69208 -113.816116 
L 77.596427 -113.815626 
L 74.500774 -113.815135 
L 71.405121 -113.814644 
L 68.309468 -113.814153 
L 65.213815 -113.787565 
L 62.118162 -113.70956 
L 59.022509 -113.656516 
L 55.926856 -113.6051 
L 52.831203 -113.546769 
L 49.73555 -113.38188 
L 46.639897 -112.554949 
L 43.544244 -111.693094 
L 40.448591 -110.706829 
L 37.352938 -109.622536 
L 34.257285 -107.998356 
L 31.161632 -105.795818 
L 28.065979 -101.141387 
L 24.970326 -94.737743 
z
" style="stroke: #d62728; stroke-opacity: 0.2; stroke-width: 0.5"/>
    </defs>
    <g clip-path="url(#p9c0c6f19f6)">
     <use xlink:href="#m0aa7b8baff" x="0" y="192.353701" style="fill: #d62728; fill-opacity: 0.2; stroke: #d62728; stroke-opacity: 0.2; stroke-width: 0.5"/>
    </g>
   </g>
   <g id="PolyCollection_10">
    <defs>
     <path id="mae71784a27" d="M 24.970326 -86.527419 
L 24.970326 -86.527419 
L 28.065979 -88.51149 
L 31.161632 -90.75041 
L 34.257285 -92.671561 
L 37.352938 -93.666353 
L 40.448591 -94.393305 
L 43.544244 -95.120257 
L 46.639897 -95.612684 
L 49.73555 -95.612684 
L 52.831203 -95.612684 
L 55.926856 -95.612684 
L 59.022509 -95.612684 
L 62.118162 -95.612684 
L 65.213815 -95.612684 
L 68.309468 -95.612684 
L 71.405121 -95.612684 
L 74.500774 -95.612684 
L 77.596427 -95.612684 
L 80.69208 -95.612684 
L 83.787733 -95.612684 
L 83.787733 -95.612684 
L 83.787733 -95.612684 
L 80.69208 -95.612684 
L 77.596427 -95.612684 
L 74.500774 -95.612684 
L 71.405121 -95.612684 
L 68.309468 -95.612684 
L 65.213815 -95.612684 
L 62.118162 -95.612684 
L 59.022509 -95.612684 
L 55.926856 -95.612684 
L 52.831203 -95.612684 
L 49.73555 -95.612684 
L 46.639897 -95.612684 
L 43.544244 -95.120257 
L 40.448591 -94.393305 
L 37.352938 -93.666353 
L 34.257285 -92.671561 
L 31.161632 -90.75041 
L 28.065979 -88.51149 
L 24.970326 -86.527419 
z
" style="stroke: #2ca02c; stroke-opacity: 0.2; stroke-width: 0.5"/>
    </defs>
    <g clip-path="url(#p9c0c6f19f6)">
     <use xlink:href="#mae71784a27" x="0" y="192.353701" style="fill: #2ca02c; fill-opacity: 0.2; stroke: #2ca02c; stroke-opacity: 0.2; stroke-width: 0.5"/>
    </g>
   </g>
   <g id="PolyCollection_11">
    <defs>
     <path id="m1a92adf636" d="M 24.970326 -95.2312 
L 24.970326 -86.656259 
L 28.065979 -91.179612 
L 31.161632 -94.040486 
L 34.257285 -95.273532 
L 37.352938 -96.269355 
L 40.448591 -97.035064 
L 43.544244 -97.665718 
L 46.639897 -98.266957 
L 49.73555 -98.850506 
L 52.831203 -99.00117 
L 55.926856 -99.151834 
L 59.022509 -99.302499 
L 62.118162 -99.453163 
L 65.213815 -99.603827 
L 68.309468 -99.754492 
L 71.405121 -99.905156 
L 74.500774 -99.905156 
L 77.596427 -99.905156 
L 80.69208 -99.905156 
L 83.787733 -99.905156 
L 83.787733 -113.257767 
L 83.787733 -113.257767 
L 80.69208 -113.254985 
L 77.596427 -113.252203 
L 74.500774 -113.249421 
L 71.405121 -113.246639 
L 68.309468 -113.243857 
L 65.213815 -113.241075 
L 62.118162 -113.238293 
L 59.022509 -113.087628 
L 55.926856 -112.936964 
L 52.831203 -112.7863 
L 49.73555 -112.536445 
L 46.639897 -112.286591 
L 43.544244 -112.036736 
L 40.448591 -111.770428 
L 37.352938 -110.74591 
L 34.257285 -109.42228 
L 31.161632 -106.205717 
L 28.065979 -101.4499 
L 24.970326 -95.2312 
z
" style="stroke: #1f77b4; stroke-opacity: 0.2; stroke-width: 0.5"/>
    </defs>
    <g clip-path="url(#p9c0c6f19f6)">
     <use xlink:href="#m1a92adf636" x="0" y="192.353701" style="fill: #1f77b4; fill-opacity: 0.2; stroke: #1f77b4; stroke-opacity: 0.2; stroke-width: 0.5"/>
    </g>
   </g>
   <g id="PolyCollection_12">
    <defs>
     <path id="mff1e373620" d="M 24.970326 -87.020345 
L 24.970326 -87.020345 
L 28.065979 -89.817513 
L 31.161632 -92.358074 
L 34.257285 -93.252358 
L 37.352938 -93.830677 
L 40.448591 -94.408997 
L 43.544244 -94.550048 
L 46.639897 -94.645007 
L 49.73555 -94.739966 
L 52.831203 -94.834926 
L 55.926856 -94.838199 
L 59.022509 -94.841472 
L 62.118162 -94.844745 
L 65.213815 -94.848018 
L 68.309468 -94.851291 
L 71.405121 -94.854564 
L 74.500774 -94.857837 
L 77.596427 -94.86111 
L 80.69208 -94.864383 
L 83.787733 -94.867656 
L 83.787733 -94.867656 
L 83.787733 -94.867656 
L 80.69208 -94.864383 
L 77.596427 -94.86111 
L 74.500774 -94.857837 
L 71.405121 -94.854564 
L 68.309468 -94.851291 
L 65.213815 -94.848018 
L 62.118162 -94.844745 
L 59.022509 -94.841472 
L 55.926856 -94.838199 
L 52.831203 -94.834926 
L 49.73555 -94.739966 
L 46.639897 -94.645007 
L 43.544244 -94.550048 
L 40.448591 -94.408997 
L 37.352938 -93.830677 
L 34.257285 -93.252358 
L 31.161632 -92.358074 
L 28.065979 -89.817513 
L 24.970326 -87.020345 
z
" style="stroke: #ff7f0e; stroke-opacity: 0.2; stroke-width: 0.5"/>
    </defs>
    <g clip-path="url(#p9c0c6f19f6)">
     <use xlink:href="#mff1e373620" x="0" y="192.353701" style="fill: #ff7f0e; fill-opacity: 0.2; stroke: #ff7f0e; stroke-opacity: 0.2; stroke-width: 0.5"/>
    </g>
   </g>
   <g id="matplotlib.axis_5">
    <g id="xtick_9">
     <g id="line2d_37">
      <path d="M 24.970326 112.601417 
L 24.970326 72.090709 
" clip-path="url(#p9c0c6f19f6)" style="fill: none; stroke: #b0b0b0; stroke-width: 0.8; stroke-linecap: square"/>
     </g>
     <g id="line2d_38">
      <g>
       <use xlink:href="#m6b08af9e3f" x="24.970326" y="112.601417" style="stroke: #000000; stroke-width: 0.8"/>
      </g>
     </g>
     <g id="text_15">
      <!-- 0 -->
      <g transform="translate(22.425326 122.180167) scale(0.08 -0.08)">
       <use xlink:href="#DejaVuSans-30"/>
      </g>
     </g>
    </g>
    <g id="xtick_10">
     <g id="line2d_39">
      <path d="M 40.448591 112.601417 
L 40.448591 72.090709 
" clip-path="url(#p9c0c6f19f6)" style="fill: none; stroke: #b0b0b0; stroke-width: 0.8; stroke-linecap: square"/>
     </g>
     <g id="line2d_40">
      <g>
       <use xlink:href="#m6b08af9e3f" x="40.448591" y="112.601417" style="stroke: #000000; stroke-width: 0.8"/>
      </g>
     </g>
     <g id="text_16">
      <!-- 5 -->
      <g transform="translate(37.903591 122.180167) scale(0.08 -0.08)">
       <use xlink:href="#DejaVuSans-35"/>
      </g>
     </g>
    </g>
    <g id="xtick_11">
     <g id="line2d_41">
      <path d="M 55.926856 112.601417 
L 55.926856 72.090709 
" clip-path="url(#p9c0c6f19f6)" style="fill: none; stroke: #b0b0b0; stroke-width: 0.8; stroke-linecap: square"/>
     </g>
     <g id="line2d_42">
      <g>
       <use xlink:href="#m6b08af9e3f" x="55.926856" y="112.601417" style="stroke: #000000; stroke-width: 0.8"/>
      </g>
     </g>
     <g id="text_17">
      <!-- 10 -->
      <g transform="translate(50.836856 122.180167) scale(0.08 -0.08)">
       <use xlink:href="#DejaVuSans-31"/>
       <use xlink:href="#DejaVuSans-30" x="63.623047"/>
      </g>
     </g>
    </g>
    <g id="xtick_12">
     <g id="line2d_43">
      <path d="M 71.405121 112.601417 
L 71.405121 72.090709 
" clip-path="url(#p9c0c6f19f6)" style="fill: none; stroke: #b0b0b0; stroke-width: 0.8; stroke-linecap: square"/>
     </g>
     <g id="line2d_44">
      <g>
       <use xlink:href="#m6b08af9e3f" x="71.405121" y="112.601417" style="stroke: #000000; stroke-width: 0.8"/>
      </g>
     </g>
     <g id="text_18">
      <!-- 15 -->
      <g transform="translate(66.315121 122.180167) scale(0.08 -0.08)">
       <use xlink:href="#DejaVuSans-31"/>
       <use xlink:href="#DejaVuSans-35" x="63.623047"/>
      </g>
     </g>
    </g>
    <g id="xtick_13">
     <g id="line2d_45">
      <path d="M 86.883386 112.601417 
L 86.883386 72.090709 
" clip-path="url(#p9c0c6f19f6)" style="fill: none; stroke: #b0b0b0; stroke-width: 0.8; stroke-linecap: square"/>
     </g>
     <g id="line2d_46">
      <g>
       <use xlink:href="#m6b08af9e3f" x="86.883386" y="112.601417" style="stroke: #000000; stroke-width: 0.8"/>
      </g>
     </g>
     <g id="text_19">
      <!-- 20 -->
      <g transform="translate(81.793386 122.180167) scale(0.08 -0.08)">
       <use xlink:href="#DejaVuSans-32"/>
       <use xlink:href="#DejaVuSans-30" x="63.623047"/>
      </g>
     </g>
    </g>
   </g>
   <g id="matplotlib.axis_6">
    <g id="ytick_7">
     <g id="line2d_47">
      <path d="M 23.4225 112.601417 
L 86.883386 112.601417 
" clip-path="url(#p9c0c6f19f6)" style="fill: none; stroke: #b0b0b0; stroke-width: 0.8; stroke-linecap: square"/>
     </g>
     <g id="line2d_48">
      <g>
       <use xlink:href="#mc577e892a5" x="23.4225" y="112.601417" style="stroke: #000000; stroke-width: 0.8"/>
      </g>
     </g>
     <g id="text_20">
      <!-- 0 -->
      <g transform="translate(14.8325 115.640792) scale(0.08 -0.08)">
       <use xlink:href="#DejaVuSans-30"/>
      </g>
     </g>
    </g>
    <g id="ytick_8">
     <g id="line2d_49">
      <path d="M 23.4225 99.097848 
L 86.883386 99.097848 
" clip-path="url(#p9c0c6f19f6)" style="fill: none; stroke: #b0b0b0; stroke-width: 0.8; stroke-linecap: square"/>
     </g>
     <g id="line2d_50">
      <g>
       <use xlink:href="#mc577e892a5" x="23.4225" y="99.097848" style="stroke: #000000; stroke-width: 0.8"/>
      </g>
     </g>
     <g id="text_21">
      <!-- 1 -->
      <g transform="translate(14.8325 102.137223) scale(0.08 -0.08)">
       <use xlink:href="#DejaVuSans-31"/>
      </g>
     </g>
    </g>
    <g id="ytick_9">
     <g id="line2d_51">
      <path d="M 23.4225 85.594278 
L 86.883386 85.594278 
" clip-path="url(#p9c0c6f19f6)" style="fill: none; stroke: #b0b0b0; stroke-width: 0.8; stroke-linecap: square"/>
     </g>
     <g id="line2d_52">
      <g>
       <use xlink:href="#mc577e892a5" x="23.4225" y="85.594278" style="stroke: #000000; stroke-width: 0.8"/>
      </g>
     </g>
     <g id="text_22">
      <!-- 2 -->
      <g transform="translate(14.8325 88.633653) scale(0.08 -0.08)">
       <use xlink:href="#DejaVuSans-32"/>
      </g>
     </g>
    </g>
    <g id="ytick_10">
     <g id="line2d_53">
      <path d="M 23.4225 72.090709 
L 86.883386 72.090709 
" clip-path="url(#p9c0c6f19f6)" style="fill: none; stroke: #b0b0b0; stroke-width: 0.8; stroke-linecap: square"/>
     </g>
     <g id="line2d_54">
      <g>
       <use xlink:href="#mc577e892a5" x="23.4225" y="72.090709" style="stroke: #000000; stroke-width: 0.8"/>
      </g>
     </g>
     <g id="text_23">
      <!-- 3 -->
      <g transform="translate(14.8325 75.130084) scale(0.08 -0.08)">
       <defs>
        <path id="DejaVuSans-33" d="M 2597 2516 
Q 3050 2419 3304 2112 
Q 3559 1806 3559 1356 
Q 3559 666 3084 287 
Q 2609 -91 1734 -91 
Q 1441 -91 1130 -33 
Q 819 25 488 141 
L 488 750 
Q 750 597 1062 519 
Q 1375 441 1716 441 
Q 2309 441 2620 675 
Q 2931 909 2931 1356 
Q 2931 1769 2642 2001 
Q 2353 2234 1838 2234 
L 1294 2234 
L 1294 2753 
L 1863 2753 
Q 2328 2753 2575 2939 
Q 2822 3125 2822 3475 
Q 2822 3834 2567 4026 
Q 2313 4219 1838 4219 
Q 1578 4219 1281 4162 
Q 984 4106 628 3988 
L 628 4550 
Q 988 4650 1302 4700 
Q 1616 4750 1894 4750 
Q 2613 4750 3031 4423 
Q 3450 4097 3450 3541 
Q 3450 3153 3228 2886 
Q 3006 2619 2597 2516 
z
" transform="scale(0.015625)"/>
       </defs>
       <use xlink:href="#DejaVuSans-33"/>
      </g>
     </g>
    </g>
   </g>
   <g id="line2d_55">
    <path d="M 24.970326 102.175837 
L 28.065979 96.908016 
L 31.161632 93.270131 
L 34.257285 91.110374 
L 37.352938 89.75269 
L 40.448591 88.783612 
L 43.544244 88.10248 
L 46.639897 87.552218 
L 49.73555 87.125767 
L 52.831203 86.877323 
L 55.926856 86.685019 
L 59.022509 86.563045 
L 62.118162 86.45175 
L 65.213815 86.386006 
L 68.309468 86.335981 
L 71.405121 86.304275 
L 74.500774 86.272569 
L 77.596427 86.251932 
L 80.69208 86.231295 
L 83.787733 86.217516 
" clip-path="url(#p9c0c6f19f6)" style="fill: none; stroke-dasharray: 2,3.3; stroke-dashoffset: 0; stroke: #d62728; stroke-width: 2"/>
   </g>
   <g id="line2d_56">
    <path d="M 24.970326 105.826281 
L 28.065979 103.842211 
L 31.161632 101.603291 
L 34.257285 99.682139 
L 37.352938 98.687347 
L 40.448591 97.960395 
L 43.544244 97.233443 
L 46.639897 96.741017 
L 49.73555 96.741017 
L 52.831203 96.741017 
L 55.926856 96.741017 
L 59.022509 96.741017 
L 62.118162 96.741017 
L 65.213815 96.741017 
L 68.309468 96.741017 
L 71.405121 96.741017 
L 74.500774 96.741017 
L 77.596427 96.741017 
L 80.69208 96.741017 
L 83.787733 96.741017 
" clip-path="url(#p9c0c6f19f6)" style="fill: none; stroke-dasharray: 7.4,3.2; stroke-dashoffset: 0; stroke: #2ca02c; stroke-width: 2"/>
   </g>
   <g id="line2d_57">
    <path d="M 24.970326 101.398618 
L 28.065979 96.264996 
L 31.161632 92.751817 
L 34.257285 90.220634 
L 37.352938 88.581818 
L 40.448591 87.616295 
L 43.544244 87.017047 
L 46.639897 86.681604 
L 49.73555 86.472481 
L 52.831203 86.35707 
L 55.926856 86.279967 
L 59.022509 86.208659 
L 62.118162 86.139271 
L 65.213815 86.103168 
L 68.309468 86.073101 
L 71.405121 86.046991 
L 74.500774 86.03101 
L 77.596427 86.01503 
L 80.69208 85.999049 
L 83.787733 85.983068 
" clip-path="url(#p9c0c6f19f6)" style="fill: none; stroke-dasharray: 12.8,3.2,2,3.2; stroke-dashoffset: 0; stroke: #1f77b4; stroke-width: 2"/>
   </g>
   <g id="line2d_58">
    <path d="M 24.970326 105.333356 
L 28.065979 102.536187 
L 31.161632 99.995627 
L 34.257285 99.101343 
L 37.352938 98.523024 
L 40.448591 97.944704 
L 43.544244 97.803653 
L 46.639897 97.708694 
L 49.73555 97.613735 
L 52.831203 97.518775 
L 55.926856 97.511682 
L 59.022509 97.504589 
L 62.118162 97.497495 
L 65.213815 97.490402 
L 68.309468 97.483309 
L 71.405121 97.480036 
L 74.500774 97.476763 
L 77.596427 97.47349 
L 80.69208 97.470217 
L 83.787733 97.466943 
" clip-path="url(#p9c0c6f19f6)" style="fill: none; stroke: #ff7f0e; stroke-width: 2; stroke-linecap: square"/>
   </g>
   <g id="patch_13">
    <path d="M 23.4225 112.601417 
L 23.4225 72.090709 
" style="fill: none; stroke: #bcbcbc; stroke-width: 0.8; stroke-linejoin: miter; stroke-linecap: square"/>
   </g>
   <g id="patch_14">
    <path d="M 86.883386 112.601417 
L 86.883386 72.090709 
" style="fill: none; stroke: #bcbcbc; stroke-width: 0.8; stroke-linejoin: miter; stroke-linecap: square"/>
   </g>
   <g id="patch_15">
    <path d="M 23.4225 112.601417 
L 86.883386 112.601417 
" style="fill: none; stroke: #bcbcbc; stroke-width: 0.8; stroke-linejoin: miter; stroke-linecap: square"/>
   </g>
   <g id="patch_16">
    <path d="M 23.4225 72.090709 
L 86.883386 72.090709 
" style="fill: none; stroke: #bcbcbc; stroke-width: 0.8; stroke-linejoin: miter; stroke-linecap: square"/>
   </g>
  </g>
  <g id="axes_4">
   <g id="patch_17">
    <path d="M 118.958386 112.601417 
L 182.419272 112.601417 
L 182.419272 72.090709 
L 118.958386 72.090709 
z
" style="fill: #ffffff"/>
   </g>
   <g id="PolyCollection_13">
    <defs>
     <path id="mc9686a6b3b" d="M 121.980333 -89.306196 
L 121.980333 -86.55168 
L 128.024227 -91.048146 
L 134.068121 -94.310951 
L 140.112014 -96.51314 
L 146.155908 -97.968223 
L 152.199802 -98.528281 
L 158.243696 -98.871264 
L 164.28759 -98.874537 
L 170.331484 -98.87781 
L 176.375378 -98.881083 
L 182.419272 -98.490451 
L 188.463166 -97.950523 
L 194.507059 -97.902306 
L 200.550953 -97.407941 
L 206.594847 -97.082049 
L 212.638741 -95.816073 
L 218.682635 -94.87004 
L 224.726529 -94.675265 
L 230.770423 -94.661645 
L 236.814317 -94.661645 
L 236.814317 -102.437075 
L 236.814317 -102.437075 
L 230.770423 -102.437075 
L 224.726529 -102.437075 
L 218.682635 -102.522684 
L 212.638741 -102.831873 
L 206.594847 -103.300661 
L 200.550953 -103.24354 
L 194.507059 -103.240235 
L 188.463166 -104.632599 
L 182.419272 -104.632109 
L 176.375378 -103.976948 
L 170.331484 -103.973675 
L 164.28759 -103.970402 
L 158.243696 -103.967129 
L 152.199802 -103.436055 
L 146.155908 -102.498483 
L 140.112014 -100.651292 
L 134.068121 -98.059362 
L 128.024227 -94.400678 
L 121.980333 -89.306196 
z
" style="stroke: #d62728; stroke-opacity: 0.2; stroke-width: 0.5"/>
    </defs>
    <g clip-path="url(#p18e28c3041)">
     <use xlink:href="#mc9686a6b3b" x="0" y="192.353701" style="fill: #d62728; fill-opacity: 0.2; stroke: #d62728; stroke-opacity: 0.2; stroke-width: 0.5"/>
    </g>
   </g>
   <g id="PolyCollection_14">
    <defs>
     <path id="m9ae90b12bb" d="M 121.980333 -87.532336 
L 121.980333 -87.532336 
L 128.024227 -92.24561 
L 134.068121 -94.953266 
L 140.112014 -96.780179 
L 146.155908 -98.096081 
L 152.199802 -98.676197 
L 158.243696 -98.994375 
L 164.28759 -98.994375 
L 170.331484 -98.994375 
L 176.375378 -98.994375 
L 182.419272 -98.994375 
L 188.463166 -98.033084 
L 194.507059 -97.863445 
L 200.550953 -97.793793 
L 206.594847 -95.54838 
L 212.638741 -96.177 
L 218.682635 -95.679589 
L 224.726529 -95.592473 
L 230.770423 -95.592473 
L 236.814317 -95.592473 
L 236.814317 -97.140089 
L 236.814317 -97.140089 
L 230.770423 -98.640489 
L 224.726529 -99.730793 
L 218.682635 -100.01293 
L 212.638741 -100.036834 
L 206.594847 -100.036834 
L 200.550953 -100.036834 
L 194.507059 -100.036834 
L 188.463166 -99.880465 
L 182.419272 -99.880465 
L 176.375378 -98.994375 
L 170.331484 -98.994375 
L 164.28759 -98.994375 
L 158.243696 -98.994375 
L 152.199802 -98.676197 
L 146.155908 -98.096081 
L 140.112014 -96.780179 
L 134.068121 -94.953266 
L 128.024227 -92.24561 
L 121.980333 -87.532336 
z
" style="stroke: #2ca02c; stroke-opacity: 0.2; stroke-width: 0.5"/>
    </defs>
    <g clip-path="url(#p18e28c3041)">
     <use xlink:href="#m9ae90b12bb" x="0" y="192.353701" style="fill: #2ca02c; fill-opacity: 0.2; stroke: #2ca02c; stroke-opacity: 0.2; stroke-width: 0.5"/>
    </g>
   </g>
   <g id="PolyCollection_15">
    <defs>
     <path id="m8a39b4ace5" d="M 121.980333 -89.556073 
L 121.980333 -85.889811 
L 128.024227 -88.980817 
L 134.068121 -91.21311 
L 140.112014 -92.964621 
L 146.155908 -93.727363 
L 152.199802 -93.91708 
L 158.243696 -94.070083 
L 164.28759 -94.171669 
L 170.331484 -94.266628 
L 176.375378 -94.347344 
L 182.419272 -93.733721 
L 188.463166 -93.744245 
L 194.507059 -93.509893 
L 200.550953 -93.509893 
L 206.594847 -91.831359 
L 212.638741 -92.039506 
L 218.682635 -92.039506 
L 224.726529 -90.58706 
L 230.770423 -90.902755 
L 236.814317 -90.889489 
L 236.814317 -94.993398 
L 236.814317 -94.993398 
L 230.770423 -96.299926 
L 224.726529 -96.299926 
L 218.682635 -96.634207 
L 212.638741 -97.336895 
L 206.594847 -97.336895 
L 200.550953 -97.336895 
L 194.507059 -98.33162 
L 188.463166 -98.268345 
L 182.419272 -98.66209 
L 176.375378 -98.608668 
L 170.331484 -98.474531 
L 164.28759 -98.340394 
L 158.243696 -98.16208 
L 152.199802 -97.983766 
L 146.155908 -97.781925 
L 140.112014 -96.955078 
L 134.068121 -94.960425 
L 128.024227 -92.632651 
L 121.980333 -89.556073 
z
" style="stroke: #1f77b4; stroke-opacity: 0.2; stroke-width: 0.5"/>
    </defs>
    <g clip-path="url(#p18e28c3041)">
     <use xlink:href="#m8a39b4ace5" x="0" y="192.353701" style="fill: #1f77b4; fill-opacity: 0.2; stroke: #1f77b4; stroke-opacity: 0.2; stroke-width: 0.5"/>
    </g>
   </g>
   <g id="PolyCollection_16">
    <defs>
     <path id="mac53a9f27c" d="M 121.980333 -85.976435 
L 121.980333 -84.298652 
L 128.024227 -85.92137 
L 134.068121 -87.077476 
L 140.112014 -87.993772 
L 146.155908 -88.480406 
L 152.199802 -88.582816 
L 158.243696 -88.632181 
L 164.28759 -88.681545 
L 170.331484 -88.684818 
L 176.375378 -88.688091 
L 182.419272 -88.755235 
L 188.463166 -88.161816 
L 194.507059 -86.640667 
L 200.550953 -86.55012 
L 206.594847 -86.731554 
L 212.638741 -86.193005 
L 218.682635 -85.832498 
L 224.726529 -85.953836 
L 230.770423 -86.005603 
L 236.814317 -86.005603 
L 236.814317 -88.960471 
L 236.814317 -88.960471 
L 230.770423 -91.466358 
L 224.726529 -91.486579 
L 218.682635 -92.294016 
L 212.638741 -93.629623 
L 206.594847 -93.496794 
L 200.550953 -93.883468 
L 194.507059 -93.749846 
L 188.463166 -93.648516 
L 182.419272 -93.473563 
L 176.375378 -92.518038 
L 170.331484 -92.364981 
L 164.28759 -92.12515 
L 158.243696 -91.744472 
L 152.199802 -91.520703 
L 146.155908 -91.187888 
L 140.112014 -90.522786 
L 134.068121 -89.679514 
L 128.024227 -88.099058 
L 121.980333 -85.976435 
z
" style="stroke: #ff7f0e; stroke-opacity: 0.2; stroke-width: 0.5"/>
    </defs>
    <g clip-path="url(#p18e28c3041)">
     <use xlink:href="#mac53a9f27c" x="0" y="192.353701" style="fill: #ff7f0e; fill-opacity: 0.2; stroke: #ff7f0e; stroke-opacity: 0.2; stroke-width: 0.5"/>
    </g>
   </g>
   <g id="matplotlib.axis_7">
    <g id="xtick_14">
     <g id="line2d_59">
      <path d="M 121.980333 112.601417 
L 121.980333 72.090709 
" clip-path="url(#p18e28c3041)" style="fill: none; stroke: #b0b0b0; stroke-width: 0.8; stroke-linecap: square"/>
     </g>
     <g id="line2d_60">
      <g>
       <use xlink:href="#m6b08af9e3f" x="121.980333" y="112.601417" style="stroke: #000000; stroke-width: 0.8"/>
      </g>
     </g>
     <g id="text_24">
      <!-- 0 -->
      <g transform="translate(119.435333 122.180167) scale(0.08 -0.08)">
       <use xlink:href="#DejaVuSans-30"/>
      </g>
     </g>
    </g>
    <g id="xtick_15">
     <g id="line2d_61">
      <path d="M 152.199802 112.601417 
L 152.199802 72.090709 
" clip-path="url(#p18e28c3041)" style="fill: none; stroke: #b0b0b0; stroke-width: 0.8; stroke-linecap: square"/>
     </g>
     <g id="line2d_62">
      <g>
       <use xlink:href="#m6b08af9e3f" x="152.199802" y="112.601417" style="stroke: #000000; stroke-width: 0.8"/>
      </g>
     </g>
     <g id="text_25">
      <!-- 5 -->
      <g transform="translate(149.654802 122.180167) scale(0.08 -0.08)">
       <use xlink:href="#DejaVuSans-35"/>
      </g>
     </g>
    </g>
    <g id="xtick_16">
     <g id="line2d_63">
      <path d="M 182.419272 112.601417 
L 182.419272 72.090709 
" clip-path="url(#p18e28c3041)" style="fill: none; stroke: #b0b0b0; stroke-width: 0.8; stroke-linecap: square"/>
     </g>
     <g id="line2d_64">
      <g>
       <use xlink:href="#m6b08af9e3f" x="182.419272" y="112.601417" style="stroke: #000000; stroke-width: 0.8"/>
      </g>
     </g>
     <g id="text_26">
      <!-- 10 -->
      <g transform="translate(177.329272 122.180167) scale(0.08 -0.08)">
       <use xlink:href="#DejaVuSans-31"/>
       <use xlink:href="#DejaVuSans-30" x="63.623047"/>
      </g>
     </g>
    </g>
   </g>
   <g id="matplotlib.axis_8">
    <g id="ytick_11">
     <g id="line2d_65">
      <path d="M 118.958386 112.601417 
L 182.419272 112.601417 
" clip-path="url(#p18e28c3041)" style="fill: none; stroke: #b0b0b0; stroke-width: 0.8; stroke-linecap: square"/>
     </g>
     <g id="line2d_66">
      <g>
       <use xlink:href="#mc577e892a5" x="118.958386" y="112.601417" style="stroke: #000000; stroke-width: 0.8"/>
      </g>
     </g>
     <g id="text_27">
      <!-- 0 -->
      <g transform="translate(110.368386 115.640792) scale(0.08 -0.08)">
       <use xlink:href="#DejaVuSans-30"/>
      </g>
     </g>
    </g>
    <g id="ytick_12">
     <g id="line2d_67">
      <path d="M 118.958386 99.097848 
L 182.419272 99.097848 
" clip-path="url(#p18e28c3041)" style="fill: none; stroke: #b0b0b0; stroke-width: 0.8; stroke-linecap: square"/>
     </g>
     <g id="line2d_68">
      <g>
       <use xlink:href="#mc577e892a5" x="118.958386" y="99.097848" style="stroke: #000000; stroke-width: 0.8"/>
      </g>
     </g>
     <g id="text_28">
      <!-- 1 -->
      <g transform="translate(110.368386 102.137223) scale(0.08 -0.08)">
       <use xlink:href="#DejaVuSans-31"/>
      </g>
     </g>
    </g>
    <g id="ytick_13">
     <g id="line2d_69">
      <path d="M 118.958386 85.594278 
L 182.419272 85.594278 
" clip-path="url(#p18e28c3041)" style="fill: none; stroke: #b0b0b0; stroke-width: 0.8; stroke-linecap: square"/>
     </g>
     <g id="line2d_70">
      <g>
       <use xlink:href="#mc577e892a5" x="118.958386" y="85.594278" style="stroke: #000000; stroke-width: 0.8"/>
      </g>
     </g>
     <g id="text_29">
      <!-- 2 -->
      <g transform="translate(110.368386 88.633653) scale(0.08 -0.08)">
       <use xlink:href="#DejaVuSans-32"/>
      </g>
     </g>
    </g>
    <g id="ytick_14">
     <g id="line2d_71">
      <path d="M 118.958386 72.090709 
L 182.419272 72.090709 
" clip-path="url(#p18e28c3041)" style="fill: none; stroke: #b0b0b0; stroke-width: 0.8; stroke-linecap: square"/>
     </g>
     <g id="line2d_72">
      <g>
       <use xlink:href="#mc577e892a5" x="118.958386" y="72.090709" style="stroke: #000000; stroke-width: 0.8"/>
      </g>
     </g>
     <g id="text_30">
      <!-- 3 -->
      <g transform="translate(110.368386 75.130084) scale(0.08 -0.08)">
       <use xlink:href="#DejaVuSans-33"/>
      </g>
     </g>
    </g>
   </g>
   <g id="line2d_73">
    <path d="M 121.980333 104.707106 
L 128.024227 99.589655 
L 134.068121 96.273303 
L 140.112014 94.008596 
L 146.155908 92.449692 
L 152.199802 91.782765 
L 158.243696 91.34545 
L 164.28759 91.342313 
L 170.331484 91.339177 
L 176.375378 91.33604 
L 182.419272 91.347531 
L 188.463166 91.522655 
L 194.507059 91.961387 
L 195.709272 91.994033 
" clip-path="url(#p18e28c3041)" style="fill: none; stroke-dasharray: 2,3.3; stroke-dashoffset: 0; stroke: #d62728; stroke-width: 2"/>
   </g>
   <g id="line2d_74">
    <path d="M 121.980333 104.821364 
L 128.024227 100.10809 
L 134.068121 97.400435 
L 140.112014 95.573522 
L 146.155908 94.25762 
L 152.199802 93.677504 
L 158.243696 93.359326 
L 164.28759 93.359326 
L 170.331484 93.359326 
L 176.375378 93.359326 
L 182.419272 93.309562 
L 188.463166 93.356684 
L 194.507059 93.574878 
L 195.709272 93.589464 
" clip-path="url(#p18e28c3041)" style="fill: none; stroke-dasharray: 7.4,3.2; stroke-dashoffset: 0; stroke: #2ca02c; stroke-width: 2"/>
   </g>
   <g id="line2d_75">
    <path d="M 121.980333 104.923599 
L 128.024227 101.41512 
L 134.068121 99.173941 
L 140.112014 97.780713 
L 146.155908 97.019369 
L 152.199802 96.788282 
L 158.243696 96.611289 
L 164.28759 96.444448 
L 170.331484 96.337064 
L 176.375378 96.249868 
L 182.419272 96.404772 
L 188.463166 96.719299 
L 194.507059 97.007409 
L 195.709272 97.032456 
" clip-path="url(#p18e28c3041)" style="fill: none; stroke-dasharray: 12.8,3.2,2,3.2; stroke-dashoffset: 0; stroke: #1f77b4; stroke-width: 2"/>
   </g>
   <g id="line2d_76">
    <path d="M 121.980333 107.252586 
L 128.024227 105.319552 
L 134.068121 103.979894 
L 140.112014 103.132694 
L 146.155908 102.488025 
L 152.199802 102.218406 
L 158.243696 102.041216 
L 164.28759 101.866006 
L 170.331484 101.756694 
L 176.375378 101.672716 
L 182.419272 101.649652 
L 188.463166 101.703541 
L 194.507059 102.018179 
L 195.709272 102.025468 
" clip-path="url(#p18e28c3041)" style="fill: none; stroke: #ff7f0e; stroke-width: 2; stroke-linecap: square"/>
   </g>
   <g id="patch_18">
    <path d="M 118.958386 112.601417 
L 118.958386 72.090709 
" style="fill: none; stroke: #bcbcbc; stroke-width: 0.8; stroke-linejoin: miter; stroke-linecap: square"/>
   </g>
   <g id="patch_19">
    <path d="M 182.419272 112.601417 
L 182.419272 72.090709 
" style="fill: none; stroke: #bcbcbc; stroke-width: 0.8; stroke-linejoin: miter; stroke-linecap: square"/>
   </g>
   <g id="patch_20">
    <path d="M 118.958386 112.601417 
L 182.419272 112.601417 
" style="fill: none; stroke: #bcbcbc; stroke-width: 0.8; stroke-linejoin: miter; stroke-linecap: square"/>
   </g>
   <g id="patch_21">
    <path d="M 118.958386 72.090709 
L 182.419272 72.090709 
" style="fill: none; stroke: #bcbcbc; stroke-width: 0.8; stroke-linejoin: miter; stroke-linecap: square"/>
   </g>
  </g>
  <g id="text_31">
   <!-- no. iterations -->
   <g transform="translate(57.690573 153.751178) scale(0.12 -0.12)">
    <defs>
     <path id="DejaVuSans-6e" d="M 3513 2113 
L 3513 0 
L 2938 0 
L 2938 2094 
Q 2938 2591 2744 2837 
Q 2550 3084 2163 3084 
Q 1697 3084 1428 2787 
Q 1159 2491 1159 1978 
L 1159 0 
L 581 0 
L 581 3500 
L 1159 3500 
L 1159 2956 
Q 1366 3272 1645 3428 
Q 1925 3584 2291 3584 
Q 2894 3584 3203 3211 
Q 3513 2838 3513 2113 
z
" transform="scale(0.015625)"/>
     <path id="DejaVuSans-6f" d="M 1959 3097 
Q 1497 3097 1228 2736 
Q 959 2375 959 1747 
Q 959 1119 1226 758 
Q 1494 397 1959 397 
Q 2419 397 2687 759 
Q 2956 1122 2956 1747 
Q 2956 2369 2687 2733 
Q 2419 3097 1959 3097 
z
M 1959 3584 
Q 2709 3584 3137 3096 
Q 3566 2609 3566 1747 
Q 3566 888 3137 398 
Q 2709 -91 1959 -91 
Q 1206 -91 779 398 
Q 353 888 353 1747 
Q 353 2609 779 3096 
Q 1206 3584 1959 3584 
z
" transform="scale(0.015625)"/>
     <path id="DejaVuSans-20" transform="scale(0.015625)"/>
     <path id="DejaVuSans-69" d="M 603 3500 
L 1178 3500 
L 1178 0 
L 603 0 
L 603 3500 
z
M 603 4863 
L 1178 4863 
L 1178 4134 
L 603 4134 
L 603 4863 
z
" transform="scale(0.015625)"/>
     <path id="DejaVuSans-74" d="M 1172 4494 
L 1172 3500 
L 2356 3500 
L 2356 3053 
L 1172 3053 
L 1172 1153 
Q 1172 725 1289 603 
Q 1406 481 1766 481 
L 2356 481 
L 2356 0 
L 1766 0 
Q 1100 0 847 248 
Q 594 497 594 1153 
L 594 3053 
L 172 3053 
L 172 3500 
L 594 3500 
L 594 4494 
L 1172 4494 
z
" transform="scale(0.015625)"/>
     <path id="DejaVuSans-65" d="M 3597 1894 
L 3597 1613 
L 953 1613 
Q 991 1019 1311 708 
Q 1631 397 2203 397 
Q 2534 397 2845 478 
Q 3156 559 3463 722 
L 3463 178 
Q 3153 47 2828 -22 
Q 2503 -91 2169 -91 
Q 1331 -91 842 396 
Q 353 884 353 1716 
Q 353 2575 817 3079 
Q 1281 3584 2069 3584 
Q 2775 3584 3186 3129 
Q 3597 2675 3597 1894 
z
M 3022 2063 
Q 3016 2534 2758 2815 
Q 2500 3097 2075 3097 
Q 1594 3097 1305 2825 
Q 1016 2553 972 2059 
L 3022 2063 
z
" transform="scale(0.015625)"/>
     <path id="DejaVuSans-72" d="M 2631 2963 
Q 2534 3019 2420 3045 
Q 2306 3072 2169 3072 
Q 1681 3072 1420 2755 
Q 1159 2438 1159 1844 
L 1159 0 
L 581 0 
L 581 3500 
L 1159 3500 
L 1159 2956 
Q 1341 3275 1631 3429 
Q 1922 3584 2338 3584 
Q 2397 3584 2469 3576 
Q 2541 3569 2628 3553 
L 2631 2963 
z
" transform="scale(0.015625)"/>
     <path id="DejaVuSans-61" d="M 2194 1759 
Q 1497 1759 1228 1600 
Q 959 1441 959 1056 
Q 959 750 1161 570 
Q 1363 391 1709 391 
Q 2188 391 2477 730 
Q 2766 1069 2766 1631 
L 2766 1759 
L 2194 1759 
z
M 3341 1997 
L 3341 0 
L 2766 0 
L 2766 531 
Q 2569 213 2275 61 
Q 1981 -91 1556 -91 
Q 1019 -91 701 211 
Q 384 513 384 1019 
Q 384 1609 779 1909 
Q 1175 2209 1959 2209 
L 2766 2209 
L 2766 2266 
Q 2766 2663 2505 2880 
Q 2244 3097 1772 3097 
Q 1472 3097 1187 3025 
Q 903 2953 641 2809 
L 641 3341 
Q 956 3463 1253 3523 
Q 1550 3584 1831 3584 
Q 2591 3584 2966 3190 
Q 3341 2797 3341 1997 
z
" transform="scale(0.015625)"/>
     <path id="DejaVuSans-73" d="M 2834 3397 
L 2834 2853 
Q 2591 2978 2328 3040 
Q 2066 3103 1784 3103 
Q 1356 3103 1142 2972 
Q 928 2841 928 2578 
Q 928 2378 1081 2264 
Q 1234 2150 1697 2047 
L 1894 2003 
Q 2506 1872 2764 1633 
Q 3022 1394 3022 966 
Q 3022 478 2636 193 
Q 2250 -91 1575 -91 
Q 1294 -91 989 -36 
Q 684 19 347 128 
L 347 722 
Q 666 556 975 473 
Q 1284 391 1588 391 
Q 1994 391 2212 530 
Q 2431 669 2431 922 
Q 2431 1156 2273 1281 
Q 2116 1406 1581 1522 
L 1381 1569 
Q 847 1681 609 1914 
Q 372 2147 372 2553 
Q 372 3047 722 3315 
Q 1072 3584 1716 3584 
Q 2034 3584 2315 3537 
Q 2597 3491 2834 3397 
z
" transform="scale(0.015625)"/>
    </defs>
    <use xlink:href="#DejaVuSans-6e"/>
    <use xlink:href="#DejaVuSans-6f" x="63.378906"/>
    <use xlink:href="#DejaVuSans-2e" x="122.810547"/>
    <use xlink:href="#DejaVuSans-20" x="154.597656"/>
    <use xlink:href="#DejaVuSans-69" x="186.384766"/>
    <use xlink:href="#DejaVuSans-74" x="214.167969"/>
    <use xlink:href="#DejaVuSans-65" x="253.376953"/>
    <use xlink:href="#DejaVuSans-72" x="314.900391"/>
    <use xlink:href="#DejaVuSans-61" x="356.013672"/>
    <use xlink:href="#DejaVuSans-74" x="417.292969"/>
    <use xlink:href="#DejaVuSans-69" x="456.501953"/>
    <use xlink:href="#DejaVuSans-6f" x="484.285156"/>
    <use xlink:href="#DejaVuSans-6e" x="545.466797"/>
    <use xlink:href="#DejaVuSans-73" x="608.845703"/>
   </g>
  </g>
  <g id="legend_1">
   <g id="patch_22">
    <path d="M 20.401355 185.153701 
L 174.290417 185.153701 
Q 176.290417 185.153701 176.290417 183.153701 
L 176.290417 154.797451 
Q 176.290417 152.797451 174.290417 152.797451 
L 20.401355 152.797451 
Q 18.401355 152.797451 18.401355 154.797451 
L 18.401355 183.153701 
Q 18.401355 185.153701 20.401355 185.153701 
z
" style="fill: #ffffff; opacity: 0.8; stroke: #cccccc; stroke-width: 0.5; stroke-linejoin: miter"/>
   </g>
   <g id="line2d_77">
    <path d="M 22.401355 160.895888 
L 32.401355 160.895888 
L 42.401355 160.895888 
" style="fill: none; stroke-dasharray: 2,3.3; stroke-dashoffset: 0; stroke: #d62728; stroke-width: 2"/>
   </g>
   <g id="text_32">
    <!-- MOGP -->
    <g transform="translate(50.401355 164.395888) scale(0.1 -0.1)">
     <defs>
      <path id="DejaVuSans-4d" d="M 628 4666 
L 1569 4666 
L 2759 1491 
L 3956 4666 
L 4897 4666 
L 4897 0 
L 4281 0 
L 4281 4097 
L 3078 897 
L 2444 897 
L 1241 4097 
L 1241 0 
L 628 0 
L 628 4666 
z
" transform="scale(0.015625)"/>
      <path id="DejaVuSans-4f" d="M 2522 4238 
Q 1834 4238 1429 3725 
Q 1025 3213 1025 2328 
Q 1025 1447 1429 934 
Q 1834 422 2522 422 
Q 3209 422 3611 934 
Q 4013 1447 4013 2328 
Q 4013 3213 3611 3725 
Q 3209 4238 2522 4238 
z
M 2522 4750 
Q 3503 4750 4090 4092 
Q 4678 3434 4678 2328 
Q 4678 1225 4090 567 
Q 3503 -91 2522 -91 
Q 1538 -91 948 565 
Q 359 1222 359 2328 
Q 359 3434 948 4092 
Q 1538 4750 2522 4750 
z
" transform="scale(0.015625)"/>
      <path id="DejaVuSans-47" d="M 3809 666 
L 3809 1919 
L 2778 1919 
L 2778 2438 
L 4434 2438 
L 4434 434 
Q 4069 175 3628 42 
Q 3188 -91 2688 -91 
Q 1594 -91 976 548 
Q 359 1188 359 2328 
Q 359 3472 976 4111 
Q 1594 4750 2688 4750 
Q 3144 4750 3555 4637 
Q 3966 4525 4313 4306 
L 4313 3634 
Q 3963 3931 3569 4081 
Q 3175 4231 2741 4231 
Q 1884 4231 1454 3753 
Q 1025 3275 1025 2328 
Q 1025 1384 1454 906 
Q 1884 428 2741 428 
Q 3075 428 3337 486 
Q 3600 544 3809 666 
z
" transform="scale(0.015625)"/>
      <path id="DejaVuSans-50" d="M 1259 4147 
L 1259 2394 
L 2053 2394 
Q 2494 2394 2734 2622 
Q 2975 2850 2975 3272 
Q 2975 3691 2734 3919 
Q 2494 4147 2053 4147 
L 1259 4147 
z
M 628 4666 
L 2053 4666 
Q 2838 4666 3239 4311 
Q 3641 3956 3641 3272 
Q 3641 2581 3239 2228 
Q 2838 1875 2053 1875 
L 1259 1875 
L 1259 0 
L 628 0 
L 628 4666 
z
" transform="scale(0.015625)"/>
     </defs>
     <use xlink:href="#DejaVuSans-4d"/>
     <use xlink:href="#DejaVuSans-4f" x="86.279297"/>
     <use xlink:href="#DejaVuSans-47" x="164.990234"/>
     <use xlink:href="#DejaVuSans-50" x="242.480469"/>
    </g>
   </g>
   <g id="line2d_78">
    <path d="M 22.401355 175.574013 
L 32.401355 175.574013 
L 42.401355 175.574013 
" style="fill: none; stroke-dasharray: 7.4,3.2; stroke-dashoffset: 0; stroke: #2ca02c; stroke-width: 2"/>
   </g>
   <g id="text_33">
    <!-- AvgGP -->
    <g transform="translate(50.401355 179.074013) scale(0.1 -0.1)">
     <defs>
      <path id="DejaVuSans-41" d="M 2188 4044 
L 1331 1722 
L 3047 1722 
L 2188 4044 
z
M 1831 4666 
L 2547 4666 
L 4325 0 
L 3669 0 
L 3244 1197 
L 1141 1197 
L 716 0 
L 50 0 
L 1831 4666 
z
" transform="scale(0.015625)"/>
      <path id="DejaVuSans-76" d="M 191 3500 
L 800 3500 
L 1894 563 
L 2988 3500 
L 3597 3500 
L 2284 0 
L 1503 0 
L 191 3500 
z
" transform="scale(0.015625)"/>
      <path id="DejaVuSans-67" d="M 2906 1791 
Q 2906 2416 2648 2759 
Q 2391 3103 1925 3103 
Q 1463 3103 1205 2759 
Q 947 2416 947 1791 
Q 947 1169 1205 825 
Q 1463 481 1925 481 
Q 2391 481 2648 825 
Q 2906 1169 2906 1791 
z
M 3481 434 
Q 3481 -459 3084 -895 
Q 2688 -1331 1869 -1331 
Q 1566 -1331 1297 -1286 
Q 1028 -1241 775 -1147 
L 775 -588 
Q 1028 -725 1275 -790 
Q 1522 -856 1778 -856 
Q 2344 -856 2625 -561 
Q 2906 -266 2906 331 
L 2906 616 
Q 2728 306 2450 153 
Q 2172 0 1784 0 
Q 1141 0 747 490 
Q 353 981 353 1791 
Q 353 2603 747 3093 
Q 1141 3584 1784 3584 
Q 2172 3584 2450 3431 
Q 2728 3278 2906 2969 
L 2906 3500 
L 3481 3500 
L 3481 434 
z
" transform="scale(0.015625)"/>
     </defs>
     <use xlink:href="#DejaVuSans-41"/>
     <use xlink:href="#DejaVuSans-76" x="62.533203"/>
     <use xlink:href="#DejaVuSans-67" x="121.712891"/>
     <use xlink:href="#DejaVuSans-47" x="185.189453"/>
     <use xlink:href="#DejaVuSans-50" x="262.679688"/>
    </g>
   </g>
   <g id="line2d_79">
    <path d="M 102.699792 160.895888 
L 112.699792 160.895888 
L 122.699792 160.895888 
" style="fill: none; stroke-dasharray: 12.8,3.2,2,3.2; stroke-dashoffset: 0; stroke: #1f77b4; stroke-width: 2"/>
   </g>
   <g id="text_34">
    <!-- LMC -->
    <g transform="translate(130.699792 164.395888) scale(0.1 -0.1)">
     <defs>
      <path id="DejaVuSans-4c" d="M 628 4666 
L 1259 4666 
L 1259 531 
L 3531 531 
L 3531 0 
L 628 0 
L 628 4666 
z
" transform="scale(0.015625)"/>
      <path id="DejaVuSans-43" d="M 4122 4306 
L 4122 3641 
Q 3803 3938 3442 4084 
Q 3081 4231 2675 4231 
Q 1875 4231 1450 3742 
Q 1025 3253 1025 2328 
Q 1025 1406 1450 917 
Q 1875 428 2675 428 
Q 3081 428 3442 575 
Q 3803 722 4122 1019 
L 4122 359 
Q 3791 134 3420 21 
Q 3050 -91 2638 -91 
Q 1578 -91 968 557 
Q 359 1206 359 2328 
Q 359 3453 968 4101 
Q 1578 4750 2638 4750 
Q 3056 4750 3426 4639 
Q 3797 4528 4122 4306 
z
" transform="scale(0.015625)"/>
     </defs>
     <use xlink:href="#DejaVuSans-4c"/>
     <use xlink:href="#DejaVuSans-4d" x="55.712891"/>
     <use xlink:href="#DejaVuSans-43" x="141.992188"/>
    </g>
   </g>
   <g id="line2d_80">
    <path d="M 102.699792 175.574013 
L 112.699792 175.574013 
L 122.699792 175.574013 
" style="fill: none; stroke: #ff7f0e; stroke-width: 2; stroke-linecap: square"/>
   </g>
   <g id="text_35">
    <!-- LVMOGP -->
    <g transform="translate(130.699792 179.074013) scale(0.1 -0.1)">
     <defs>
      <path id="DejaVuSans-56" d="M 1831 0 
L 50 4666 
L 709 4666 
L 2188 738 
L 3669 4666 
L 4325 4666 
L 2547 0 
L 1831 0 
z
" transform="scale(0.015625)"/>
     </defs>
     <use xlink:href="#DejaVuSans-4c"/>
     <use xlink:href="#DejaVuSans-56" x="44.712891"/>
     <use xlink:href="#DejaVuSans-4d" x="113.121094"/>
     <use xlink:href="#DejaVuSans-4f" x="199.400391"/>
     <use xlink:href="#DejaVuSans-47" x="278.111328"/>
     <use xlink:href="#DejaVuSans-50" x="355.601562"/>
    </g>
   </g>
  </g>
 </g>
 <defs>
  <clipPath id="p58b5b1a54b">
   <rect x="23.4225" y="7.2" width="63.460886" height="40.510709"/>
  </clipPath>
  <clipPath id="p663d904da2">
   <rect x="118.958386" y="7.2" width="63.460886" height="40.510709"/>
  </clipPath>
  <clipPath id="p9c0c6f19f6">
   <rect x="23.4225" y="72.090709" width="63.460886" height="40.510709"/>
  </clipPath>
  <clipPath id="p18e28c3041">
   <rect x="118.958386" y="72.090709" width="63.460886" height="40.510709"/>
  </clipPath>
 </defs>
</svg>
