<?xml version="1.0" encoding="utf-8" standalone="no"?>
<!DOCTYPE svg PUBLIC "-//W3C//DTD SVG 1.1//EN"
  "http://www.w3.org/Graphics/SVG/1.1/DTD/svg11.dtd">
<svg xmlns:xlink="http://www.w3.org/1999/xlink" width="396.536668pt" height="278.704264pt" viewBox="0 0 396.536668 278.704264" xmlns="http://www.w3.org/2000/svg" version="1.1">
 <metadata>
  <rdf:RDF xmlns:dc="http://purl.org/dc/elements/1.1/" xmlns:cc="http://creativecommons.org/ns#" xmlns:rdf="http://www.w3.org/1999/02/22-rdf-syntax-ns#">
   <cc:Work>
    <dc:type rdf:resource="http://purl.org/dc/dcmitype/StillImage"/>
    <dc:date>2023-09-13T15:49:29.742192</dc:date>
    <dc:format>image/svg+xml</dc:format>
    <dc:creator>
     <cc:Agent>
      <dc:title>Matplotlib v3.7.3, https://matplotlib.org/</dc:title>
     </cc:Agent>
    </dc:creator>
   </cc:Work>
  </rdf:RDF>
 </metadata>
 <defs>
  <style type="text/css">*{stroke-linejoin: round; stroke-linecap: butt}</style>
 </defs>
 <g id="figure_1">
  <g id="patch_1">
   <path d="M -0 278.704264 
L 396.536668 278.704264 
L 396.536668 0 
L -0 0 
z
" style="fill: #ffffff"/>
  </g>
  <g id="axes_1">
   <g id="patch_2">
    <path d="M 53.843125 105.565209 
L 202.449897 105.565209 
L 202.449897 20.798437 
L 53.843125 20.798437 
z
" style="fill: #ffffff"/>
   </g>
   <g id="PolyCollection_1">
    <defs>
     <path id="m8e8a7a6316" d="M 60.597978 -176.99209 
L 60.597978 -176.99209 
L 69.041545 -204.563305 
L 77.485111 -224.762366 
L 85.928678 -233.46952 
L 94.372245 -240.082043 
L 102.815811 -243.624968 
L 111.259378 -244.703118 
L 119.702944 -245.781269 
L 128.146511 -246.324966 
L 136.590077 -246.360843 
L 145.033644 -246.396721 
L 153.477211 -246.432599 
L 161.920777 -246.468477 
L 170.364344 -246.468477 
L 178.80791 -246.468477 
L 187.251477 -246.468477 
L 195.695043 -246.468477 
L 195.695043 -246.468477 
L 195.695043 -246.468477 
L 187.251477 -246.468477 
L 178.80791 -246.468477 
L 170.364344 -246.468477 
L 161.920777 -246.468477 
L 153.477211 -246.432599 
L 145.033644 -246.396721 
L 136.590077 -246.360843 
L 128.146511 -246.324966 
L 119.702944 -245.781269 
L 111.259378 -244.703118 
L 102.815811 -243.624968 
L 94.372245 -240.082043 
L 85.928678 -233.46952 
L 77.485111 -224.762366 
L 69.041545 -204.563305 
L 60.597978 -176.99209 
z
" style="stroke: #d62728; stroke-opacity: 0.2; stroke-width: 0.5"/>
    </defs>
    <g clip-path="url(#pe2d5384ad3)">
     <use xlink:href="#m8e8a7a6316" x="0" y="278.704264" style="fill: #d62728; fill-opacity: 0.2; stroke: #d62728; stroke-opacity: 0.2; stroke-width: 0.5"/>
    </g>
   </g>
   <g id="PolyCollection_2">
    <defs>
     <path id="m6f836107f3" d="M 60.597978 -176.99209 
L 60.597978 -176.99209 
L 69.041545 -208.901968 
L 77.485111 -222.206521 
L 85.928678 -233.742397 
L 94.372245 -242.004368 
L 102.815811 -248.399564 
L 111.259378 -253.509095 
L 119.702944 -254.052792 
L 128.146511 -254.052792 
L 136.590077 -254.052792 
L 145.033644 -254.052792 
L 153.477211 -254.052792 
L 161.920777 -254.052792 
L 170.364344 -254.052792 
L 178.80791 -254.052792 
L 187.251477 -254.052792 
L 195.695043 -254.052792 
L 195.695043 -254.052792 
L 195.695043 -254.052792 
L 187.251477 -254.052792 
L 178.80791 -254.052792 
L 170.364344 -254.052792 
L 161.920777 -254.052792 
L 153.477211 -254.052792 
L 145.033644 -254.052792 
L 136.590077 -254.052792 
L 128.146511 -254.052792 
L 119.702944 -254.052792 
L 111.259378 -253.509095 
L 102.815811 -248.399564 
L 94.372245 -242.004368 
L 85.928678 -233.742397 
L 77.485111 -222.206521 
L 69.041545 -208.901968 
L 60.597978 -176.99209 
z
" style="stroke: #2ca02c; stroke-opacity: 0.2; stroke-width: 0.5"/>
    </defs>
    <g clip-path="url(#pe2d5384ad3)">
     <use xlink:href="#m6f836107f3" x="0" y="278.704264" style="fill: #2ca02c; fill-opacity: 0.2; stroke: #2ca02c; stroke-opacity: 0.2; stroke-width: 0.5"/>
    </g>
   </g>
   <g id="PolyCollection_3">
    <defs>
     <path id="mbf7de9829d" d="M 60.597978 -176.99209 
L 60.597978 -176.99209 
L 69.041545 -204.509577 
L 77.485111 -217.868867 
L 85.928678 -222.090656 
L 94.372245 -226.177734 
L 102.815811 -227.576012 
L 111.259378 -228.67571 
L 119.702944 -229.267588 
L 128.146511 -229.487238 
L 136.590077 -229.639093 
L 145.033644 -229.790948 
L 153.477211 -229.942803 
L 161.920777 -229.997188 
L 170.364344 -229.997188 
L 178.80791 -229.997188 
L 187.251477 -229.997188 
L 195.695043 -229.997188 
L 195.695043 -231.461685 
L 195.695043 -231.461685 
L 187.251477 -231.461685 
L 178.80791 -231.461685 
L 170.364344 -231.461685 
L 161.920777 -231.461685 
L 153.477211 -231.461685 
L 145.033644 -231.096885 
L 136.590077 -230.732085 
L 128.146511 -230.367285 
L 119.702944 -229.775407 
L 111.259378 -228.67571 
L 102.815811 -227.576012 
L 94.372245 -226.177734 
L 85.928678 -222.090656 
L 77.485111 -217.868867 
L 69.041545 -204.509577 
L 60.597978 -176.99209 
z
" style="stroke: #1f77b4; stroke-opacity: 0.2; stroke-width: 0.5"/>
    </defs>
    <g clip-path="url(#pe2d5384ad3)">
     <use xlink:href="#mbf7de9829d" x="0" y="278.704264" style="fill: #1f77b4; fill-opacity: 0.2; stroke: #1f77b4; stroke-opacity: 0.2; stroke-width: 0.5"/>
    </g>
   </g>
   <g id="PolyCollection_4">
    <defs>
     <path id="ma637bd5db8" d="M 60.597978 -176.99209 
L 60.597978 -176.99209 
L 69.041545 -195.18553 
L 77.485111 -201.549114 
L 85.928678 -207.079369 
L 94.372245 -208.327721 
L 102.815811 -209.062618 
L 111.259378 -209.797515 
L 119.702944 -210.305334 
L 128.146511 -210.305334 
L 136.590077 -210.305334 
L 145.033644 -210.305334 
L 153.477211 -210.305334 
L 161.920777 -210.305334 
L 170.364344 -210.305334 
L 178.80791 -210.305334 
L 187.251477 -210.305334 
L 195.695043 -210.305334 
L 195.695043 -212.529599 
L 195.695043 -212.529599 
L 187.251477 -212.529599 
L 178.80791 -212.529599 
L 170.364344 -212.529599 
L 161.920777 -212.529599 
L 153.477211 -212.529599 
L 145.033644 -212.529599 
L 136.590077 -212.529599 
L 128.146511 -212.529599 
L 119.702944 -212.529599 
L 111.259378 -211.840118 
L 102.815811 -211.094067 
L 94.372245 -209.138063 
L 85.928678 -207.079369 
L 77.485111 -201.549114 
L 69.041545 -195.18553 
L 60.597978 -176.99209 
z
" style="stroke: #ff7f0e; stroke-opacity: 0.2; stroke-width: 0.5"/>
    </defs>
    <g clip-path="url(#pe2d5384ad3)">
     <use xlink:href="#ma637bd5db8" x="0" y="278.704264" style="fill: #ff7f0e; fill-opacity: 0.2; stroke: #ff7f0e; stroke-opacity: 0.2; stroke-width: 0.5"/>
    </g>
   </g>
   <g id="matplotlib.axis_1">
    <g id="xtick_1">
     <g id="line2d_1">
      <path d="M 60.597978 105.565209 
L 60.597978 20.798437 
" clip-path="url(#pe2d5384ad3)" style="fill: none; stroke: #b0b0b0; stroke-width: 0.8; stroke-linecap: square"/>
     </g>
     <g id="line2d_2">
      <defs>
       <path id="m379e0e99b2" d="M 0 0 
L 0 -3.5 
" style="stroke: #000000; stroke-width: 0.8"/>
      </defs>
      <g>
       <use xlink:href="#m379e0e99b2" x="60.597978" y="105.565209" style="stroke: #000000; stroke-width: 0.8"/>
      </g>
     </g>
     <g id="text_1">
      <!-- 0 -->
      <g transform="translate(58.052978 115.143959) scale(0.08 -0.08)">
       <defs>
        <path id="DejaVuSans-30" d="M 2034 4250 
Q 1547 4250 1301 3770 
Q 1056 3291 1056 2328 
Q 1056 1369 1301 889 
Q 1547 409 2034 409 
Q 2525 409 2770 889 
Q 3016 1369 3016 2328 
Q 3016 3291 2770 3770 
Q 2525 4250 2034 4250 
z
M 2034 4750 
Q 2819 4750 3233 4129 
Q 3647 3509 3647 2328 
Q 3647 1150 3233 529 
Q 2819 -91 2034 -91 
Q 1250 -91 836 529 
Q 422 1150 422 2328 
Q 422 3509 836 4129 
Q 1250 4750 2034 4750 
z
" transform="scale(0.015625)"/>
       </defs>
       <use xlink:href="#DejaVuSans-30"/>
      </g>
     </g>
    </g>
    <g id="xtick_2">
     <g id="line2d_3">
      <path d="M 102.815811 105.565209 
L 102.815811 20.798437 
" clip-path="url(#pe2d5384ad3)" style="fill: none; stroke: #b0b0b0; stroke-width: 0.8; stroke-linecap: square"/>
     </g>
     <g id="line2d_4">
      <g>
       <use xlink:href="#m379e0e99b2" x="102.815811" y="105.565209" style="stroke: #000000; stroke-width: 0.8"/>
      </g>
     </g>
     <g id="text_2">
      <!-- 5 -->
      <g transform="translate(100.270811 115.143959) scale(0.08 -0.08)">
       <defs>
        <path id="DejaVuSans-35" d="M 691 4666 
L 3169 4666 
L 3169 4134 
L 1269 4134 
L 1269 2991 
Q 1406 3038 1543 3061 
Q 1681 3084 1819 3084 
Q 2600 3084 3056 2656 
Q 3513 2228 3513 1497 
Q 3513 744 3044 326 
Q 2575 -91 1722 -91 
Q 1428 -91 1123 -41 
Q 819 9 494 109 
L 494 744 
Q 775 591 1075 516 
Q 1375 441 1709 441 
Q 2250 441 2565 725 
Q 2881 1009 2881 1497 
Q 2881 1984 2565 2268 
Q 2250 2553 1709 2553 
Q 1456 2553 1204 2497 
Q 953 2441 691 2322 
L 691 4666 
z
" transform="scale(0.015625)"/>
       </defs>
       <use xlink:href="#DejaVuSans-35"/>
      </g>
     </g>
    </g>
    <g id="xtick_3">
     <g id="line2d_5">
      <path d="M 145.033644 105.565209 
L 145.033644 20.798437 
" clip-path="url(#pe2d5384ad3)" style="fill: none; stroke: #b0b0b0; stroke-width: 0.8; stroke-linecap: square"/>
     </g>
     <g id="line2d_6">
      <g>
       <use xlink:href="#m379e0e99b2" x="145.033644" y="105.565209" style="stroke: #000000; stroke-width: 0.8"/>
      </g>
     </g>
     <g id="text_3">
      <!-- 10 -->
      <g transform="translate(139.943644 115.143959) scale(0.08 -0.08)">
       <defs>
        <path id="DejaVuSans-31" d="M 794 531 
L 1825 531 
L 1825 4091 
L 703 3866 
L 703 4441 
L 1819 4666 
L 2450 4666 
L 2450 531 
L 3481 531 
L 3481 0 
L 794 0 
L 794 531 
z
" transform="scale(0.015625)"/>
       </defs>
       <use xlink:href="#DejaVuSans-31"/>
       <use xlink:href="#DejaVuSans-30" x="63.623047"/>
      </g>
     </g>
    </g>
    <g id="xtick_4">
     <g id="line2d_7">
      <path d="M 187.251477 105.565209 
L 187.251477 20.798437 
" clip-path="url(#pe2d5384ad3)" style="fill: none; stroke: #b0b0b0; stroke-width: 0.8; stroke-linecap: square"/>
     </g>
     <g id="line2d_8">
      <g>
       <use xlink:href="#m379e0e99b2" x="187.251477" y="105.565209" style="stroke: #000000; stroke-width: 0.8"/>
      </g>
     </g>
     <g id="text_4">
      <!-- 15 -->
      <g transform="translate(182.161477 115.143959) scale(0.08 -0.08)">
       <use xlink:href="#DejaVuSans-31"/>
       <use xlink:href="#DejaVuSans-35" x="63.623047"/>
      </g>
     </g>
    </g>
    <g id="text_5">
     <!-- no. iterations -->
     <g transform="translate(101.709636 126.886459) scale(0.08 -0.08)">
      <defs>
       <path id="DejaVuSans-6e" d="M 3513 2113 
L 3513 0 
L 2938 0 
L 2938 2094 
Q 2938 2591 2744 2837 
Q 2550 3084 2163 3084 
Q 1697 3084 1428 2787 
Q 1159 2491 1159 1978 
L 1159 0 
L 581 0 
L 581 3500 
L 1159 3500 
L 1159 2956 
Q 1366 3272 1645 3428 
Q 1925 3584 2291 3584 
Q 2894 3584 3203 3211 
Q 3513 2838 3513 2113 
z
" transform="scale(0.015625)"/>
       <path id="DejaVuSans-6f" d="M 1959 3097 
Q 1497 3097 1228 2736 
Q 959 2375 959 1747 
Q 959 1119 1226 758 
Q 1494 397 1959 397 
Q 2419 397 2687 759 
Q 2956 1122 2956 1747 
Q 2956 2369 2687 2733 
Q 2419 3097 1959 3097 
z
M 1959 3584 
Q 2709 3584 3137 3096 
Q 3566 2609 3566 1747 
Q 3566 888 3137 398 
Q 2709 -91 1959 -91 
Q 1206 -91 779 398 
Q 353 888 353 1747 
Q 353 2609 779 3096 
Q 1206 3584 1959 3584 
z
" transform="scale(0.015625)"/>
       <path id="DejaVuSans-2e" d="M 684 794 
L 1344 794 
L 1344 0 
L 684 0 
L 684 794 
z
" transform="scale(0.015625)"/>
       <path id="DejaVuSans-20" transform="scale(0.015625)"/>
       <path id="DejaVuSans-69" d="M 603 3500 
L 1178 3500 
L 1178 0 
L 603 0 
L 603 3500 
z
M 603 4863 
L 1178 4863 
L 1178 4134 
L 603 4134 
L 603 4863 
z
" transform="scale(0.015625)"/>
       <path id="DejaVuSans-74" d="M 1172 4494 
L 1172 3500 
L 2356 3500 
L 2356 3053 
L 1172 3053 
L 1172 1153 
Q 1172 725 1289 603 
Q 1406 481 1766 481 
L 2356 481 
L 2356 0 
L 1766 0 
Q 1100 0 847 248 
Q 594 497 594 1153 
L 594 3053 
L 172 3053 
L 172 3500 
L 594 3500 
L 594 4494 
L 1172 4494 
z
" transform="scale(0.015625)"/>
       <path id="DejaVuSans-65" d="M 3597 1894 
L 3597 1613 
L 953 1613 
Q 991 1019 1311 708 
Q 1631 397 2203 397 
Q 2534 397 2845 478 
Q 3156 559 3463 722 
L 3463 178 
Q 3153 47 2828 -22 
Q 2503 -91 2169 -91 
Q 1331 -91 842 396 
Q 353 884 353 1716 
Q 353 2575 817 3079 
Q 1281 3584 2069 3584 
Q 2775 3584 3186 3129 
Q 3597 2675 3597 1894 
z
M 3022 2063 
Q 3016 2534 2758 2815 
Q 2500 3097 2075 3097 
Q 1594 3097 1305 2825 
Q 1016 2553 972 2059 
L 3022 2063 
z
" transform="scale(0.015625)"/>
       <path id="DejaVuSans-72" d="M 2631 2963 
Q 2534 3019 2420 3045 
Q 2306 3072 2169 3072 
Q 1681 3072 1420 2755 
Q 1159 2438 1159 1844 
L 1159 0 
L 581 0 
L 581 3500 
L 1159 3500 
L 1159 2956 
Q 1341 3275 1631 3429 
Q 1922 3584 2338 3584 
Q 2397 3584 2469 3576 
Q 2541 3569 2628 3553 
L 2631 2963 
z
" transform="scale(0.015625)"/>
       <path id="DejaVuSans-61" d="M 2194 1759 
Q 1497 1759 1228 1600 
Q 959 1441 959 1056 
Q 959 750 1161 570 
Q 1363 391 1709 391 
Q 2188 391 2477 730 
Q 2766 1069 2766 1631 
L 2766 1759 
L 2194 1759 
z
M 3341 1997 
L 3341 0 
L 2766 0 
L 2766 531 
Q 2569 213 2275 61 
Q 1981 -91 1556 -91 
Q 1019 -91 701 211 
Q 384 513 384 1019 
Q 384 1609 779 1909 
Q 1175 2209 1959 2209 
L 2766 2209 
L 2766 2266 
Q 2766 2663 2505 2880 
Q 2244 3097 1772 3097 
Q 1472 3097 1187 3025 
Q 903 2953 641 2809 
L 641 3341 
Q 956 3463 1253 3523 
Q 1550 3584 1831 3584 
Q 2591 3584 2966 3190 
Q 3341 2797 3341 1997 
z
" transform="scale(0.015625)"/>
       <path id="DejaVuSans-73" d="M 2834 3397 
L 2834 2853 
Q 2591 2978 2328 3040 
Q 2066 3103 1784 3103 
Q 1356 3103 1142 2972 
Q 928 2841 928 2578 
Q 928 2378 1081 2264 
Q 1234 2150 1697 2047 
L 1894 2003 
Q 2506 1872 2764 1633 
Q 3022 1394 3022 966 
Q 3022 478 2636 193 
Q 2250 -91 1575 -91 
Q 1294 -91 989 -36 
Q 684 19 347 128 
L 347 722 
Q 666 556 975 473 
Q 1284 391 1588 391 
Q 1994 391 2212 530 
Q 2431 669 2431 922 
Q 2431 1156 2273 1281 
Q 2116 1406 1581 1522 
L 1381 1569 
Q 847 1681 609 1914 
Q 372 2147 372 2553 
Q 372 3047 722 3315 
Q 1072 3584 1716 3584 
Q 2034 3584 2315 3537 
Q 2597 3491 2834 3397 
z
" transform="scale(0.015625)"/>
      </defs>
      <use xlink:href="#DejaVuSans-6e"/>
      <use xlink:href="#DejaVuSans-6f" x="63.378906"/>
      <use xlink:href="#DejaVuSans-2e" x="122.810547"/>
      <use xlink:href="#DejaVuSans-20" x="154.597656"/>
      <use xlink:href="#DejaVuSans-69" x="186.384766"/>
      <use xlink:href="#DejaVuSans-74" x="214.167969"/>
      <use xlink:href="#DejaVuSans-65" x="253.376953"/>
      <use xlink:href="#DejaVuSans-72" x="314.900391"/>
      <use xlink:href="#DejaVuSans-61" x="356.013672"/>
      <use xlink:href="#DejaVuSans-74" x="417.292969"/>
      <use xlink:href="#DejaVuSans-69" x="456.501953"/>
      <use xlink:href="#DejaVuSans-6f" x="484.285156"/>
      <use xlink:href="#DejaVuSans-6e" x="545.466797"/>
      <use xlink:href="#DejaVuSans-73" x="608.845703"/>
     </g>
    </g>
   </g>
   <g id="matplotlib.axis_2">
    <g id="ytick_1">
     <g id="line2d_9">
      <path d="M 53.843125 100.356599 
L 202.449897 100.356599 
" clip-path="url(#pe2d5384ad3)" style="fill: none; stroke: #b0b0b0; stroke-width: 0.8; stroke-linecap: square"/>
     </g>
     <g id="line2d_10">
      <defs>
       <path id="mdbbac7b6bc" d="M 0 0 
L 3.5 0 
" style="stroke: #000000; stroke-width: 0.8"/>
      </defs>
      <g>
       <use xlink:href="#mdbbac7b6bc" x="53.843125" y="100.356599" style="stroke: #000000; stroke-width: 0.8"/>
      </g>
     </g>
     <g id="text_6">
      <!-- 0.6 -->
      <g transform="translate(37.620625 103.395974) scale(0.08 -0.08)">
       <defs>
        <path id="DejaVuSans-36" d="M 2113 2584 
Q 1688 2584 1439 2293 
Q 1191 2003 1191 1497 
Q 1191 994 1439 701 
Q 1688 409 2113 409 
Q 2538 409 2786 701 
Q 3034 994 3034 1497 
Q 3034 2003 2786 2293 
Q 2538 2584 2113 2584 
z
M 3366 4563 
L 3366 3988 
Q 3128 4100 2886 4159 
Q 2644 4219 2406 4219 
Q 1781 4219 1451 3797 
Q 1122 3375 1075 2522 
Q 1259 2794 1537 2939 
Q 1816 3084 2150 3084 
Q 2853 3084 3261 2657 
Q 3669 2231 3669 1497 
Q 3669 778 3244 343 
Q 2819 -91 2113 -91 
Q 1303 -91 875 529 
Q 447 1150 447 2328 
Q 447 3434 972 4092 
Q 1497 4750 2381 4750 
Q 2619 4750 2861 4703 
Q 3103 4656 3366 4563 
z
" transform="scale(0.015625)"/>
       </defs>
       <use xlink:href="#DejaVuSans-30"/>
       <use xlink:href="#DejaVuSans-2e" x="63.623047"/>
       <use xlink:href="#DejaVuSans-36" x="95.410156"/>
      </g>
     </g>
    </g>
    <g id="ytick_2">
     <g id="line2d_11">
      <path d="M 53.843125 78.054842 
L 202.449897 78.054842 
" clip-path="url(#pe2d5384ad3)" style="fill: none; stroke: #b0b0b0; stroke-width: 0.8; stroke-linecap: square"/>
     </g>
     <g id="line2d_12">
      <g>
       <use xlink:href="#mdbbac7b6bc" x="53.843125" y="78.054842" style="stroke: #000000; stroke-width: 0.8"/>
      </g>
     </g>
     <g id="text_7">
      <!-- 0.8 -->
      <g transform="translate(37.620625 81.094217) scale(0.08 -0.08)">
       <defs>
        <path id="DejaVuSans-38" d="M 2034 2216 
Q 1584 2216 1326 1975 
Q 1069 1734 1069 1313 
Q 1069 891 1326 650 
Q 1584 409 2034 409 
Q 2484 409 2743 651 
Q 3003 894 3003 1313 
Q 3003 1734 2745 1975 
Q 2488 2216 2034 2216 
z
M 1403 2484 
Q 997 2584 770 2862 
Q 544 3141 544 3541 
Q 544 4100 942 4425 
Q 1341 4750 2034 4750 
Q 2731 4750 3128 4425 
Q 3525 4100 3525 3541 
Q 3525 3141 3298 2862 
Q 3072 2584 2669 2484 
Q 3125 2378 3379 2068 
Q 3634 1759 3634 1313 
Q 3634 634 3220 271 
Q 2806 -91 2034 -91 
Q 1263 -91 848 271 
Q 434 634 434 1313 
Q 434 1759 690 2068 
Q 947 2378 1403 2484 
z
M 1172 3481 
Q 1172 3119 1398 2916 
Q 1625 2713 2034 2713 
Q 2441 2713 2670 2916 
Q 2900 3119 2900 3481 
Q 2900 3844 2670 4047 
Q 2441 4250 2034 4250 
Q 1625 4250 1398 4047 
Q 1172 3844 1172 3481 
z
" transform="scale(0.015625)"/>
       </defs>
       <use xlink:href="#DejaVuSans-30"/>
       <use xlink:href="#DejaVuSans-2e" x="63.623047"/>
       <use xlink:href="#DejaVuSans-38" x="95.410156"/>
      </g>
     </g>
    </g>
    <g id="ytick_3">
     <g id="line2d_13">
      <path d="M 53.843125 55.753085 
L 202.449897 55.753085 
" clip-path="url(#pe2d5384ad3)" style="fill: none; stroke: #b0b0b0; stroke-width: 0.8; stroke-linecap: square"/>
     </g>
     <g id="line2d_14">
      <g>
       <use xlink:href="#mdbbac7b6bc" x="53.843125" y="55.753085" style="stroke: #000000; stroke-width: 0.8"/>
      </g>
     </g>
     <g id="text_8">
      <!-- 1.0 -->
      <g transform="translate(37.620625 58.79246) scale(0.08 -0.08)">
       <use xlink:href="#DejaVuSans-31"/>
       <use xlink:href="#DejaVuSans-2e" x="63.623047"/>
       <use xlink:href="#DejaVuSans-30" x="95.410156"/>
      </g>
     </g>
    </g>
    <g id="ytick_4">
     <g id="line2d_15">
      <path d="M 53.843125 33.451329 
L 202.449897 33.451329 
" clip-path="url(#pe2d5384ad3)" style="fill: none; stroke: #b0b0b0; stroke-width: 0.8; stroke-linecap: square"/>
     </g>
     <g id="line2d_16">
      <g>
       <use xlink:href="#mdbbac7b6bc" x="53.843125" y="33.451329" style="stroke: #000000; stroke-width: 0.8"/>
      </g>
     </g>
     <g id="text_9">
      <!-- 1.2 -->
      <g transform="translate(37.620625 36.490704) scale(0.08 -0.08)">
       <defs>
        <path id="DejaVuSans-32" d="M 1228 531 
L 3431 531 
L 3431 0 
L 469 0 
L 469 531 
Q 828 903 1448 1529 
Q 2069 2156 2228 2338 
Q 2531 2678 2651 2914 
Q 2772 3150 2772 3378 
Q 2772 3750 2511 3984 
Q 2250 4219 1831 4219 
Q 1534 4219 1204 4116 
Q 875 4013 500 3803 
L 500 4441 
Q 881 4594 1212 4672 
Q 1544 4750 1819 4750 
Q 2544 4750 2975 4387 
Q 3406 4025 3406 3419 
Q 3406 3131 3298 2873 
Q 3191 2616 2906 2266 
Q 2828 2175 2409 1742 
Q 1991 1309 1228 531 
z
" transform="scale(0.015625)"/>
       </defs>
       <use xlink:href="#DejaVuSans-31"/>
       <use xlink:href="#DejaVuSans-2e" x="63.623047"/>
       <use xlink:href="#DejaVuSans-32" x="95.410156"/>
      </g>
     </g>
    </g>
    <g id="text_10">
     <!-- Cumulative Regret -->
     <g transform="translate(31.956875 100.466823) rotate(-90) scale(0.08 -0.08)">
      <defs>
       <path id="DejaVuSans-43" d="M 4122 4306 
L 4122 3641 
Q 3803 3938 3442 4084 
Q 3081 4231 2675 4231 
Q 1875 4231 1450 3742 
Q 1025 3253 1025 2328 
Q 1025 1406 1450 917 
Q 1875 428 2675 428 
Q 3081 428 3442 575 
Q 3803 722 4122 1019 
L 4122 359 
Q 3791 134 3420 21 
Q 3050 -91 2638 -91 
Q 1578 -91 968 557 
Q 359 1206 359 2328 
Q 359 3453 968 4101 
Q 1578 4750 2638 4750 
Q 3056 4750 3426 4639 
Q 3797 4528 4122 4306 
z
" transform="scale(0.015625)"/>
       <path id="DejaVuSans-75" d="M 544 1381 
L 544 3500 
L 1119 3500 
L 1119 1403 
Q 1119 906 1312 657 
Q 1506 409 1894 409 
Q 2359 409 2629 706 
Q 2900 1003 2900 1516 
L 2900 3500 
L 3475 3500 
L 3475 0 
L 2900 0 
L 2900 538 
Q 2691 219 2414 64 
Q 2138 -91 1772 -91 
Q 1169 -91 856 284 
Q 544 659 544 1381 
z
M 1991 3584 
L 1991 3584 
z
" transform="scale(0.015625)"/>
       <path id="DejaVuSans-6d" d="M 3328 2828 
Q 3544 3216 3844 3400 
Q 4144 3584 4550 3584 
Q 5097 3584 5394 3201 
Q 5691 2819 5691 2113 
L 5691 0 
L 5113 0 
L 5113 2094 
Q 5113 2597 4934 2840 
Q 4756 3084 4391 3084 
Q 3944 3084 3684 2787 
Q 3425 2491 3425 1978 
L 3425 0 
L 2847 0 
L 2847 2094 
Q 2847 2600 2669 2842 
Q 2491 3084 2119 3084 
Q 1678 3084 1418 2786 
Q 1159 2488 1159 1978 
L 1159 0 
L 581 0 
L 581 3500 
L 1159 3500 
L 1159 2956 
Q 1356 3278 1631 3431 
Q 1906 3584 2284 3584 
Q 2666 3584 2933 3390 
Q 3200 3197 3328 2828 
z
" transform="scale(0.015625)"/>
       <path id="DejaVuSans-6c" d="M 603 4863 
L 1178 4863 
L 1178 0 
L 603 0 
L 603 4863 
z
" transform="scale(0.015625)"/>
       <path id="DejaVuSans-76" d="M 191 3500 
L 800 3500 
L 1894 563 
L 2988 3500 
L 3597 3500 
L 2284 0 
L 1503 0 
L 191 3500 
z
" transform="scale(0.015625)"/>
       <path id="DejaVuSans-52" d="M 2841 2188 
Q 3044 2119 3236 1894 
Q 3428 1669 3622 1275 
L 4263 0 
L 3584 0 
L 2988 1197 
Q 2756 1666 2539 1819 
Q 2322 1972 1947 1972 
L 1259 1972 
L 1259 0 
L 628 0 
L 628 4666 
L 2053 4666 
Q 2853 4666 3247 4331 
Q 3641 3997 3641 3322 
Q 3641 2881 3436 2590 
Q 3231 2300 2841 2188 
z
M 1259 4147 
L 1259 2491 
L 2053 2491 
Q 2509 2491 2742 2702 
Q 2975 2913 2975 3322 
Q 2975 3731 2742 3939 
Q 2509 4147 2053 4147 
L 1259 4147 
z
" transform="scale(0.015625)"/>
       <path id="DejaVuSans-67" d="M 2906 1791 
Q 2906 2416 2648 2759 
Q 2391 3103 1925 3103 
Q 1463 3103 1205 2759 
Q 947 2416 947 1791 
Q 947 1169 1205 825 
Q 1463 481 1925 481 
Q 2391 481 2648 825 
Q 2906 1169 2906 1791 
z
M 3481 434 
Q 3481 -459 3084 -895 
Q 2688 -1331 1869 -1331 
Q 1566 -1331 1297 -1286 
Q 1028 -1241 775 -1147 
L 775 -588 
Q 1028 -725 1275 -790 
Q 1522 -856 1778 -856 
Q 2344 -856 2625 -561 
Q 2906 -266 2906 331 
L 2906 616 
Q 2728 306 2450 153 
Q 2172 0 1784 0 
Q 1141 0 747 490 
Q 353 981 353 1791 
Q 353 2603 747 3093 
Q 1141 3584 1784 3584 
Q 2172 3584 2450 3431 
Q 2728 3278 2906 2969 
L 2906 3500 
L 3481 3500 
L 3481 434 
z
" transform="scale(0.015625)"/>
      </defs>
      <use xlink:href="#DejaVuSans-43"/>
      <use xlink:href="#DejaVuSans-75" x="69.824219"/>
      <use xlink:href="#DejaVuSans-6d" x="133.203125"/>
      <use xlink:href="#DejaVuSans-75" x="230.615234"/>
      <use xlink:href="#DejaVuSans-6c" x="293.994141"/>
      <use xlink:href="#DejaVuSans-61" x="321.777344"/>
      <use xlink:href="#DejaVuSans-74" x="383.056641"/>
      <use xlink:href="#DejaVuSans-69" x="422.265625"/>
      <use xlink:href="#DejaVuSans-76" x="450.048828"/>
      <use xlink:href="#DejaVuSans-65" x="509.228516"/>
      <use xlink:href="#DejaVuSans-20" x="570.751953"/>
      <use xlink:href="#DejaVuSans-52" x="602.539062"/>
      <use xlink:href="#DejaVuSans-65" x="667.521484"/>
      <use xlink:href="#DejaVuSans-67" x="729.044922"/>
      <use xlink:href="#DejaVuSans-72" x="792.521484"/>
      <use xlink:href="#DejaVuSans-65" x="831.384766"/>
      <use xlink:href="#DejaVuSans-74" x="892.908203"/>
     </g>
    </g>
   </g>
   <g id="line2d_17">
    <path d="M 60.597978 101.712174 
L 69.041545 74.14096 
L 77.485111 53.941899 
L 85.928678 45.234744 
L 94.372245 38.622221 
L 102.815811 35.079297 
L 111.259378 34.001146 
L 119.702944 32.922996 
L 128.146511 32.379299 
L 136.590077 32.343421 
L 145.033644 32.307543 
L 153.477211 32.271665 
L 161.920777 32.235787 
L 170.364344 32.235787 
L 178.80791 32.235787 
L 187.251477 32.235787 
L 195.695043 32.235787 
" clip-path="url(#pe2d5384ad3)" style="fill: none; stroke: #d62728; stroke-width: 2; stroke-linecap: square"/>
   </g>
   <g id="line2d_18">
    <path d="M 60.597978 101.712174 
L 69.041545 70.351672 
L 77.485111 57.081479 
L 85.928678 45.601748 
L 94.372245 37.406006 
L 102.815811 31.018459 
L 111.259378 25.908927 
L 119.702944 25.366666 
L 128.146511 25.366666 
L 136.590077 25.366666 
L 145.033644 25.366666 
L 153.477211 25.366666 
L 161.920777 25.366666 
L 170.364344 25.366666 
L 178.80791 25.366666 
L 187.251477 25.366666 
L 195.695043 25.366666 
" clip-path="url(#pe2d5384ad3)" style="fill: none; stroke: #2ca02c; stroke-width: 2; stroke-linecap: square"/>
   </g>
   <g id="line2d_19">
    <path d="M 60.597978 101.712174 
L 69.041545 74.194687 
L 77.485111 60.835398 
L 85.928678 56.613608 
L 94.372245 52.52653 
L 102.815811 51.128252 
L 111.259378 50.028555 
L 119.702944 49.224329 
L 128.146511 48.892086 
L 136.590077 48.623426 
L 145.033644 48.442317 
L 153.477211 48.319576 
L 161.920777 48.246686 
L 170.364344 48.173796 
L 178.80791 48.100905 
L 187.251477 48.028015 
L 195.695043 48.010793 
" clip-path="url(#pe2d5384ad3)" style="fill: none; stroke: #1f77b4; stroke-width: 2; stroke-linecap: square"/>
   </g>
   <g id="line2d_20">
    <path d="M 60.597978 101.712174 
L 69.041545 83.518734 
L 77.485111 77.15515 
L 85.928678 71.624896 
L 94.372245 70.295509 
L 102.815811 69.438502 
L 111.259378 68.702489 
L 119.702944 68.176504 
L 128.146511 68.176504 
L 136.590077 68.176504 
L 145.033644 68.176504 
L 153.477211 68.176504 
L 161.920777 68.176504 
L 170.364344 68.176504 
L 178.80791 68.176504 
L 187.251477 68.176504 
L 195.695043 68.176504 
" clip-path="url(#pe2d5384ad3)" style="fill: none; stroke: #ff7f0e; stroke-width: 2; stroke-linecap: square"/>
   </g>
   <g id="patch_3">
    <path d="M 53.843125 105.565209 
L 53.843125 20.798437 
" style="fill: none; stroke: #bcbcbc; stroke-width: 0.8; stroke-linejoin: miter; stroke-linecap: square"/>
   </g>
   <g id="patch_4">
    <path d="M 202.449897 105.565209 
L 202.449897 20.798437 
" style="fill: none; stroke: #bcbcbc; stroke-width: 0.8; stroke-linejoin: miter; stroke-linecap: square"/>
   </g>
   <g id="patch_5">
    <path d="M 53.843125 105.565209 
L 202.449897 105.565209 
" style="fill: none; stroke: #bcbcbc; stroke-width: 0.8; stroke-linejoin: miter; stroke-linecap: square"/>
   </g>
   <g id="patch_6">
    <path d="M 53.843125 20.798437 
L 202.449897 20.798437 
" style="fill: none; stroke: #bcbcbc; stroke-width: 0.8; stroke-linejoin: miter; stroke-linecap: square"/>
   </g>
   <g id="text_11">
    <!-- Centre -->
    <g transform="translate(14.798437 79.89823) rotate(-90) scale(0.1 -0.1)">
     <use xlink:href="#DejaVuSans-43"/>
     <use xlink:href="#DejaVuSans-65" x="69.824219"/>
     <use xlink:href="#DejaVuSans-6e" x="131.347656"/>
     <use xlink:href="#DejaVuSans-74" x="194.726562"/>
     <use xlink:href="#DejaVuSans-72" x="233.935547"/>
     <use xlink:href="#DejaVuSans-65" x="272.798828"/>
    </g>
   </g>
   <g id="text_12">
    <!-- Many Surfaces -->
    <g transform="translate(91.398073 14.798437) scale(0.1 -0.1)">
     <defs>
      <path id="DejaVuSans-4d" d="M 628 4666 
L 1569 4666 
L 2759 1491 
L 3956 4666 
L 4897 4666 
L 4897 0 
L 4281 0 
L 4281 4097 
L 3078 897 
L 2444 897 
L 1241 4097 
L 1241 0 
L 628 0 
L 628 4666 
z
" transform="scale(0.015625)"/>
      <path id="DejaVuSans-79" d="M 2059 -325 
Q 1816 -950 1584 -1140 
Q 1353 -1331 966 -1331 
L 506 -1331 
L 506 -850 
L 844 -850 
Q 1081 -850 1212 -737 
Q 1344 -625 1503 -206 
L 1606 56 
L 191 3500 
L 800 3500 
L 1894 763 
L 2988 3500 
L 3597 3500 
L 2059 -325 
z
" transform="scale(0.015625)"/>
      <path id="DejaVuSans-53" d="M 3425 4513 
L 3425 3897 
Q 3066 4069 2747 4153 
Q 2428 4238 2131 4238 
Q 1616 4238 1336 4038 
Q 1056 3838 1056 3469 
Q 1056 3159 1242 3001 
Q 1428 2844 1947 2747 
L 2328 2669 
Q 3034 2534 3370 2195 
Q 3706 1856 3706 1288 
Q 3706 609 3251 259 
Q 2797 -91 1919 -91 
Q 1588 -91 1214 -16 
Q 841 59 441 206 
L 441 856 
Q 825 641 1194 531 
Q 1563 422 1919 422 
Q 2459 422 2753 634 
Q 3047 847 3047 1241 
Q 3047 1584 2836 1778 
Q 2625 1972 2144 2069 
L 1759 2144 
Q 1053 2284 737 2584 
Q 422 2884 422 3419 
Q 422 4038 858 4394 
Q 1294 4750 2059 4750 
Q 2388 4750 2728 4690 
Q 3069 4631 3425 4513 
z
" transform="scale(0.015625)"/>
      <path id="DejaVuSans-66" d="M 2375 4863 
L 2375 4384 
L 1825 4384 
Q 1516 4384 1395 4259 
Q 1275 4134 1275 3809 
L 1275 3500 
L 2222 3500 
L 2222 3053 
L 1275 3053 
L 1275 0 
L 697 0 
L 697 3053 
L 147 3053 
L 147 3500 
L 697 3500 
L 697 3744 
Q 697 4328 969 4595 
Q 1241 4863 1831 4863 
L 2375 4863 
z
" transform="scale(0.015625)"/>
      <path id="DejaVuSans-63" d="M 3122 3366 
L 3122 2828 
Q 2878 2963 2633 3030 
Q 2388 3097 2138 3097 
Q 1578 3097 1268 2742 
Q 959 2388 959 1747 
Q 959 1106 1268 751 
Q 1578 397 2138 397 
Q 2388 397 2633 464 
Q 2878 531 3122 666 
L 3122 134 
Q 2881 22 2623 -34 
Q 2366 -91 2075 -91 
Q 1284 -91 818 406 
Q 353 903 353 1747 
Q 353 2603 823 3093 
Q 1294 3584 2113 3584 
Q 2378 3584 2631 3529 
Q 2884 3475 3122 3366 
z
" transform="scale(0.015625)"/>
     </defs>
     <use xlink:href="#DejaVuSans-4d"/>
     <use xlink:href="#DejaVuSans-61" x="86.279297"/>
     <use xlink:href="#DejaVuSans-6e" x="147.558594"/>
     <use xlink:href="#DejaVuSans-79" x="210.9375"/>
     <use xlink:href="#DejaVuSans-20" x="270.117188"/>
     <use xlink:href="#DejaVuSans-53" x="301.904297"/>
     <use xlink:href="#DejaVuSans-75" x="365.380859"/>
     <use xlink:href="#DejaVuSans-72" x="428.759766"/>
     <use xlink:href="#DejaVuSans-66" x="469.873047"/>
     <use xlink:href="#DejaVuSans-61" x="505.078125"/>
     <use xlink:href="#DejaVuSans-63" x="566.357422"/>
     <use xlink:href="#DejaVuSans-65" x="621.337891"/>
     <use xlink:href="#DejaVuSans-73" x="682.861328"/>
    </g>
   </g>
  </g>
  <g id="axes_2">
   <g id="patch_7">
    <path d="M 240.729897 105.565209 
L 389.336668 105.565209 
L 389.336668 20.798437 
L 240.729897 20.798437 
z
" style="fill: #ffffff"/>
   </g>
   <g id="PolyCollection_5">
    <defs>
     <path id="meee87aa738" d="M 247.48475 -176.99209 
L 247.48475 -176.99209 
L 255.928316 -210.862913 
L 264.371883 -230.53763 
L 272.81545 -241.990415 
L 281.259016 -252.003265 
L 289.702583 -253.028029 
L 298.146149 -254.052792 
L 306.589716 -254.052792 
L 315.033282 -254.052792 
L 323.476849 -254.052792 
L 331.920416 -254.052792 
L 340.363982 -254.052792 
L 348.807549 -254.052792 
L 357.251115 -254.052792 
L 365.694682 -254.052792 
L 374.138248 -254.052792 
L 382.581815 -254.052792 
L 382.581815 -254.052792 
L 382.581815 -254.052792 
L 374.138248 -254.052792 
L 365.694682 -254.052792 
L 357.251115 -254.052792 
L 348.807549 -254.052792 
L 340.363982 -254.052792 
L 331.920416 -254.052792 
L 323.476849 -254.052792 
L 315.033282 -254.052792 
L 306.589716 -254.052792 
L 298.146149 -254.052792 
L 289.702583 -253.028029 
L 281.259016 -252.003265 
L 272.81545 -241.990415 
L 264.371883 -230.53763 
L 255.928316 -210.862913 
L 247.48475 -176.99209 
z
" style="stroke: #d62728; stroke-opacity: 0.2; stroke-width: 0.5"/>
    </defs>
    <g clip-path="url(#pc817577f85)">
     <use xlink:href="#meee87aa738" x="0" y="278.704264" style="fill: #d62728; fill-opacity: 0.2; stroke: #d62728; stroke-opacity: 0.2; stroke-width: 0.5"/>
    </g>
   </g>
   <g id="PolyCollection_6">
    <defs>
     <path id="mbbcad2d918" d="M 247.48475 -176.99209 
L 247.48475 -176.99209 
L 255.928316 -203.538366 
L 264.371883 -219.114075 
L 272.81545 -229.974082 
L 281.259016 -240.438609 
L 289.702583 -244.46626 
L 298.146149 -244.479968 
L 306.589716 -244.479968 
L 315.033282 -244.479968 
L 323.476849 -244.479968 
L 331.920416 -244.479968 
L 340.363982 -244.479968 
L 348.807549 -244.479968 
L 357.251115 -244.479968 
L 365.694682 -244.479968 
L 374.138248 -244.479968 
L 382.581815 -244.479968 
L 382.581815 -244.479968 
L 382.581815 -244.479968 
L 374.138248 -244.479968 
L 365.694682 -244.479968 
L 357.251115 -244.479968 
L 348.807549 -244.479968 
L 340.363982 -244.479968 
L 331.920416 -244.479968 
L 323.476849 -244.479968 
L 315.033282 -244.479968 
L 306.589716 -244.479968 
L 298.146149 -244.479968 
L 289.702583 -244.46626 
L 281.259016 -240.438609 
L 272.81545 -229.974082 
L 264.371883 -219.114075 
L 255.928316 -203.538366 
L 247.48475 -176.99209 
z
" style="stroke: #2ca02c; stroke-opacity: 0.2; stroke-width: 0.5"/>
    </defs>
    <g clip-path="url(#pc817577f85)">
     <use xlink:href="#mbbcad2d918" x="0" y="278.704264" style="fill: #2ca02c; fill-opacity: 0.2; stroke: #2ca02c; stroke-opacity: 0.2; stroke-width: 0.5"/>
    </g>
   </g>
   <g id="PolyCollection_7">
    <defs>
     <path id="m811b2c9a4b" d="M 247.48475 -176.99209 
L 247.48475 -176.99209 
L 255.928316 -201.704339 
L 264.371883 -209.664025 
L 272.81545 -216.292448 
L 281.259016 -218.698654 
L 289.702583 -219.596812 
L 298.146149 -219.981973 
L 306.589716 -220.340645 
L 315.033282 -220.41238 
L 323.476849 -220.484114 
L 331.920416 -220.484114 
L 340.363982 -220.484114 
L 348.807549 -220.484114 
L 357.251115 -220.484114 
L 365.694682 -220.484114 
L 374.138248 -220.484114 
L 382.581815 -220.484114 
L 382.581815 -227.719881 
L 382.581815 -227.719881 
L 374.138248 -227.719881 
L 365.694682 -227.719881 
L 357.251115 -227.719881 
L 348.807549 -227.719881 
L 340.363982 -227.719881 
L 331.920416 -227.719881 
L 323.476849 -227.719881 
L 315.033282 -227.361209 
L 306.589716 -227.065694 
L 298.146149 -226.642479 
L 289.702583 -226.175639 
L 281.259016 -225.155567 
L 272.81545 -222.318252 
L 264.371883 -215.147842 
L 255.928316 -205.314049 
L 247.48475 -176.99209 
z
" style="stroke: #1f77b4; stroke-opacity: 0.2; stroke-width: 0.5"/>
    </defs>
    <g clip-path="url(#pc817577f85)">
     <use xlink:href="#m811b2c9a4b" x="0" y="278.704264" style="fill: #1f77b4; fill-opacity: 0.2; stroke: #1f77b4; stroke-opacity: 0.2; stroke-width: 0.5"/>
    </g>
   </g>
   <g id="PolyCollection_8">
    <defs>
     <path id="m48a1f74d95" d="M 247.48475 -176.99209 
L 247.48475 -176.99209 
L 255.928316 -192.188266 
L 264.371883 -200.411741 
L 272.81545 -202.541877 
L 281.259016 -203.054873 
L 289.702583 -203.56787 
L 298.146149 -204.080866 
L 306.589716 -204.580154 
L 315.033282 -204.580154 
L 323.476849 -204.580154 
L 331.920416 -204.580154 
L 340.363982 -204.580154 
L 348.807549 -204.580154 
L 357.251115 -204.580154 
L 365.694682 -204.580154 
L 374.138248 -204.580154 
L 382.581815 -204.580154 
L 382.581815 -210.007415 
L 382.581815 -210.007415 
L 374.138248 -210.007415 
L 365.694682 -210.007415 
L 357.251115 -210.007415 
L 348.807549 -210.007415 
L 340.363982 -210.007415 
L 331.920416 -210.007415 
L 323.476849 -210.007415 
L 315.033282 -210.007415 
L 306.589716 -210.007415 
L 298.146149 -209.508127 
L 289.702583 -208.99513 
L 281.259016 -208.482134 
L 272.81545 -207.969137 
L 264.371883 -205.152863 
L 255.928316 -196.583706 
L 247.48475 -176.99209 
z
" style="stroke: #ff7f0e; stroke-opacity: 0.2; stroke-width: 0.5"/>
    </defs>
    <g clip-path="url(#pc817577f85)">
     <use xlink:href="#m48a1f74d95" x="0" y="278.704264" style="fill: #ff7f0e; fill-opacity: 0.2; stroke: #ff7f0e; stroke-opacity: 0.2; stroke-width: 0.5"/>
    </g>
   </g>
   <g id="matplotlib.axis_3">
    <g id="xtick_5">
     <g id="line2d_21">
      <path d="M 247.48475 105.565209 
L 247.48475 20.798437 
" clip-path="url(#pc817577f85)" style="fill: none; stroke: #b0b0b0; stroke-width: 0.8; stroke-linecap: square"/>
     </g>
     <g id="line2d_22">
      <g>
       <use xlink:href="#m379e0e99b2" x="247.48475" y="105.565209" style="stroke: #000000; stroke-width: 0.8"/>
      </g>
     </g>
     <g id="text_13">
      <!-- 0 -->
      <g transform="translate(244.93975 115.143959) scale(0.08 -0.08)">
       <use xlink:href="#DejaVuSans-30"/>
      </g>
     </g>
    </g>
    <g id="xtick_6">
     <g id="line2d_23">
      <path d="M 289.702583 105.565209 
L 289.702583 20.798437 
" clip-path="url(#pc817577f85)" style="fill: none; stroke: #b0b0b0; stroke-width: 0.8; stroke-linecap: square"/>
     </g>
     <g id="line2d_24">
      <g>
       <use xlink:href="#m379e0e99b2" x="289.702583" y="105.565209" style="stroke: #000000; stroke-width: 0.8"/>
      </g>
     </g>
     <g id="text_14">
      <!-- 5 -->
      <g transform="translate(287.157583 115.143959) scale(0.08 -0.08)">
       <use xlink:href="#DejaVuSans-35"/>
      </g>
     </g>
    </g>
    <g id="xtick_7">
     <g id="line2d_25">
      <path d="M 331.920416 105.565209 
L 331.920416 20.798437 
" clip-path="url(#pc817577f85)" style="fill: none; stroke: #b0b0b0; stroke-width: 0.8; stroke-linecap: square"/>
     </g>
     <g id="line2d_26">
      <g>
       <use xlink:href="#m379e0e99b2" x="331.920416" y="105.565209" style="stroke: #000000; stroke-width: 0.8"/>
      </g>
     </g>
     <g id="text_15">
      <!-- 10 -->
      <g transform="translate(326.830416 115.143959) scale(0.08 -0.08)">
       <use xlink:href="#DejaVuSans-31"/>
       <use xlink:href="#DejaVuSans-30" x="63.623047"/>
      </g>
     </g>
    </g>
    <g id="xtick_8">
     <g id="line2d_27">
      <path d="M 374.138248 105.565209 
L 374.138248 20.798437 
" clip-path="url(#pc817577f85)" style="fill: none; stroke: #b0b0b0; stroke-width: 0.8; stroke-linecap: square"/>
     </g>
     <g id="line2d_28">
      <g>
       <use xlink:href="#m379e0e99b2" x="374.138248" y="105.565209" style="stroke: #000000; stroke-width: 0.8"/>
      </g>
     </g>
     <g id="text_16">
      <!-- 15 -->
      <g transform="translate(369.048248 115.143959) scale(0.08 -0.08)">
       <use xlink:href="#DejaVuSans-31"/>
       <use xlink:href="#DejaVuSans-35" x="63.623047"/>
      </g>
     </g>
    </g>
    <g id="text_17">
     <!-- no. iterations -->
     <g transform="translate(288.596407 126.886459) scale(0.08 -0.08)">
      <use xlink:href="#DejaVuSans-6e"/>
      <use xlink:href="#DejaVuSans-6f" x="63.378906"/>
      <use xlink:href="#DejaVuSans-2e" x="122.810547"/>
      <use xlink:href="#DejaVuSans-20" x="154.597656"/>
      <use xlink:href="#DejaVuSans-69" x="186.384766"/>
      <use xlink:href="#DejaVuSans-74" x="214.167969"/>
      <use xlink:href="#DejaVuSans-65" x="253.376953"/>
      <use xlink:href="#DejaVuSans-72" x="314.900391"/>
      <use xlink:href="#DejaVuSans-61" x="356.013672"/>
      <use xlink:href="#DejaVuSans-74" x="417.292969"/>
      <use xlink:href="#DejaVuSans-69" x="456.501953"/>
      <use xlink:href="#DejaVuSans-6f" x="484.285156"/>
      <use xlink:href="#DejaVuSans-6e" x="545.466797"/>
      <use xlink:href="#DejaVuSans-73" x="608.845703"/>
     </g>
    </g>
   </g>
   <g id="matplotlib.axis_4">
    <g id="ytick_5">
     <g id="line2d_29">
      <path d="M 240.729897 100.379372 
L 389.336668 100.379372 
" clip-path="url(#pc817577f85)" style="fill: none; stroke: #b0b0b0; stroke-width: 0.8; stroke-linecap: square"/>
     </g>
     <g id="line2d_30">
      <g>
       <use xlink:href="#mdbbac7b6bc" x="240.729897" y="100.379372" style="stroke: #000000; stroke-width: 0.8"/>
      </g>
     </g>
     <g id="text_18">
      <!-- 0.6 -->
      <g transform="translate(224.507397 103.418747) scale(0.08 -0.08)">
       <use xlink:href="#DejaVuSans-30"/>
       <use xlink:href="#DejaVuSans-2e" x="63.623047"/>
       <use xlink:href="#DejaVuSans-36" x="95.410156"/>
      </g>
     </g>
    </g>
    <g id="ytick_6">
     <g id="line2d_31">
      <path d="M 240.729897 78.45227 
L 389.336668 78.45227 
" clip-path="url(#pc817577f85)" style="fill: none; stroke: #b0b0b0; stroke-width: 0.8; stroke-linecap: square"/>
     </g>
     <g id="line2d_32">
      <g>
       <use xlink:href="#mdbbac7b6bc" x="240.729897" y="78.45227" style="stroke: #000000; stroke-width: 0.8"/>
      </g>
     </g>
     <g id="text_19">
      <!-- 0.8 -->
      <g transform="translate(224.507397 81.491645) scale(0.08 -0.08)">
       <use xlink:href="#DejaVuSans-30"/>
       <use xlink:href="#DejaVuSans-2e" x="63.623047"/>
       <use xlink:href="#DejaVuSans-38" x="95.410156"/>
      </g>
     </g>
    </g>
    <g id="ytick_7">
     <g id="line2d_33">
      <path d="M 240.729897 56.525169 
L 389.336668 56.525169 
" clip-path="url(#pc817577f85)" style="fill: none; stroke: #b0b0b0; stroke-width: 0.8; stroke-linecap: square"/>
     </g>
     <g id="line2d_34">
      <g>
       <use xlink:href="#mdbbac7b6bc" x="240.729897" y="56.525169" style="stroke: #000000; stroke-width: 0.8"/>
      </g>
     </g>
     <g id="text_20">
      <!-- 1.0 -->
      <g transform="translate(224.507397 59.564544) scale(0.08 -0.08)">
       <use xlink:href="#DejaVuSans-31"/>
       <use xlink:href="#DejaVuSans-2e" x="63.623047"/>
       <use xlink:href="#DejaVuSans-30" x="95.410156"/>
      </g>
     </g>
    </g>
    <g id="ytick_8">
     <g id="line2d_35">
      <path d="M 240.729897 34.598067 
L 389.336668 34.598067 
" clip-path="url(#pc817577f85)" style="fill: none; stroke: #b0b0b0; stroke-width: 0.8; stroke-linecap: square"/>
     </g>
     <g id="line2d_36">
      <g>
       <use xlink:href="#mdbbac7b6bc" x="240.729897" y="34.598067" style="stroke: #000000; stroke-width: 0.8"/>
      </g>
     </g>
     <g id="text_21">
      <!-- 1.2 -->
      <g transform="translate(224.507397 37.637442) scale(0.08 -0.08)">
       <use xlink:href="#DejaVuSans-31"/>
       <use xlink:href="#DejaVuSans-2e" x="63.623047"/>
       <use xlink:href="#DejaVuSans-32" x="95.410156"/>
      </g>
     </g>
    </g>
    <g id="text_22">
     <!-- Cumulative Regret -->
     <g transform="translate(218.843647 100.466823) rotate(-90) scale(0.08 -0.08)">
      <use xlink:href="#DejaVuSans-43"/>
      <use xlink:href="#DejaVuSans-75" x="69.824219"/>
      <use xlink:href="#DejaVuSans-6d" x="133.203125"/>
      <use xlink:href="#DejaVuSans-75" x="230.615234"/>
      <use xlink:href="#DejaVuSans-6c" x="293.994141"/>
      <use xlink:href="#DejaVuSans-61" x="321.777344"/>
      <use xlink:href="#DejaVuSans-74" x="383.056641"/>
      <use xlink:href="#DejaVuSans-69" x="422.265625"/>
      <use xlink:href="#DejaVuSans-76" x="450.048828"/>
      <use xlink:href="#DejaVuSans-65" x="509.228516"/>
      <use xlink:href="#DejaVuSans-20" x="570.751953"/>
      <use xlink:href="#DejaVuSans-52" x="602.539062"/>
      <use xlink:href="#DejaVuSans-65" x="667.521484"/>
      <use xlink:href="#DejaVuSans-67" x="729.044922"/>
      <use xlink:href="#DejaVuSans-72" x="792.521484"/>
      <use xlink:href="#DejaVuSans-65" x="831.384766"/>
      <use xlink:href="#DejaVuSans-74" x="892.908203"/>
     </g>
    </g>
   </g>
   <g id="line2d_37">
    <path d="M 247.48475 101.712174 
L 255.928316 67.841352 
L 264.371883 48.166634 
L 272.81545 36.713849 
L 281.259016 26.700999 
L 289.702583 25.676236 
L 298.146149 24.651473 
L 306.589716 24.651473 
L 315.033282 24.651473 
L 323.476849 24.651473 
L 331.920416 24.651473 
L 340.363982 24.651473 
L 348.807549 24.651473 
L 357.251115 24.651473 
L 365.694682 24.651473 
L 374.138248 24.651473 
L 382.581815 24.651473 
" clip-path="url(#pc817577f85)" style="fill: none; stroke: #d62728; stroke-width: 2; stroke-linecap: square"/>
   </g>
   <g id="line2d_38">
    <path d="M 247.48475 101.712174 
L 255.928316 75.165898 
L 264.371883 59.59019 
L 272.81545 48.730182 
L 281.259016 38.265655 
L 289.702583 34.238004 
L 298.146149 34.224296 
L 306.589716 34.224296 
L 315.033282 34.224296 
L 323.476849 34.224296 
L 331.920416 34.224296 
L 340.363982 34.224296 
L 348.807549 34.224296 
L 357.251115 34.224296 
L 365.694682 34.224296 
L 374.138248 34.224296 
L 382.581815 34.224296 
" clip-path="url(#pc817577f85)" style="fill: none; stroke: #2ca02c; stroke-width: 2; stroke-linecap: square"/>
   </g>
   <g id="line2d_39">
    <path d="M 247.48475 101.712174 
L 255.928316 74.722447 
L 264.371883 65.465491 
L 272.81545 58.543139 
L 281.259016 56.102332 
L 289.702583 55.157739 
L 298.146149 54.631902 
L 306.589716 54.207691 
L 315.033282 54.12161 
L 323.476849 54.035529 
L 331.920416 54.035529 
L 340.363982 54.035529 
L 348.807549 54.035529 
L 357.251115 54.035529 
L 365.694682 54.035529 
L 374.138248 54.035529 
L 382.581815 54.035529 
" clip-path="url(#pc817577f85)" style="fill: none; stroke: #1f77b4; stroke-width: 2; stroke-linecap: square"/>
   </g>
   <g id="line2d_40">
    <path d="M 247.48475 101.712174 
L 255.928316 84.252174 
L 264.371883 75.225797 
L 272.81545 73.198513 
L 281.259016 72.605844 
L 289.702583 72.092847 
L 298.146149 71.581496 
L 306.589716 71.082208 
L 315.033282 71.082208 
L 323.476849 71.082208 
L 331.920416 71.082208 
L 340.363982 71.082208 
L 348.807549 71.082208 
L 357.251115 71.082208 
L 365.694682 71.082208 
L 374.138248 71.082208 
L 382.581815 71.082208 
" clip-path="url(#pc817577f85)" style="fill: none; stroke: #ff7f0e; stroke-width: 2; stroke-linecap: square"/>
   </g>
   <g id="patch_8">
    <path d="M 240.729897 105.565209 
L 240.729897 20.798437 
" style="fill: none; stroke: #bcbcbc; stroke-width: 0.8; stroke-linejoin: miter; stroke-linecap: square"/>
   </g>
   <g id="patch_9">
    <path d="M 389.336668 105.565209 
L 389.336668 20.798437 
" style="fill: none; stroke: #bcbcbc; stroke-width: 0.8; stroke-linejoin: miter; stroke-linecap: square"/>
   </g>
   <g id="patch_10">
    <path d="M 240.729897 105.565209 
L 389.336668 105.565209 
" style="fill: none; stroke: #bcbcbc; stroke-width: 0.8; stroke-linejoin: miter; stroke-linecap: square"/>
   </g>
   <g id="patch_11">
    <path d="M 240.729897 20.798437 
L 389.336668 20.798437 
" style="fill: none; stroke: #bcbcbc; stroke-width: 0.8; stroke-linejoin: miter; stroke-linecap: square"/>
   </g>
   <g id="text_23">
    <!-- One at a Time -->
    <g transform="translate(279.76297 14.798437) scale(0.1 -0.1)">
     <defs>
      <path id="DejaVuSans-4f" d="M 2522 4238 
Q 1834 4238 1429 3725 
Q 1025 3213 1025 2328 
Q 1025 1447 1429 934 
Q 1834 422 2522 422 
Q 3209 422 3611 934 
Q 4013 1447 4013 2328 
Q 4013 3213 3611 3725 
Q 3209 4238 2522 4238 
z
M 2522 4750 
Q 3503 4750 4090 4092 
Q 4678 3434 4678 2328 
Q 4678 1225 4090 567 
Q 3503 -91 2522 -91 
Q 1538 -91 948 565 
Q 359 1222 359 2328 
Q 359 3434 948 4092 
Q 1538 4750 2522 4750 
z
" transform="scale(0.015625)"/>
      <path id="DejaVuSans-54" d="M -19 4666 
L 3928 4666 
L 3928 4134 
L 2272 4134 
L 2272 0 
L 1638 0 
L 1638 4134 
L -19 4134 
L -19 4666 
z
" transform="scale(0.015625)"/>
     </defs>
     <use xlink:href="#DejaVuSans-4f"/>
     <use xlink:href="#DejaVuSans-6e" x="78.710938"/>
     <use xlink:href="#DejaVuSans-65" x="142.089844"/>
     <use xlink:href="#DejaVuSans-20" x="203.613281"/>
     <use xlink:href="#DejaVuSans-61" x="235.400391"/>
     <use xlink:href="#DejaVuSans-74" x="296.679688"/>
     <use xlink:href="#DejaVuSans-20" x="335.888672"/>
     <use xlink:href="#DejaVuSans-61" x="367.675781"/>
     <use xlink:href="#DejaVuSans-20" x="428.955078"/>
     <use xlink:href="#DejaVuSans-54" x="460.742188"/>
     <use xlink:href="#DejaVuSans-69" x="518.701172"/>
     <use xlink:href="#DejaVuSans-6d" x="546.484375"/>
     <use xlink:href="#DejaVuSans-65" x="643.896484"/>
    </g>
   </g>
  </g>
  <g id="axes_3">
   <g id="patch_12">
    <path d="M 53.843125 223.031981 
L 202.449897 223.031981 
L 202.449897 138.265209 
L 53.843125 138.265209 
z
" style="fill: #ffffff"/>
   </g>
   <g id="PolyCollection_9">
    <defs>
     <path id="ma27f132e94" d="M 60.597978 -88.347439 
L 60.597978 -59.525319 
L 69.041545 -76.073269 
L 77.485111 -85.691861 
L 85.928678 -90.054702 
L 94.372245 -92.143187 
L 102.815811 -93.225753 
L 111.259378 -93.746638 
L 119.702944 -93.806877 
L 128.146511 -93.867117 
L 136.590077 -93.871092 
L 145.033644 -93.875067 
L 153.477211 -93.879042 
L 161.920777 -93.883017 
L 170.364344 -93.883017 
L 178.80791 -93.883017 
L 187.251477 -93.883017 
L 195.695043 -93.883017 
L 195.695043 -136.58602 
L 195.695043 -136.58602 
L 187.251477 -136.57012 
L 178.80791 -136.554219 
L 170.364344 -136.538318 
L 161.920777 -136.478417 
L 153.477211 -136.418515 
L 145.033644 -136.358613 
L 136.590077 -136.298712 
L 128.146511 -136.198391 
L 119.702944 -136.041807 
L 111.259378 -135.386344 
L 102.815811 -134.630525 
L 94.372245 -133.135042 
L 85.928678 -129.927607 
L 77.485111 -122.99682 
L 69.041545 -111.410698 
L 60.597978 -88.347439 
z
" style="stroke: #d62728; stroke-opacity: 0.2; stroke-width: 0.5"/>
    </defs>
    <g clip-path="url(#p02efd9589e)">
     <use xlink:href="#ma27f132e94" x="0" y="278.704264" style="fill: #d62728; fill-opacity: 0.2; stroke: #d62728; stroke-opacity: 0.2; stroke-width: 0.5"/>
    </g>
   </g>
   <g id="PolyCollection_10">
    <defs>
     <path id="m6f73633039" d="M 60.597978 -63.214795 
L 60.597978 -63.214795 
L 69.041545 -77.039475 
L 77.485111 -84.27147 
L 85.928678 -89.493597 
L 94.372245 -92.183369 
L 102.815811 -93.890152 
L 111.259378 -94.418295 
L 119.702944 -94.438171 
L 128.146511 -94.458046 
L 136.590077 -94.458046 
L 145.033644 -94.458046 
L 153.477211 -94.458046 
L 161.920777 -94.458046 
L 170.364344 -94.458046 
L 178.80791 -94.458046 
L 187.251477 -94.458046 
L 195.695043 -94.458046 
L 195.695043 -94.458046 
L 195.695043 -94.458046 
L 187.251477 -94.458046 
L 178.80791 -94.458046 
L 170.364344 -94.458046 
L 161.920777 -94.458046 
L 153.477211 -94.458046 
L 145.033644 -94.458046 
L 136.590077 -94.458046 
L 128.146511 -94.458046 
L 119.702944 -94.438171 
L 111.259378 -94.418295 
L 102.815811 -93.890152 
L 94.372245 -92.183369 
L 85.928678 -89.493597 
L 77.485111 -84.27147 
L 69.041545 -77.039475 
L 60.597978 -63.214795 
z
" style="stroke: #2ca02c; stroke-opacity: 0.2; stroke-width: 0.5"/>
    </defs>
    <g clip-path="url(#p02efd9589e)">
     <use xlink:href="#m6f73633039" x="0" y="278.704264" style="fill: #2ca02c; fill-opacity: 0.2; stroke: #2ca02c; stroke-opacity: 0.2; stroke-width: 0.5"/>
    </g>
   </g>
   <g id="PolyCollection_11">
    <defs>
     <path id="m48bf194f3b" d="M 60.597978 -91.313772 
L 60.597978 -64.677732 
L 69.041545 -80.036052 
L 77.485111 -84.300221 
L 85.928678 -87.648011 
L 94.372245 -90.871808 
L 102.815811 -91.447855 
L 111.259378 -92.184596 
L 119.702944 -92.988705 
L 128.146511 -93.334022 
L 136.590077 -93.350847 
L 145.033644 -93.367672 
L 153.477211 -93.367672 
L 161.920777 -93.367672 
L 170.364344 -93.367672 
L 178.80791 -93.367672 
L 187.251477 -93.367672 
L 195.695043 -93.367672 
L 195.695043 -133.034007 
L 195.695043 -133.034007 
L 187.251477 -133.034007 
L 178.80791 -133.034007 
L 170.364344 -133.034007 
L 161.920777 -133.034007 
L 153.477211 -133.034007 
L 145.033644 -133.034007 
L 136.590077 -133.034007 
L 128.146511 -133.034007 
L 119.702944 -133.030032 
L 111.259378 -132.340479 
L 102.815811 -131.425868 
L 94.372245 -130.224251 
L 85.928678 -128.281777 
L 77.485111 -124.359111 
L 69.041545 -115.843663 
L 60.597978 -91.313772 
z
" style="stroke: #1f77b4; stroke-opacity: 0.2; stroke-width: 0.5"/>
    </defs>
    <g clip-path="url(#p02efd9589e)">
     <use xlink:href="#m48bf194f3b" x="0" y="278.704264" style="fill: #1f77b4; fill-opacity: 0.2; stroke: #1f77b4; stroke-opacity: 0.2; stroke-width: 0.5"/>
    </g>
   </g>
   <g id="PolyCollection_12">
    <defs>
     <path id="m7565b8a860" d="M 60.597978 -61.051313 
L 60.597978 -61.051313 
L 69.041545 -73.020016 
L 77.485111 -76.889612 
L 85.928678 -79.0762 
L 94.372245 -80.115283 
L 102.815811 -80.680086 
L 111.259378 -81.24489 
L 119.702944 -81.528371 
L 128.146511 -81.811853 
L 136.590077 -81.811853 
L 145.033644 -81.811853 
L 153.477211 -81.811853 
L 161.920777 -81.811853 
L 170.364344 -81.811853 
L 178.80791 -81.811853 
L 187.251477 -81.811853 
L 195.695043 -81.811853 
L 195.695043 -81.811853 
L 195.695043 -81.811853 
L 187.251477 -81.811853 
L 178.80791 -81.811853 
L 170.364344 -81.811853 
L 161.920777 -81.811853 
L 153.477211 -81.811853 
L 145.033644 -81.811853 
L 136.590077 -81.811853 
L 128.146511 -81.811853 
L 119.702944 -81.528371 
L 111.259378 -81.24489 
L 102.815811 -80.680086 
L 94.372245 -80.115283 
L 85.928678 -79.0762 
L 77.485111 -76.889612 
L 69.041545 -73.020016 
L 60.597978 -61.051313 
z
" style="stroke: #ff7f0e; stroke-opacity: 0.2; stroke-width: 0.5"/>
    </defs>
    <g clip-path="url(#p02efd9589e)">
     <use xlink:href="#m7565b8a860" x="0" y="278.704264" style="fill: #ff7f0e; fill-opacity: 0.2; stroke: #ff7f0e; stroke-opacity: 0.2; stroke-width: 0.5"/>
    </g>
   </g>
   <g id="matplotlib.axis_5">
    <g id="xtick_9">
     <g id="line2d_41">
      <path d="M 60.597978 223.031981 
L 60.597978 138.265209 
" clip-path="url(#p02efd9589e)" style="fill: none; stroke: #b0b0b0; stroke-width: 0.8; stroke-linecap: square"/>
     </g>
     <g id="line2d_42">
      <g>
       <use xlink:href="#m379e0e99b2" x="60.597978" y="223.031981" style="stroke: #000000; stroke-width: 0.8"/>
      </g>
     </g>
     <g id="text_24">
      <!-- 0 -->
      <g transform="translate(58.052978 232.610731) scale(0.08 -0.08)">
       <use xlink:href="#DejaVuSans-30"/>
      </g>
     </g>
    </g>
    <g id="xtick_10">
     <g id="line2d_43">
      <path d="M 102.815811 223.031981 
L 102.815811 138.265209 
" clip-path="url(#p02efd9589e)" style="fill: none; stroke: #b0b0b0; stroke-width: 0.8; stroke-linecap: square"/>
     </g>
     <g id="line2d_44">
      <g>
       <use xlink:href="#m379e0e99b2" x="102.815811" y="223.031981" style="stroke: #000000; stroke-width: 0.8"/>
      </g>
     </g>
     <g id="text_25">
      <!-- 5 -->
      <g transform="translate(100.270811 232.610731) scale(0.08 -0.08)">
       <use xlink:href="#DejaVuSans-35"/>
      </g>
     </g>
    </g>
    <g id="xtick_11">
     <g id="line2d_45">
      <path d="M 145.033644 223.031981 
L 145.033644 138.265209 
" clip-path="url(#p02efd9589e)" style="fill: none; stroke: #b0b0b0; stroke-width: 0.8; stroke-linecap: square"/>
     </g>
     <g id="line2d_46">
      <g>
       <use xlink:href="#m379e0e99b2" x="145.033644" y="223.031981" style="stroke: #000000; stroke-width: 0.8"/>
      </g>
     </g>
     <g id="text_26">
      <!-- 10 -->
      <g transform="translate(139.943644 232.610731) scale(0.08 -0.08)">
       <use xlink:href="#DejaVuSans-31"/>
       <use xlink:href="#DejaVuSans-30" x="63.623047"/>
      </g>
     </g>
    </g>
    <g id="xtick_12">
     <g id="line2d_47">
      <path d="M 187.251477 223.031981 
L 187.251477 138.265209 
" clip-path="url(#p02efd9589e)" style="fill: none; stroke: #b0b0b0; stroke-width: 0.8; stroke-linecap: square"/>
     </g>
     <g id="line2d_48">
      <g>
       <use xlink:href="#m379e0e99b2" x="187.251477" y="223.031981" style="stroke: #000000; stroke-width: 0.8"/>
      </g>
     </g>
     <g id="text_27">
      <!-- 15 -->
      <g transform="translate(182.161477 232.610731) scale(0.08 -0.08)">
       <use xlink:href="#DejaVuSans-31"/>
       <use xlink:href="#DejaVuSans-35" x="63.623047"/>
      </g>
     </g>
    </g>
    <g id="text_28">
     <!-- no. iterations -->
     <g transform="translate(101.709636 244.353231) scale(0.08 -0.08)">
      <use xlink:href="#DejaVuSans-6e"/>
      <use xlink:href="#DejaVuSans-6f" x="63.378906"/>
      <use xlink:href="#DejaVuSans-2e" x="122.810547"/>
      <use xlink:href="#DejaVuSans-20" x="154.597656"/>
      <use xlink:href="#DejaVuSans-69" x="186.384766"/>
      <use xlink:href="#DejaVuSans-74" x="214.167969"/>
      <use xlink:href="#DejaVuSans-65" x="253.376953"/>
      <use xlink:href="#DejaVuSans-72" x="314.900391"/>
      <use xlink:href="#DejaVuSans-61" x="356.013672"/>
      <use xlink:href="#DejaVuSans-74" x="417.292969"/>
      <use xlink:href="#DejaVuSans-69" x="456.501953"/>
      <use xlink:href="#DejaVuSans-6f" x="484.285156"/>
      <use xlink:href="#DejaVuSans-6e" x="545.466797"/>
      <use xlink:href="#DejaVuSans-73" x="608.845703"/>
     </g>
    </g>
   </g>
   <g id="matplotlib.axis_6">
    <g id="ytick_9">
     <g id="line2d_49">
      <path d="M 53.843125 215.41961 
L 202.449897 215.41961 
" clip-path="url(#p02efd9589e)" style="fill: none; stroke: #b0b0b0; stroke-width: 0.8; stroke-linecap: square"/>
     </g>
     <g id="line2d_50">
      <g>
       <use xlink:href="#mdbbac7b6bc" x="53.843125" y="215.41961" style="stroke: #000000; stroke-width: 0.8"/>
      </g>
     </g>
     <g id="text_29">
      <!-- 0.5 -->
      <g transform="translate(37.620625 218.458985) scale(0.08 -0.08)">
       <use xlink:href="#DejaVuSans-30"/>
       <use xlink:href="#DejaVuSans-2e" x="63.623047"/>
       <use xlink:href="#DejaVuSans-35" x="95.410156"/>
      </g>
     </g>
    </g>
    <g id="ytick_10">
     <g id="line2d_51">
      <path d="M 53.843125 184.532711 
L 202.449897 184.532711 
" clip-path="url(#p02efd9589e)" style="fill: none; stroke: #b0b0b0; stroke-width: 0.8; stroke-linecap: square"/>
     </g>
     <g id="line2d_52">
      <g>
       <use xlink:href="#mdbbac7b6bc" x="53.843125" y="184.532711" style="stroke: #000000; stroke-width: 0.8"/>
      </g>
     </g>
     <g id="text_30">
      <!-- 1.0 -->
      <g transform="translate(37.620625 187.572086) scale(0.08 -0.08)">
       <use xlink:href="#DejaVuSans-31"/>
       <use xlink:href="#DejaVuSans-2e" x="63.623047"/>
       <use xlink:href="#DejaVuSans-30" x="95.410156"/>
      </g>
     </g>
    </g>
    <g id="ytick_11">
     <g id="line2d_53">
      <path d="M 53.843125 153.645813 
L 202.449897 153.645813 
" clip-path="url(#p02efd9589e)" style="fill: none; stroke: #b0b0b0; stroke-width: 0.8; stroke-linecap: square"/>
     </g>
     <g id="line2d_54">
      <g>
       <use xlink:href="#mdbbac7b6bc" x="53.843125" y="153.645813" style="stroke: #000000; stroke-width: 0.8"/>
      </g>
     </g>
     <g id="text_31">
      <!-- 1.5 -->
      <g transform="translate(37.620625 156.685188) scale(0.08 -0.08)">
       <use xlink:href="#DejaVuSans-31"/>
       <use xlink:href="#DejaVuSans-2e" x="63.623047"/>
       <use xlink:href="#DejaVuSans-35" x="95.410156"/>
      </g>
     </g>
    </g>
    <g id="text_32">
     <!-- Cumulative Regret -->
     <g transform="translate(31.956875 217.933595) rotate(-90) scale(0.08 -0.08)">
      <use xlink:href="#DejaVuSans-43"/>
      <use xlink:href="#DejaVuSans-75" x="69.824219"/>
      <use xlink:href="#DejaVuSans-6d" x="133.203125"/>
      <use xlink:href="#DejaVuSans-75" x="230.615234"/>
      <use xlink:href="#DejaVuSans-6c" x="293.994141"/>
      <use xlink:href="#DejaVuSans-61" x="321.777344"/>
      <use xlink:href="#DejaVuSans-74" x="383.056641"/>
      <use xlink:href="#DejaVuSans-69" x="422.265625"/>
      <use xlink:href="#DejaVuSans-76" x="450.048828"/>
      <use xlink:href="#DejaVuSans-65" x="509.228516"/>
      <use xlink:href="#DejaVuSans-20" x="570.751953"/>
      <use xlink:href="#DejaVuSans-52" x="602.539062"/>
      <use xlink:href="#DejaVuSans-65" x="667.521484"/>
      <use xlink:href="#DejaVuSans-67" x="729.044922"/>
      <use xlink:href="#DejaVuSans-72" x="792.521484"/>
      <use xlink:href="#DejaVuSans-65" x="831.384766"/>
      <use xlink:href="#DejaVuSans-74" x="892.908203"/>
     </g>
    </g>
   </g>
   <g id="line2d_55">
    <path d="M 60.597978 206.119066 
L 69.041545 185.741324 
L 77.485111 176.227929 
L 85.928678 170.83183 
L 94.372245 167.655079 
L 102.815811 165.954531 
L 111.259378 165.043895 
L 119.702944 164.436765 
L 128.146511 164.117624 
L 136.590077 164.02876 
L 145.033644 163.950813 
L 153.477211 163.894819 
L 161.920777 163.838824 
L 170.364344 163.813181 
L 178.80791 163.804436 
L 187.251477 163.795691 
L 195.695043 163.78774 
" clip-path="url(#p02efd9589e)" style="fill: none; stroke: #d62728; stroke-width: 2; stroke-linecap: square"/>
   </g>
   <g id="line2d_56">
    <path d="M 60.597978 215.489469 
L 69.041545 201.664789 
L 77.485111 194.432794 
L 85.928678 189.210667 
L 94.372245 186.520895 
L 102.815811 184.814112 
L 111.259378 184.285969 
L 119.702944 184.266094 
L 128.146511 184.246218 
L 136.590077 184.246218 
L 145.033644 184.246218 
L 153.477211 184.246218 
L 161.920777 184.246218 
L 170.364344 184.246218 
L 178.80791 184.246218 
L 187.251477 184.246218 
L 195.695043 184.246218 
" clip-path="url(#p02efd9589e)" style="fill: none; stroke: #2ca02c; stroke-width: 2; stroke-linecap: square"/>
   </g>
   <g id="line2d_57">
    <path d="M 60.597978 202.85244 
L 69.041545 187.131786 
L 77.485111 178.746531 
L 85.928678 173.661235 
L 94.372245 170.859716 
L 102.815811 169.569873 
L 111.259378 168.978701 
L 119.702944 168.701596 
L 128.146511 168.531206 
L 136.590077 168.466159 
L 145.033644 168.450551 
L 153.477211 168.447186 
L 161.920777 168.443821 
L 170.364344 168.443821 
L 178.80791 168.443821 
L 187.251477 168.443821 
L 195.695043 168.443821 
" clip-path="url(#p02efd9589e)" style="fill: none; stroke: #1f77b4; stroke-width: 2; stroke-linecap: square"/>
   </g>
   <g id="line2d_58">
    <path d="M 60.597978 217.652952 
L 69.041545 205.684248 
L 77.485111 201.814652 
L 85.928678 199.628064 
L 94.372245 198.588982 
L 102.815811 198.024178 
L 111.259378 197.459374 
L 119.702944 197.175893 
L 128.146511 196.892411 
L 136.590077 196.892411 
L 145.033644 196.892411 
L 153.477211 196.892411 
L 161.920777 196.892411 
L 170.364344 196.892411 
L 178.80791 196.892411 
L 187.251477 196.892411 
L 195.695043 196.892411 
" clip-path="url(#p02efd9589e)" style="fill: none; stroke: #ff7f0e; stroke-width: 2; stroke-linecap: square"/>
   </g>
   <g id="patch_13">
    <path d="M 53.843125 223.031981 
L 53.843125 138.265209 
" style="fill: none; stroke: #bcbcbc; stroke-width: 0.8; stroke-linejoin: miter; stroke-linecap: square"/>
   </g>
   <g id="patch_14">
    <path d="M 202.449897 223.031981 
L 202.449897 138.265209 
" style="fill: none; stroke: #bcbcbc; stroke-width: 0.8; stroke-linejoin: miter; stroke-linecap: square"/>
   </g>
   <g id="patch_15">
    <path d="M 53.843125 223.031981 
L 202.449897 223.031981 
" style="fill: none; stroke: #bcbcbc; stroke-width: 0.8; stroke-linejoin: miter; stroke-linecap: square"/>
   </g>
   <g id="patch_16">
    <path d="M 53.843125 138.265209 
L 202.449897 138.265209 
" style="fill: none; stroke: #bcbcbc; stroke-width: 0.8; stroke-linejoin: miter; stroke-linecap: square"/>
   </g>
   <g id="text_33">
    <!-- Model's Choice -->
    <g transform="translate(14.798437 218.16422) rotate(-90) scale(0.1 -0.1)">
     <defs>
      <path id="DejaVuSans-64" d="M 2906 2969 
L 2906 4863 
L 3481 4863 
L 3481 0 
L 2906 0 
L 2906 525 
Q 2725 213 2448 61 
Q 2172 -91 1784 -91 
Q 1150 -91 751 415 
Q 353 922 353 1747 
Q 353 2572 751 3078 
Q 1150 3584 1784 3584 
Q 2172 3584 2448 3432 
Q 2725 3281 2906 2969 
z
M 947 1747 
Q 947 1113 1208 752 
Q 1469 391 1925 391 
Q 2381 391 2643 752 
Q 2906 1113 2906 1747 
Q 2906 2381 2643 2742 
Q 2381 3103 1925 3103 
Q 1469 3103 1208 2742 
Q 947 2381 947 1747 
z
" transform="scale(0.015625)"/>
      <path id="DejaVuSans-27" d="M 1147 4666 
L 1147 2931 
L 616 2931 
L 616 4666 
L 1147 4666 
z
" transform="scale(0.015625)"/>
      <path id="DejaVuSans-68" d="M 3513 2113 
L 3513 0 
L 2938 0 
L 2938 2094 
Q 2938 2591 2744 2837 
Q 2550 3084 2163 3084 
Q 1697 3084 1428 2787 
Q 1159 2491 1159 1978 
L 1159 0 
L 581 0 
L 581 4863 
L 1159 4863 
L 1159 2956 
Q 1366 3272 1645 3428 
Q 1925 3584 2291 3584 
Q 2894 3584 3203 3211 
Q 3513 2838 3513 2113 
z
" transform="scale(0.015625)"/>
     </defs>
     <use xlink:href="#DejaVuSans-4d"/>
     <use xlink:href="#DejaVuSans-6f" x="86.279297"/>
     <use xlink:href="#DejaVuSans-64" x="147.460938"/>
     <use xlink:href="#DejaVuSans-65" x="210.9375"/>
     <use xlink:href="#DejaVuSans-6c" x="272.460938"/>
     <use xlink:href="#DejaVuSans-27" x="300.244141"/>
     <use xlink:href="#DejaVuSans-73" x="327.734375"/>
     <use xlink:href="#DejaVuSans-20" x="379.833984"/>
     <use xlink:href="#DejaVuSans-43" x="411.621094"/>
     <use xlink:href="#DejaVuSans-68" x="481.445312"/>
     <use xlink:href="#DejaVuSans-6f" x="544.824219"/>
     <use xlink:href="#DejaVuSans-69" x="606.005859"/>
     <use xlink:href="#DejaVuSans-63" x="633.789062"/>
     <use xlink:href="#DejaVuSans-65" x="688.769531"/>
    </g>
   </g>
  </g>
  <g id="axes_4">
   <g id="patch_17">
    <path d="M 240.729897 223.031981 
L 389.336668 223.031981 
L 389.336668 138.265209 
L 240.729897 138.265209 
z
" style="fill: #ffffff"/>
   </g>
   <g id="PolyCollection_13">
    <defs>
     <path id="mb062a73533" d="M 247.48475 -88.759752 
L 247.48475 -63.504591 
L 255.928316 -70.567046 
L 264.371883 -76.238978 
L 272.81545 -80.932596 
L 281.259016 -83.430487 
L 289.702583 -84.577181 
L 298.146149 -85.173962 
L 306.589716 -85.515021 
L 315.033282 -85.762025 
L 323.476849 -86.009029 
L 331.920416 -86.071671 
L 340.363982 -86.134314 
L 348.807549 -86.150866 
L 357.251115 -86.167419 
L 365.694682 -86.183971 
L 374.138248 -86.200523 
L 382.581815 -86.213765 
L 382.581815 -136.58602 
L 382.581815 -136.58602 
L 374.138248 -136.523377 
L 365.694682 -136.460735 
L 357.251115 -136.137768 
L 348.807549 -135.8148 
L 340.363982 -135.463969 
L 331.920416 -135.065954 
L 323.476849 -134.443869 
L 315.033282 -133.809983 
L 306.589716 -132.977434 
L 298.146149 -132.119322 
L 289.702583 -131.112595 
L 281.259016 -129.583819 
L 272.81545 -125.965004 
L 264.371883 -116.871723 
L 255.928316 -108.110839 
L 247.48475 -88.759752 
z
" style="stroke: #d62728; stroke-opacity: 0.2; stroke-width: 0.5"/>
    </defs>
    <g clip-path="url(#pd45a1010ba)">
     <use xlink:href="#mb062a73533" x="0" y="278.704264" style="fill: #d62728; fill-opacity: 0.2; stroke: #d62728; stroke-opacity: 0.2; stroke-width: 0.5"/>
    </g>
   </g>
   <g id="PolyCollection_14">
    <defs>
     <path id="m5c9c36d482" d="M 247.48475 -60.63418 
L 247.48475 -60.63418 
L 255.928316 -72.96177 
L 264.371883 -80.343388 
L 272.81545 -86.485203 
L 281.259016 -90.735123 
L 289.702583 -92.694613 
L 298.146149 -92.770617 
L 306.589716 -92.770617 
L 315.033282 -92.770617 
L 323.476849 -92.770617 
L 331.920416 -92.770617 
L 340.363982 -92.770617 
L 348.807549 -92.770617 
L 357.251115 -92.770617 
L 365.694682 -92.770617 
L 374.138248 -92.770617 
L 382.581815 -92.770617 
L 382.581815 -92.770617 
L 382.581815 -92.770617 
L 374.138248 -92.770617 
L 365.694682 -92.770617 
L 357.251115 -92.770617 
L 348.807549 -92.770617 
L 340.363982 -92.770617 
L 331.920416 -92.770617 
L 323.476849 -92.770617 
L 315.033282 -92.770617 
L 306.589716 -92.770617 
L 298.146149 -92.770617 
L 289.702583 -92.694613 
L 281.259016 -90.735123 
L 272.81545 -86.485203 
L 264.371883 -80.343388 
L 255.928316 -72.96177 
L 247.48475 -60.63418 
z
" style="stroke: #2ca02c; stroke-opacity: 0.2; stroke-width: 0.5"/>
    </defs>
    <g clip-path="url(#pd45a1010ba)">
     <use xlink:href="#m5c9c36d482" x="0" y="278.704264" style="fill: #2ca02c; fill-opacity: 0.2; stroke: #2ca02c; stroke-opacity: 0.2; stroke-width: 0.5"/>
    </g>
   </g>
   <g id="PolyCollection_15">
    <defs>
     <path id="md434c891ee" d="M 247.48475 -88.429392 
L 247.48475 -64.325735 
L 255.928316 -70.390899 
L 264.371883 -73.207791 
L 272.81545 -75.110948 
L 281.259016 -76.019483 
L 289.702583 -76.420592 
L 298.146149 -76.754493 
L 306.589716 -76.880015 
L 315.033282 -76.974115 
L 323.476849 -77.068216 
L 331.920416 -77.068216 
L 340.363982 -77.068216 
L 348.807549 -77.068216 
L 357.251115 -77.068216 
L 365.694682 -77.068216 
L 374.138248 -77.068216 
L 382.581815 -77.068216 
L 382.581815 -111.146779 
L 382.581815 -111.146779 
L 374.138248 -111.146779 
L 365.694682 -111.146779 
L 357.251115 -111.146779 
L 348.807549 -111.146779 
L 340.363982 -111.146779 
L 331.920416 -111.131669 
L 323.476849 -111.056118 
L 315.033282 -110.980568 
L 306.589716 -110.905018 
L 298.146149 -110.829468 
L 289.702583 -110.33689 
L 281.259016 -109.447053 
L 272.81545 -107.941302 
L 264.371883 -104.030936 
L 255.928316 -100.361764 
L 247.48475 -88.429392 
z
" style="stroke: #1f77b4; stroke-opacity: 0.2; stroke-width: 0.5"/>
    </defs>
    <g clip-path="url(#pd45a1010ba)">
     <use xlink:href="#md434c891ee" x="0" y="278.704264" style="fill: #1f77b4; fill-opacity: 0.2; stroke: #1f77b4; stroke-opacity: 0.2; stroke-width: 0.5"/>
    </g>
   </g>
   <g id="PolyCollection_16">
    <defs>
     <path id="m385d17b319" d="M 247.48475 -61.693912 
L 247.48475 -59.525319 
L 255.928316 -64.989396 
L 264.371883 -67.433601 
L 272.81545 -67.779881 
L 281.259016 -68.020598 
L 289.702583 -68.261314 
L 298.146149 -68.366642 
L 306.589716 -68.366642 
L 315.033282 -68.366642 
L 323.476849 -68.366642 
L 331.920416 -68.366642 
L 340.363982 -68.366642 
L 348.807549 -68.366642 
L 357.251115 -68.366642 
L 365.694682 -68.366642 
L 374.138248 -68.366642 
L 382.581815 -68.366642 
L 382.581815 -78.573223 
L 382.581815 -78.573223 
L 374.138248 -78.573223 
L 365.694682 -78.573223 
L 357.251115 -78.573223 
L 348.807549 -78.573223 
L 340.363982 -78.573223 
L 331.920416 -78.573223 
L 323.476849 -78.573223 
L 315.033282 -78.573223 
L 306.589716 -78.573223 
L 298.146149 -78.573223 
L 289.702583 -77.96273 
L 281.259016 -77.352238 
L 272.81545 -75.90473 
L 264.371883 -73.888146 
L 255.928316 -68.514754 
L 247.48475 -61.693912 
z
" style="stroke: #ff7f0e; stroke-opacity: 0.2; stroke-width: 0.5"/>
    </defs>
    <g clip-path="url(#pd45a1010ba)">
     <use xlink:href="#m385d17b319" x="0" y="278.704264" style="fill: #ff7f0e; fill-opacity: 0.2; stroke: #ff7f0e; stroke-opacity: 0.2; stroke-width: 0.5"/>
    </g>
   </g>
   <g id="matplotlib.axis_7">
    <g id="xtick_13">
     <g id="line2d_59">
      <path d="M 247.48475 223.031981 
L 247.48475 138.265209 
" clip-path="url(#pd45a1010ba)" style="fill: none; stroke: #b0b0b0; stroke-width: 0.8; stroke-linecap: square"/>
     </g>
     <g id="line2d_60">
      <g>
       <use xlink:href="#m379e0e99b2" x="247.48475" y="223.031981" style="stroke: #000000; stroke-width: 0.8"/>
      </g>
     </g>
     <g id="text_34">
      <!-- 0 -->
      <g transform="translate(244.93975 232.610731) scale(0.08 -0.08)">
       <use xlink:href="#DejaVuSans-30"/>
      </g>
     </g>
    </g>
    <g id="xtick_14">
     <g id="line2d_61">
      <path d="M 289.702583 223.031981 
L 289.702583 138.265209 
" clip-path="url(#pd45a1010ba)" style="fill: none; stroke: #b0b0b0; stroke-width: 0.8; stroke-linecap: square"/>
     </g>
     <g id="line2d_62">
      <g>
       <use xlink:href="#m379e0e99b2" x="289.702583" y="223.031981" style="stroke: #000000; stroke-width: 0.8"/>
      </g>
     </g>
     <g id="text_35">
      <!-- 5 -->
      <g transform="translate(287.157583 232.610731) scale(0.08 -0.08)">
       <use xlink:href="#DejaVuSans-35"/>
      </g>
     </g>
    </g>
    <g id="xtick_15">
     <g id="line2d_63">
      <path d="M 331.920416 223.031981 
L 331.920416 138.265209 
" clip-path="url(#pd45a1010ba)" style="fill: none; stroke: #b0b0b0; stroke-width: 0.8; stroke-linecap: square"/>
     </g>
     <g id="line2d_64">
      <g>
       <use xlink:href="#m379e0e99b2" x="331.920416" y="223.031981" style="stroke: #000000; stroke-width: 0.8"/>
      </g>
     </g>
     <g id="text_36">
      <!-- 10 -->
      <g transform="translate(326.830416 232.610731) scale(0.08 -0.08)">
       <use xlink:href="#DejaVuSans-31"/>
       <use xlink:href="#DejaVuSans-30" x="63.623047"/>
      </g>
     </g>
    </g>
    <g id="xtick_16">
     <g id="line2d_65">
      <path d="M 374.138248 223.031981 
L 374.138248 138.265209 
" clip-path="url(#pd45a1010ba)" style="fill: none; stroke: #b0b0b0; stroke-width: 0.8; stroke-linecap: square"/>
     </g>
     <g id="line2d_66">
      <g>
       <use xlink:href="#m379e0e99b2" x="374.138248" y="223.031981" style="stroke: #000000; stroke-width: 0.8"/>
      </g>
     </g>
     <g id="text_37">
      <!-- 15 -->
      <g transform="translate(369.048248 232.610731) scale(0.08 -0.08)">
       <use xlink:href="#DejaVuSans-31"/>
       <use xlink:href="#DejaVuSans-35" x="63.623047"/>
      </g>
     </g>
    </g>
    <g id="text_38">
     <!-- no. iterations -->
     <g transform="translate(288.596407 244.353231) scale(0.08 -0.08)">
      <use xlink:href="#DejaVuSans-6e"/>
      <use xlink:href="#DejaVuSans-6f" x="63.378906"/>
      <use xlink:href="#DejaVuSans-2e" x="122.810547"/>
      <use xlink:href="#DejaVuSans-20" x="154.597656"/>
      <use xlink:href="#DejaVuSans-69" x="186.384766"/>
      <use xlink:href="#DejaVuSans-74" x="214.167969"/>
      <use xlink:href="#DejaVuSans-65" x="253.376953"/>
      <use xlink:href="#DejaVuSans-72" x="314.900391"/>
      <use xlink:href="#DejaVuSans-61" x="356.013672"/>
      <use xlink:href="#DejaVuSans-74" x="417.292969"/>
      <use xlink:href="#DejaVuSans-69" x="456.501953"/>
      <use xlink:href="#DejaVuSans-6f" x="484.285156"/>
      <use xlink:href="#DejaVuSans-6e" x="545.466797"/>
      <use xlink:href="#DejaVuSans-73" x="608.845703"/>
     </g>
    </g>
   </g>
   <g id="matplotlib.axis_8">
    <g id="ytick_12">
     <g id="line2d_67">
      <path d="M 240.729897 208.192622 
L 389.336668 208.192622 
" clip-path="url(#pd45a1010ba)" style="fill: none; stroke: #b0b0b0; stroke-width: 0.8; stroke-linecap: square"/>
     </g>
     <g id="line2d_68">
      <g>
       <use xlink:href="#mdbbac7b6bc" x="240.729897" y="208.192622" style="stroke: #000000; stroke-width: 0.8"/>
      </g>
     </g>
     <g id="text_39">
      <!-- 0.5 -->
      <g transform="translate(224.507397 211.231997) scale(0.08 -0.08)">
       <use xlink:href="#DejaVuSans-30"/>
       <use xlink:href="#DejaVuSans-2e" x="63.623047"/>
       <use xlink:href="#DejaVuSans-35" x="95.410156"/>
      </g>
     </g>
    </g>
    <g id="ytick_13">
     <g id="line2d_69">
      <path d="M 240.729897 182.470168 
L 389.336668 182.470168 
" clip-path="url(#pd45a1010ba)" style="fill: none; stroke: #b0b0b0; stroke-width: 0.8; stroke-linecap: square"/>
     </g>
     <g id="line2d_70">
      <g>
       <use xlink:href="#mdbbac7b6bc" x="240.729897" y="182.470168" style="stroke: #000000; stroke-width: 0.8"/>
      </g>
     </g>
     <g id="text_40">
      <!-- 1.0 -->
      <g transform="translate(224.507397 185.509543) scale(0.08 -0.08)">
       <use xlink:href="#DejaVuSans-31"/>
       <use xlink:href="#DejaVuSans-2e" x="63.623047"/>
       <use xlink:href="#DejaVuSans-30" x="95.410156"/>
      </g>
     </g>
    </g>
    <g id="ytick_14">
     <g id="line2d_71">
      <path d="M 240.729897 156.747714 
L 389.336668 156.747714 
" clip-path="url(#pd45a1010ba)" style="fill: none; stroke: #b0b0b0; stroke-width: 0.8; stroke-linecap: square"/>
     </g>
     <g id="line2d_72">
      <g>
       <use xlink:href="#mdbbac7b6bc" x="240.729897" y="156.747714" style="stroke: #000000; stroke-width: 0.8"/>
      </g>
     </g>
     <g id="text_41">
      <!-- 1.5 -->
      <g transform="translate(224.507397 159.787089) scale(0.08 -0.08)">
       <use xlink:href="#DejaVuSans-31"/>
       <use xlink:href="#DejaVuSans-2e" x="63.623047"/>
       <use xlink:href="#DejaVuSans-35" x="95.410156"/>
      </g>
     </g>
    </g>
    <g id="text_42">
     <!-- Cumulative Regret -->
     <g transform="translate(218.843647 217.933595) rotate(-90) scale(0.08 -0.08)">
      <use xlink:href="#DejaVuSans-43"/>
      <use xlink:href="#DejaVuSans-75" x="69.824219"/>
      <use xlink:href="#DejaVuSans-6d" x="133.203125"/>
      <use xlink:href="#DejaVuSans-75" x="230.615234"/>
      <use xlink:href="#DejaVuSans-6c" x="293.994141"/>
      <use xlink:href="#DejaVuSans-61" x="321.777344"/>
      <use xlink:href="#DejaVuSans-74" x="383.056641"/>
      <use xlink:href="#DejaVuSans-69" x="422.265625"/>
      <use xlink:href="#DejaVuSans-76" x="450.048828"/>
      <use xlink:href="#DejaVuSans-65" x="509.228516"/>
      <use xlink:href="#DejaVuSans-20" x="570.751953"/>
      <use xlink:href="#DejaVuSans-52" x="602.539062"/>
      <use xlink:href="#DejaVuSans-65" x="667.521484"/>
      <use xlink:href="#DejaVuSans-67" x="729.044922"/>
      <use xlink:href="#DejaVuSans-72" x="792.521484"/>
      <use xlink:href="#DejaVuSans-65" x="831.384766"/>
      <use xlink:href="#DejaVuSans-74" x="892.908203"/>
     </g>
    </g>
   </g>
   <g id="line2d_73">
    <path d="M 247.48475 199.211785 
L 255.928316 183.923719 
L 264.371883 177.060594 
L 272.81545 172.605772 
L 281.259016 170.009007 
L 289.702583 168.846723 
L 298.146149 168.198345 
L 306.589716 167.819231 
L 315.033282 167.538769 
L 323.476849 167.313863 
L 331.920416 167.142344 
L 340.363982 166.991794 
L 348.807549 166.869117 
L 357.251115 166.768694 
L 365.694682 166.66827 
L 374.138248 166.64581 
L 382.581815 166.625999 
" clip-path="url(#pd45a1010ba)" style="fill: none; stroke: #d62728; stroke-width: 2; stroke-linecap: square"/>
   </g>
   <g id="line2d_74">
    <path d="M 247.48475 218.070084 
L 255.928316 205.742495 
L 264.371883 198.360877 
L 272.81545 192.219061 
L 281.259016 187.969141 
L 289.702583 186.009651 
L 298.146149 185.933647 
L 306.589716 185.933647 
L 315.033282 185.933647 
L 323.476849 185.933647 
L 331.920416 185.933647 
L 340.363982 185.933647 
L 348.807549 185.933647 
L 357.251115 185.933647 
L 365.694682 185.933647 
L 374.138248 185.933647 
L 382.581815 185.933647 
" clip-path="url(#pd45a1010ba)" style="fill: none; stroke: #2ca02c; stroke-width: 2; stroke-linecap: square"/>
   </g>
   <g id="line2d_75">
    <path d="M 247.48475 201.870441 
L 255.928316 190.733878 
L 264.371883 185.700023 
L 272.81545 182.707204 
L 281.259016 181.607061 
L 289.702583 181.07021 
L 298.146149 180.730404 
L 306.589716 180.522797 
L 315.033282 180.396434 
L 323.476849 180.303298 
L 331.920416 180.266568 
L 340.363982 180.245099 
L 348.807549 180.235745 
L 357.251115 180.230737 
L 365.694682 180.22639 
L 374.138248 180.223368 
L 382.581815 180.223368 
" clip-path="url(#pd45a1010ba)" style="fill: none; stroke: #1f77b4; stroke-width: 2; stroke-linecap: square"/>
   </g>
   <g id="line2d_76">
    <path d="M 247.48475 218.041916 
L 255.928316 212.066939 
L 264.371883 208.782961 
L 272.81545 207.888435 
L 281.259016 207.425084 
L 289.702583 207.12242 
L 298.146149 206.842826 
L 306.589716 206.842826 
L 315.033282 206.842826 
L 323.476849 206.842826 
L 331.920416 206.842826 
L 340.363982 206.842826 
L 348.807549 206.842826 
L 357.251115 206.842826 
L 365.694682 206.842826 
L 374.138248 206.842826 
L 382.581815 206.842826 
" clip-path="url(#pd45a1010ba)" style="fill: none; stroke: #ff7f0e; stroke-width: 2; stroke-linecap: square"/>
   </g>
   <g id="patch_18">
    <path d="M 240.729897 223.031981 
L 240.729897 138.265209 
" style="fill: none; stroke: #bcbcbc; stroke-width: 0.8; stroke-linejoin: miter; stroke-linecap: square"/>
   </g>
   <g id="patch_19">
    <path d="M 389.336668 223.031981 
L 389.336668 138.265209 
" style="fill: none; stroke: #bcbcbc; stroke-width: 0.8; stroke-linejoin: miter; stroke-linecap: square"/>
   </g>
   <g id="patch_20">
    <path d="M 240.729897 223.031981 
L 389.336668 223.031981 
" style="fill: none; stroke: #bcbcbc; stroke-width: 0.8; stroke-linejoin: miter; stroke-linecap: square"/>
   </g>
   <g id="patch_21">
    <path d="M 240.729897 138.265209 
L 389.336668 138.265209 
" style="fill: none; stroke: #bcbcbc; stroke-width: 0.8; stroke-linejoin: miter; stroke-linecap: square"/>
   </g>
  </g>
  <g id="legend_1">
   <g id="patch_22">
    <path d="M 59.744503 271.504264 
L 361.094503 271.504264 
Q 363.094503 271.504264 363.094503 269.504264 
L 363.094503 255.826139 
Q 363.094503 253.826139 361.094503 253.826139 
L 59.744503 253.826139 
Q 57.744503 253.826139 57.744503 255.826139 
L 57.744503 269.504264 
Q 57.744503 271.504264 59.744503 271.504264 
z
" style="fill: #ffffff; opacity: 0.8; stroke: #cccccc; stroke-width: 0.5; stroke-linejoin: miter"/>
   </g>
   <g id="line2d_77">
    <path d="M 61.744503 261.924577 
L 71.744503 261.924577 
L 81.744503 261.924577 
" style="fill: none; stroke: #d62728; stroke-width: 2; stroke-linecap: square"/>
   </g>
   <g id="text_43">
    <!-- MOGP -->
    <g transform="translate(89.744503 265.424577) scale(0.1 -0.1)">
     <defs>
      <path id="DejaVuSans-47" d="M 3809 666 
L 3809 1919 
L 2778 1919 
L 2778 2438 
L 4434 2438 
L 4434 434 
Q 4069 175 3628 42 
Q 3188 -91 2688 -91 
Q 1594 -91 976 548 
Q 359 1188 359 2328 
Q 359 3472 976 4111 
Q 1594 4750 2688 4750 
Q 3144 4750 3555 4637 
Q 3966 4525 4313 4306 
L 4313 3634 
Q 3963 3931 3569 4081 
Q 3175 4231 2741 4231 
Q 1884 4231 1454 3753 
Q 1025 3275 1025 2328 
Q 1025 1384 1454 906 
Q 1884 428 2741 428 
Q 3075 428 3337 486 
Q 3600 544 3809 666 
z
" transform="scale(0.015625)"/>
      <path id="DejaVuSans-50" d="M 1259 4147 
L 1259 2394 
L 2053 2394 
Q 2494 2394 2734 2622 
Q 2975 2850 2975 3272 
Q 2975 3691 2734 3919 
Q 2494 4147 2053 4147 
L 1259 4147 
z
M 628 4666 
L 2053 4666 
Q 2838 4666 3239 4311 
Q 3641 3956 3641 3272 
Q 3641 2581 3239 2228 
Q 2838 1875 2053 1875 
L 1259 1875 
L 1259 0 
L 628 0 
L 628 4666 
z
" transform="scale(0.015625)"/>
     </defs>
     <use xlink:href="#DejaVuSans-4d"/>
     <use xlink:href="#DejaVuSans-4f" x="86.279297"/>
     <use xlink:href="#DejaVuSans-47" x="164.990234"/>
     <use xlink:href="#DejaVuSans-50" x="242.480469"/>
    </g>
   </g>
   <g id="line2d_78">
    <path d="M 140.022628 261.924577 
L 150.022628 261.924577 
L 160.022628 261.924577 
" style="fill: none; stroke: #2ca02c; stroke-width: 2; stroke-linecap: square"/>
   </g>
   <g id="text_44">
    <!-- AvgGP -->
    <g transform="translate(168.022628 265.424577) scale(0.1 -0.1)">
     <defs>
      <path id="DejaVuSans-41" d="M 2188 4044 
L 1331 1722 
L 3047 1722 
L 2188 4044 
z
M 1831 4666 
L 2547 4666 
L 4325 0 
L 3669 0 
L 3244 1197 
L 1141 1197 
L 716 0 
L 50 0 
L 1831 4666 
z
" transform="scale(0.015625)"/>
     </defs>
     <use xlink:href="#DejaVuSans-41"/>
     <use xlink:href="#DejaVuSans-76" x="62.533203"/>
     <use xlink:href="#DejaVuSans-67" x="121.712891"/>
     <use xlink:href="#DejaVuSans-47" x="185.189453"/>
     <use xlink:href="#DejaVuSans-50" x="262.679688"/>
    </g>
   </g>
   <g id="line2d_79">
    <path d="M 220.321065 261.924577 
L 230.321065 261.924577 
L 240.321065 261.924577 
" style="fill: none; stroke: #1f77b4; stroke-width: 2; stroke-linecap: square"/>
   </g>
   <g id="text_45">
    <!-- LMC -->
    <g transform="translate(248.321065 265.424577) scale(0.1 -0.1)">
     <defs>
      <path id="DejaVuSans-4c" d="M 628 4666 
L 1259 4666 
L 1259 531 
L 3531 531 
L 3531 0 
L 628 0 
L 628 4666 
z
" transform="scale(0.015625)"/>
     </defs>
     <use xlink:href="#DejaVuSans-4c"/>
     <use xlink:href="#DejaVuSans-4d" x="55.712891"/>
     <use xlink:href="#DejaVuSans-43" x="141.992188"/>
    </g>
   </g>
   <g id="line2d_80">
    <path d="M 289.503878 261.924577 
L 299.503878 261.924577 
L 309.503878 261.924577 
" style="fill: none; stroke: #ff7f0e; stroke-width: 2; stroke-linecap: square"/>
   </g>
   <g id="text_46">
    <!-- LVMOGP -->
    <g transform="translate(317.503878 265.424577) scale(0.1 -0.1)">
     <defs>
      <path id="DejaVuSans-56" d="M 1831 0 
L 50 4666 
L 709 4666 
L 2188 738 
L 3669 4666 
L 4325 4666 
L 2547 0 
L 1831 0 
z
" transform="scale(0.015625)"/>
     </defs>
     <use xlink:href="#DejaVuSans-4c"/>
     <use xlink:href="#DejaVuSans-56" x="44.712891"/>
     <use xlink:href="#DejaVuSans-4d" x="113.121094"/>
     <use xlink:href="#DejaVuSans-4f" x="199.400391"/>
     <use xlink:href="#DejaVuSans-47" x="278.111328"/>
     <use xlink:href="#DejaVuSans-50" x="355.601562"/>
    </g>
   </g>
  </g>
 </g>
 <defs>
  <clipPath id="pe2d5384ad3">
   <rect x="53.843125" y="20.798437" width="148.606772" height="84.766772"/>
  </clipPath>
  <clipPath id="pc817577f85">
   <rect x="240.729897" y="20.798437" width="148.606772" height="84.766772"/>
  </clipPath>
  <clipPath id="p02efd9589e">
   <rect x="53.843125" y="138.265209" width="148.606772" height="84.766772"/>
  </clipPath>
  <clipPath id="pd45a1010ba">
   <rect x="240.729897" y="138.265209" width="148.606772" height="84.766772"/>
  </clipPath>
 </defs>
</svg>
