<?xml version="1.0" encoding="utf-8" standalone="no"?>
<!DOCTYPE svg PUBLIC "-//W3C//DTD SVG 1.1//EN"
  "http://www.w3.org/Graphics/SVG/1.1/DTD/svg11.dtd">
<svg xmlns:xlink="http://www.w3.org/1999/xlink" width="286.98125pt" height="118.078438pt" viewBox="0 0 286.98125 118.078438" xmlns="http://www.w3.org/2000/svg" version="1.1">
 <metadata>
  <rdf:RDF xmlns:dc="http://purl.org/dc/elements/1.1/" xmlns:cc="http://creativecommons.org/ns#" xmlns:rdf="http://www.w3.org/1999/02/22-rdf-syntax-ns#">
   <cc:Work>
    <dc:type rdf:resource="http://purl.org/dc/dcmitype/StillImage"/>
    <dc:date>2023-09-13T15:49:30.335232</dc:date>
    <dc:format>image/svg+xml</dc:format>
    <dc:creator>
     <cc:Agent>
      <dc:title>Matplotlib v3.7.3, https://matplotlib.org/</dc:title>
     </cc:Agent>
    </dc:creator>
   </cc:Work>
  </rdf:RDF>
 </metadata>
 <defs>
  <style type="text/css">*{stroke-linejoin: round; stroke-linecap: butt}</style>
 </defs>
 <g id="figure_1">
  <g id="patch_1">
   <path d="M 0 118.078438 
L 286.98125 118.078438 
L 286.98125 0 
L 0 0 
z
" style="fill: #ffffff"/>
  </g>
  <g id="axes_1">
   <g id="patch_2">
    <path d="M 49.21325 71.378438 
L 150.95725 71.378438 
L 150.95725 20.798438 
L 49.21325 20.798438 
z
" style="fill: #ffffff"/>
   </g>
   <g id="PolyCollection_1">
    <defs>
     <path id="m7b09fb1184" d="M 53.837977 -48.999091 
L 53.837977 -48.999091 
L 59.618886 -65.450726 
L 65.399795 -77.503427 
L 71.180705 -82.698952 
L 76.961614 -86.644618 
L 82.742523 -88.758667 
L 88.523432 -89.401996 
L 94.304341 -90.045324 
L 100.08525 -90.369746 
L 105.866159 -90.391154 
L 111.647068 -90.412562 
L 117.427977 -90.43397 
L 123.208886 -90.455378 
L 128.989795 -90.455378 
L 134.770705 -90.455378 
L 140.551614 -90.455378 
L 146.332523 -90.455378 
L 146.332523 -90.455378 
L 146.332523 -90.455378 
L 140.551614 -90.455378 
L 134.770705 -90.455378 
L 128.989795 -90.455378 
L 123.208886 -90.455378 
L 117.427977 -90.43397 
L 111.647068 -90.412562 
L 105.866159 -90.391154 
L 100.08525 -90.369746 
L 94.304341 -90.045324 
L 88.523432 -89.401996 
L 82.742523 -88.758667 
L 76.961614 -86.644618 
L 71.180705 -82.698952 
L 65.399795 -77.503427 
L 59.618886 -65.450726 
L 53.837977 -48.999091 
z
" style="stroke: #d62728; stroke-opacity: 0.2; stroke-width: 0.5"/>
    </defs>
    <g clip-path="url(#p147867bc75)">
     <use xlink:href="#m7b09fb1184" x="0" y="118.078438" style="fill: #d62728; fill-opacity: 0.2; stroke: #d62728; stroke-opacity: 0.2; stroke-width: 0.5"/>
    </g>
   </g>
   <g id="PolyCollection_2">
    <defs>
     <path id="ma9a0b4dc5b" d="M 53.837977 -48.999091 
L 53.837977 -48.999091 
L 59.618886 -68.03959 
L 65.399795 -75.978365 
L 71.180705 -82.861776 
L 76.961614 -87.791662 
L 82.742523 -91.60765 
L 88.523432 -94.656487 
L 94.304341 -94.980909 
L 100.08525 -94.980909 
L 105.866159 -94.980909 
L 111.647068 -94.980909 
L 117.427977 -94.980909 
L 123.208886 -94.980909 
L 128.989795 -94.980909 
L 134.770705 -94.980909 
L 140.551614 -94.980909 
L 146.332523 -94.980909 
L 146.332523 -94.980909 
L 146.332523 -94.980909 
L 140.551614 -94.980909 
L 134.770705 -94.980909 
L 128.989795 -94.980909 
L 123.208886 -94.980909 
L 117.427977 -94.980909 
L 111.647068 -94.980909 
L 105.866159 -94.980909 
L 100.08525 -94.980909 
L 94.304341 -94.980909 
L 88.523432 -94.656487 
L 82.742523 -91.60765 
L 76.961614 -87.791662 
L 71.180705 -82.861776 
L 65.399795 -75.978365 
L 59.618886 -68.03959 
L 53.837977 -48.999091 
z
" style="stroke: #2ca02c; stroke-opacity: 0.2; stroke-width: 0.5"/>
    </defs>
    <g clip-path="url(#p147867bc75)">
     <use xlink:href="#ma9a0b4dc5b" x="0" y="118.078438" style="fill: #2ca02c; fill-opacity: 0.2; stroke: #2ca02c; stroke-opacity: 0.2; stroke-width: 0.5"/>
    </g>
   </g>
   <g id="PolyCollection_3">
    <defs>
     <path id="m8d5e59a0b9" d="M 53.837977 -48.999091 
L 53.837977 -48.999091 
L 59.618886 -65.418668 
L 65.399795 -73.390103 
L 71.180705 -75.909228 
L 76.961614 -78.347972 
L 82.742523 -79.182319 
L 88.523432 -79.838504 
L 94.304341 -80.191675 
L 100.08525 -80.32274 
L 105.866159 -80.413351 
L 111.647068 -80.503962 
L 117.427977 -80.594574 
L 123.208886 -80.627025 
L 128.989795 -80.627025 
L 134.770705 -80.627025 
L 140.551614 -80.627025 
L 146.332523 -80.627025 
L 146.332523 -81.500885 
L 146.332523 -81.500885 
L 140.551614 -81.500885 
L 134.770705 -81.500885 
L 128.989795 -81.500885 
L 123.208886 -81.500885 
L 117.427977 -81.500885 
L 111.647068 -81.28321 
L 105.866159 -81.065535 
L 100.08525 -80.84786 
L 94.304341 -80.494689 
L 88.523432 -79.838504 
L 82.742523 -79.182319 
L 76.961614 -78.347972 
L 71.180705 -75.909228 
L 65.399795 -73.390103 
L 59.618886 -65.418668 
L 53.837977 -48.999091 
z
" style="stroke: #1f77b4; stroke-opacity: 0.2; stroke-width: 0.5"/>
    </defs>
    <g clip-path="url(#p147867bc75)">
     <use xlink:href="#m8d5e59a0b9" x="0" y="118.078438" style="fill: #1f77b4; fill-opacity: 0.2; stroke: #1f77b4; stroke-opacity: 0.2; stroke-width: 0.5"/>
    </g>
   </g>
   <g id="PolyCollection_4">
    <defs>
     <path id="mf69dd94554" d="M 53.837977 -48.999091 
L 53.837977 -48.999091 
L 59.618886 -59.855045 
L 65.399795 -63.652171 
L 71.180705 -66.952052 
L 76.961614 -67.696939 
L 82.742523 -68.135449 
L 88.523432 -68.573959 
L 94.304341 -68.876973 
L 100.08525 -68.876973 
L 105.866159 -68.876973 
L 111.647068 -68.876973 
L 117.427977 -68.876973 
L 123.208886 -68.876973 
L 128.989795 -68.876973 
L 134.770705 -68.876973 
L 140.551614 -68.876973 
L 146.332523 -68.876973 
L 146.332523 -70.204183 
L 146.332523 -70.204183 
L 140.551614 -70.204183 
L 134.770705 -70.204183 
L 128.989795 -70.204183 
L 123.208886 -70.204183 
L 117.427977 -70.204183 
L 111.647068 -70.204183 
L 105.866159 -70.204183 
L 100.08525 -70.204183 
L 94.304341 -70.204183 
L 88.523432 -69.792772 
L 82.742523 -69.347606 
L 76.961614 -68.180467 
L 71.180705 -66.952052 
L 65.399795 -63.652171 
L 59.618886 -59.855045 
L 53.837977 -48.999091 
z
" style="stroke: #ff7f0e; stroke-opacity: 0.2; stroke-width: 0.5"/>
    </defs>
    <g clip-path="url(#p147867bc75)">
     <use xlink:href="#mf69dd94554" x="0" y="118.078438" style="fill: #ff7f0e; fill-opacity: 0.2; stroke: #ff7f0e; stroke-opacity: 0.2; stroke-width: 0.5"/>
    </g>
   </g>
   <g id="matplotlib.axis_1">
    <g id="xtick_1">
     <g id="line2d_1">
      <path d="M 53.837977 71.378438 
L 53.837977 20.798438 
" clip-path="url(#p147867bc75)" style="fill: none; stroke: #b0b0b0; stroke-width: 0.8; stroke-linecap: square"/>
     </g>
     <g id="line2d_2">
      <defs>
       <path id="mb6d41dfc3e" d="M 0 0 
L 0 -3.5 
" style="stroke: #000000; stroke-width: 0.8"/>
      </defs>
      <g>
       <use xlink:href="#mb6d41dfc3e" x="53.837977" y="71.378438" style="stroke: #000000; stroke-width: 0.8"/>
      </g>
     </g>
     <g id="text_1">
      <!-- 0 -->
      <g transform="translate(51.292977 80.957188) scale(0.08 -0.08)">
       <defs>
        <path id="DejaVuSans-30" d="M 2034 4250 
Q 1547 4250 1301 3770 
Q 1056 3291 1056 2328 
Q 1056 1369 1301 889 
Q 1547 409 2034 409 
Q 2525 409 2770 889 
Q 3016 1369 3016 2328 
Q 3016 3291 2770 3770 
Q 2525 4250 2034 4250 
z
M 2034 4750 
Q 2819 4750 3233 4129 
Q 3647 3509 3647 2328 
Q 3647 1150 3233 529 
Q 2819 -91 2034 -91 
Q 1250 -91 836 529 
Q 422 1150 422 2328 
Q 422 3509 836 4129 
Q 1250 4750 2034 4750 
z
" transform="scale(0.015625)"/>
       </defs>
       <use xlink:href="#DejaVuSans-30"/>
      </g>
     </g>
    </g>
    <g id="xtick_2">
     <g id="line2d_3">
      <path d="M 82.742523 71.378438 
L 82.742523 20.798438 
" clip-path="url(#p147867bc75)" style="fill: none; stroke: #b0b0b0; stroke-width: 0.8; stroke-linecap: square"/>
     </g>
     <g id="line2d_4">
      <g>
       <use xlink:href="#mb6d41dfc3e" x="82.742523" y="71.378438" style="stroke: #000000; stroke-width: 0.8"/>
      </g>
     </g>
     <g id="text_2">
      <!-- 5 -->
      <g transform="translate(80.197523 80.957188) scale(0.08 -0.08)">
       <defs>
        <path id="DejaVuSans-35" d="M 691 4666 
L 3169 4666 
L 3169 4134 
L 1269 4134 
L 1269 2991 
Q 1406 3038 1543 3061 
Q 1681 3084 1819 3084 
Q 2600 3084 3056 2656 
Q 3513 2228 3513 1497 
Q 3513 744 3044 326 
Q 2575 -91 1722 -91 
Q 1428 -91 1123 -41 
Q 819 9 494 109 
L 494 744 
Q 775 591 1075 516 
Q 1375 441 1709 441 
Q 2250 441 2565 725 
Q 2881 1009 2881 1497 
Q 2881 1984 2565 2268 
Q 2250 2553 1709 2553 
Q 1456 2553 1204 2497 
Q 953 2441 691 2322 
L 691 4666 
z
" transform="scale(0.015625)"/>
       </defs>
       <use xlink:href="#DejaVuSans-35"/>
      </g>
     </g>
    </g>
    <g id="xtick_3">
     <g id="line2d_5">
      <path d="M 111.647068 71.378438 
L 111.647068 20.798438 
" clip-path="url(#p147867bc75)" style="fill: none; stroke: #b0b0b0; stroke-width: 0.8; stroke-linecap: square"/>
     </g>
     <g id="line2d_6">
      <g>
       <use xlink:href="#mb6d41dfc3e" x="111.647068" y="71.378438" style="stroke: #000000; stroke-width: 0.8"/>
      </g>
     </g>
     <g id="text_3">
      <!-- 10 -->
      <g transform="translate(106.557068 80.957188) scale(0.08 -0.08)">
       <defs>
        <path id="DejaVuSans-31" d="M 794 531 
L 1825 531 
L 1825 4091 
L 703 3866 
L 703 4441 
L 1819 4666 
L 2450 4666 
L 2450 531 
L 3481 531 
L 3481 0 
L 794 0 
L 794 531 
z
" transform="scale(0.015625)"/>
       </defs>
       <use xlink:href="#DejaVuSans-31"/>
       <use xlink:href="#DejaVuSans-30" x="63.623047"/>
      </g>
     </g>
    </g>
    <g id="xtick_4">
     <g id="line2d_7">
      <path d="M 140.551614 71.378438 
L 140.551614 20.798438 
" clip-path="url(#p147867bc75)" style="fill: none; stroke: #b0b0b0; stroke-width: 0.8; stroke-linecap: square"/>
     </g>
     <g id="line2d_8">
      <g>
       <use xlink:href="#mb6d41dfc3e" x="140.551614" y="71.378438" style="stroke: #000000; stroke-width: 0.8"/>
      </g>
     </g>
     <g id="text_4">
      <!-- 15 -->
      <g transform="translate(135.461614 80.957188) scale(0.08 -0.08)">
       <use xlink:href="#DejaVuSans-31"/>
       <use xlink:href="#DejaVuSans-35" x="63.623047"/>
      </g>
     </g>
    </g>
    <g id="text_5">
     <!-- no. iterations -->
     <g transform="translate(73.648375 92.699688) scale(0.08 -0.08)">
      <defs>
       <path id="DejaVuSans-6e" d="M 3513 2113 
L 3513 0 
L 2938 0 
L 2938 2094 
Q 2938 2591 2744 2837 
Q 2550 3084 2163 3084 
Q 1697 3084 1428 2787 
Q 1159 2491 1159 1978 
L 1159 0 
L 581 0 
L 581 3500 
L 1159 3500 
L 1159 2956 
Q 1366 3272 1645 3428 
Q 1925 3584 2291 3584 
Q 2894 3584 3203 3211 
Q 3513 2838 3513 2113 
z
" transform="scale(0.015625)"/>
       <path id="DejaVuSans-6f" d="M 1959 3097 
Q 1497 3097 1228 2736 
Q 959 2375 959 1747 
Q 959 1119 1226 758 
Q 1494 397 1959 397 
Q 2419 397 2687 759 
Q 2956 1122 2956 1747 
Q 2956 2369 2687 2733 
Q 2419 3097 1959 3097 
z
M 1959 3584 
Q 2709 3584 3137 3096 
Q 3566 2609 3566 1747 
Q 3566 888 3137 398 
Q 2709 -91 1959 -91 
Q 1206 -91 779 398 
Q 353 888 353 1747 
Q 353 2609 779 3096 
Q 1206 3584 1959 3584 
z
" transform="scale(0.015625)"/>
       <path id="DejaVuSans-2e" d="M 684 794 
L 1344 794 
L 1344 0 
L 684 0 
L 684 794 
z
" transform="scale(0.015625)"/>
       <path id="DejaVuSans-20" transform="scale(0.015625)"/>
       <path id="DejaVuSans-69" d="M 603 3500 
L 1178 3500 
L 1178 0 
L 603 0 
L 603 3500 
z
M 603 4863 
L 1178 4863 
L 1178 4134 
L 603 4134 
L 603 4863 
z
" transform="scale(0.015625)"/>
       <path id="DejaVuSans-74" d="M 1172 4494 
L 1172 3500 
L 2356 3500 
L 2356 3053 
L 1172 3053 
L 1172 1153 
Q 1172 725 1289 603 
Q 1406 481 1766 481 
L 2356 481 
L 2356 0 
L 1766 0 
Q 1100 0 847 248 
Q 594 497 594 1153 
L 594 3053 
L 172 3053 
L 172 3500 
L 594 3500 
L 594 4494 
L 1172 4494 
z
" transform="scale(0.015625)"/>
       <path id="DejaVuSans-65" d="M 3597 1894 
L 3597 1613 
L 953 1613 
Q 991 1019 1311 708 
Q 1631 397 2203 397 
Q 2534 397 2845 478 
Q 3156 559 3463 722 
L 3463 178 
Q 3153 47 2828 -22 
Q 2503 -91 2169 -91 
Q 1331 -91 842 396 
Q 353 884 353 1716 
Q 353 2575 817 3079 
Q 1281 3584 2069 3584 
Q 2775 3584 3186 3129 
Q 3597 2675 3597 1894 
z
M 3022 2063 
Q 3016 2534 2758 2815 
Q 2500 3097 2075 3097 
Q 1594 3097 1305 2825 
Q 1016 2553 972 2059 
L 3022 2063 
z
" transform="scale(0.015625)"/>
       <path id="DejaVuSans-72" d="M 2631 2963 
Q 2534 3019 2420 3045 
Q 2306 3072 2169 3072 
Q 1681 3072 1420 2755 
Q 1159 2438 1159 1844 
L 1159 0 
L 581 0 
L 581 3500 
L 1159 3500 
L 1159 2956 
Q 1341 3275 1631 3429 
Q 1922 3584 2338 3584 
Q 2397 3584 2469 3576 
Q 2541 3569 2628 3553 
L 2631 2963 
z
" transform="scale(0.015625)"/>
       <path id="DejaVuSans-61" d="M 2194 1759 
Q 1497 1759 1228 1600 
Q 959 1441 959 1056 
Q 959 750 1161 570 
Q 1363 391 1709 391 
Q 2188 391 2477 730 
Q 2766 1069 2766 1631 
L 2766 1759 
L 2194 1759 
z
M 3341 1997 
L 3341 0 
L 2766 0 
L 2766 531 
Q 2569 213 2275 61 
Q 1981 -91 1556 -91 
Q 1019 -91 701 211 
Q 384 513 384 1019 
Q 384 1609 779 1909 
Q 1175 2209 1959 2209 
L 2766 2209 
L 2766 2266 
Q 2766 2663 2505 2880 
Q 2244 3097 1772 3097 
Q 1472 3097 1187 3025 
Q 903 2953 641 2809 
L 641 3341 
Q 956 3463 1253 3523 
Q 1550 3584 1831 3584 
Q 2591 3584 2966 3190 
Q 3341 2797 3341 1997 
z
" transform="scale(0.015625)"/>
       <path id="DejaVuSans-73" d="M 2834 3397 
L 2834 2853 
Q 2591 2978 2328 3040 
Q 2066 3103 1784 3103 
Q 1356 3103 1142 2972 
Q 928 2841 928 2578 
Q 928 2378 1081 2264 
Q 1234 2150 1697 2047 
L 1894 2003 
Q 2506 1872 2764 1633 
Q 3022 1394 3022 966 
Q 3022 478 2636 193 
Q 2250 -91 1575 -91 
Q 1294 -91 989 -36 
Q 684 19 347 128 
L 347 722 
Q 666 556 975 473 
Q 1284 391 1588 391 
Q 1994 391 2212 530 
Q 2431 669 2431 922 
Q 2431 1156 2273 1281 
Q 2116 1406 1581 1522 
L 1381 1569 
Q 847 1681 609 1914 
Q 372 2147 372 2553 
Q 372 3047 722 3315 
Q 1072 3584 1716 3584 
Q 2034 3584 2315 3537 
Q 2597 3491 2834 3397 
z
" transform="scale(0.015625)"/>
      </defs>
      <use xlink:href="#DejaVuSans-6e"/>
      <use xlink:href="#DejaVuSans-6f" x="63.378906"/>
      <use xlink:href="#DejaVuSans-2e" x="122.810547"/>
      <use xlink:href="#DejaVuSans-20" x="154.597656"/>
      <use xlink:href="#DejaVuSans-69" x="186.384766"/>
      <use xlink:href="#DejaVuSans-74" x="214.167969"/>
      <use xlink:href="#DejaVuSans-65" x="253.376953"/>
      <use xlink:href="#DejaVuSans-72" x="314.900391"/>
      <use xlink:href="#DejaVuSans-61" x="356.013672"/>
      <use xlink:href="#DejaVuSans-74" x="417.292969"/>
      <use xlink:href="#DejaVuSans-69" x="456.501953"/>
      <use xlink:href="#DejaVuSans-6f" x="484.285156"/>
      <use xlink:href="#DejaVuSans-6e" x="545.466797"/>
      <use xlink:href="#DejaVuSans-73" x="608.845703"/>
     </g>
    </g>
   </g>
   <g id="matplotlib.axis_2">
    <g id="ytick_1">
     <g id="line2d_9">
      <path d="M 49.21325 58.289952 
L 150.95725 58.289952 
" clip-path="url(#p147867bc75)" style="fill: none; stroke: #b0b0b0; stroke-width: 0.8; stroke-linecap: square"/>
     </g>
     <g id="line2d_10">
      <defs>
       <path id="m2cd0d02f1c" d="M 0 0 
L 3.5 0 
" style="stroke: #000000; stroke-width: 0.8"/>
      </defs>
      <g>
       <use xlink:href="#m2cd0d02f1c" x="49.21325" y="58.289952" style="stroke: #000000; stroke-width: 0.8"/>
      </g>
     </g>
     <g id="text_6">
      <!-- 0.75 -->
      <g transform="translate(27.90075 61.329327) scale(0.08 -0.08)">
       <defs>
        <path id="DejaVuSans-37" d="M 525 4666 
L 3525 4666 
L 3525 4397 
L 1831 0 
L 1172 0 
L 2766 4134 
L 525 4134 
L 525 4666 
z
" transform="scale(0.015625)"/>
       </defs>
       <use xlink:href="#DejaVuSans-30"/>
       <use xlink:href="#DejaVuSans-2e" x="63.623047"/>
       <use xlink:href="#DejaVuSans-37" x="95.410156"/>
       <use xlink:href="#DejaVuSans-35" x="159.033203"/>
      </g>
     </g>
    </g>
    <g id="ytick_2">
     <g id="line2d_11">
      <path d="M 49.21325 41.655739 
L 150.95725 41.655739 
" clip-path="url(#p147867bc75)" style="fill: none; stroke: #b0b0b0; stroke-width: 0.8; stroke-linecap: square"/>
     </g>
     <g id="line2d_12">
      <g>
       <use xlink:href="#m2cd0d02f1c" x="49.21325" y="41.655739" style="stroke: #000000; stroke-width: 0.8"/>
      </g>
     </g>
     <g id="text_7">
      <!-- 1.00 -->
      <g transform="translate(27.90075 44.695114) scale(0.08 -0.08)">
       <use xlink:href="#DejaVuSans-31"/>
       <use xlink:href="#DejaVuSans-2e" x="63.623047"/>
       <use xlink:href="#DejaVuSans-30" x="95.410156"/>
       <use xlink:href="#DejaVuSans-30" x="159.033203"/>
      </g>
     </g>
    </g>
    <g id="ytick_3">
     <g id="line2d_13">
      <path d="M 49.21325 25.021525 
L 150.95725 25.021525 
" clip-path="url(#p147867bc75)" style="fill: none; stroke: #b0b0b0; stroke-width: 0.8; stroke-linecap: square"/>
     </g>
     <g id="line2d_14">
      <g>
       <use xlink:href="#m2cd0d02f1c" x="49.21325" y="25.021525" style="stroke: #000000; stroke-width: 0.8"/>
      </g>
     </g>
     <g id="text_8">
      <!-- 1.25 -->
      <g transform="translate(27.90075 28.0609) scale(0.08 -0.08)">
       <defs>
        <path id="DejaVuSans-32" d="M 1228 531 
L 3431 531 
L 3431 0 
L 469 0 
L 469 531 
Q 828 903 1448 1529 
Q 2069 2156 2228 2338 
Q 2531 2678 2651 2914 
Q 2772 3150 2772 3378 
Q 2772 3750 2511 3984 
Q 2250 4219 1831 4219 
Q 1534 4219 1204 4116 
Q 875 4013 500 3803 
L 500 4441 
Q 881 4594 1212 4672 
Q 1544 4750 1819 4750 
Q 2544 4750 2975 4387 
Q 3406 4025 3406 3419 
Q 3406 3131 3298 2873 
Q 3191 2616 2906 2266 
Q 2828 2175 2409 1742 
Q 1991 1309 1228 531 
z
" transform="scale(0.015625)"/>
       </defs>
       <use xlink:href="#DejaVuSans-31"/>
       <use xlink:href="#DejaVuSans-2e" x="63.623047"/>
       <use xlink:href="#DejaVuSans-32" x="95.410156"/>
       <use xlink:href="#DejaVuSans-35" x="159.033203"/>
      </g>
     </g>
    </g>
    <g id="text_9">
     <!-- Cumulative  -->
     <g transform="translate(13.27875 70.189688) rotate(-90) scale(0.08 -0.08)">
      <defs>
       <path id="DejaVuSans-43" d="M 4122 4306 
L 4122 3641 
Q 3803 3938 3442 4084 
Q 3081 4231 2675 4231 
Q 1875 4231 1450 3742 
Q 1025 3253 1025 2328 
Q 1025 1406 1450 917 
Q 1875 428 2675 428 
Q 3081 428 3442 575 
Q 3803 722 4122 1019 
L 4122 359 
Q 3791 134 3420 21 
Q 3050 -91 2638 -91 
Q 1578 -91 968 557 
Q 359 1206 359 2328 
Q 359 3453 968 4101 
Q 1578 4750 2638 4750 
Q 3056 4750 3426 4639 
Q 3797 4528 4122 4306 
z
" transform="scale(0.015625)"/>
       <path id="DejaVuSans-75" d="M 544 1381 
L 544 3500 
L 1119 3500 
L 1119 1403 
Q 1119 906 1312 657 
Q 1506 409 1894 409 
Q 2359 409 2629 706 
Q 2900 1003 2900 1516 
L 2900 3500 
L 3475 3500 
L 3475 0 
L 2900 0 
L 2900 538 
Q 2691 219 2414 64 
Q 2138 -91 1772 -91 
Q 1169 -91 856 284 
Q 544 659 544 1381 
z
M 1991 3584 
L 1991 3584 
z
" transform="scale(0.015625)"/>
       <path id="DejaVuSans-6d" d="M 3328 2828 
Q 3544 3216 3844 3400 
Q 4144 3584 4550 3584 
Q 5097 3584 5394 3201 
Q 5691 2819 5691 2113 
L 5691 0 
L 5113 0 
L 5113 2094 
Q 5113 2597 4934 2840 
Q 4756 3084 4391 3084 
Q 3944 3084 3684 2787 
Q 3425 2491 3425 1978 
L 3425 0 
L 2847 0 
L 2847 2094 
Q 2847 2600 2669 2842 
Q 2491 3084 2119 3084 
Q 1678 3084 1418 2786 
Q 1159 2488 1159 1978 
L 1159 0 
L 581 0 
L 581 3500 
L 1159 3500 
L 1159 2956 
Q 1356 3278 1631 3431 
Q 1906 3584 2284 3584 
Q 2666 3584 2933 3390 
Q 3200 3197 3328 2828 
z
" transform="scale(0.015625)"/>
       <path id="DejaVuSans-6c" d="M 603 4863 
L 1178 4863 
L 1178 0 
L 603 0 
L 603 4863 
z
" transform="scale(0.015625)"/>
       <path id="DejaVuSans-76" d="M 191 3500 
L 800 3500 
L 1894 563 
L 2988 3500 
L 3597 3500 
L 2284 0 
L 1503 0 
L 191 3500 
z
" transform="scale(0.015625)"/>
      </defs>
      <use xlink:href="#DejaVuSans-43"/>
      <use xlink:href="#DejaVuSans-75" x="69.824219"/>
      <use xlink:href="#DejaVuSans-6d" x="133.203125"/>
      <use xlink:href="#DejaVuSans-75" x="230.615234"/>
      <use xlink:href="#DejaVuSans-6c" x="293.994141"/>
      <use xlink:href="#DejaVuSans-61" x="321.777344"/>
      <use xlink:href="#DejaVuSans-74" x="383.056641"/>
      <use xlink:href="#DejaVuSans-69" x="422.265625"/>
      <use xlink:href="#DejaVuSans-76" x="450.048828"/>
      <use xlink:href="#DejaVuSans-65" x="509.228516"/>
      <use xlink:href="#DejaVuSans-20" x="570.751953"/>
     </g>
     <!--  Regret -->
     <g transform="translate(22.237 60.543438) rotate(-90) scale(0.08 -0.08)">
      <defs>
       <path id="DejaVuSans-52" d="M 2841 2188 
Q 3044 2119 3236 1894 
Q 3428 1669 3622 1275 
L 4263 0 
L 3584 0 
L 2988 1197 
Q 2756 1666 2539 1819 
Q 2322 1972 1947 1972 
L 1259 1972 
L 1259 0 
L 628 0 
L 628 4666 
L 2053 4666 
Q 2853 4666 3247 4331 
Q 3641 3997 3641 3322 
Q 3641 2881 3436 2590 
Q 3231 2300 2841 2188 
z
M 1259 4147 
L 1259 2491 
L 2053 2491 
Q 2509 2491 2742 2702 
Q 2975 2913 2975 3322 
Q 2975 3731 2742 3939 
Q 2509 4147 2053 4147 
L 1259 4147 
z
" transform="scale(0.015625)"/>
       <path id="DejaVuSans-67" d="M 2906 1791 
Q 2906 2416 2648 2759 
Q 2391 3103 1925 3103 
Q 1463 3103 1205 2759 
Q 947 2416 947 1791 
Q 947 1169 1205 825 
Q 1463 481 1925 481 
Q 2391 481 2648 825 
Q 2906 1169 2906 1791 
z
M 3481 434 
Q 3481 -459 3084 -895 
Q 2688 -1331 1869 -1331 
Q 1566 -1331 1297 -1286 
Q 1028 -1241 775 -1147 
L 775 -588 
Q 1028 -725 1275 -790 
Q 1522 -856 1778 -856 
Q 2344 -856 2625 -561 
Q 2906 -266 2906 331 
L 2906 616 
Q 2728 306 2450 153 
Q 2172 0 1784 0 
Q 1141 0 747 490 
Q 353 981 353 1791 
Q 353 2603 747 3093 
Q 1141 3584 1784 3584 
Q 2172 3584 2450 3431 
Q 2728 3278 2906 2969 
L 2906 3500 
L 3481 3500 
L 3481 434 
z
" transform="scale(0.015625)"/>
      </defs>
      <use xlink:href="#DejaVuSans-20"/>
      <use xlink:href="#DejaVuSans-52" x="31.787109"/>
      <use xlink:href="#DejaVuSans-65" x="96.769531"/>
      <use xlink:href="#DejaVuSans-67" x="158.292969"/>
      <use xlink:href="#DejaVuSans-72" x="221.769531"/>
      <use xlink:href="#DejaVuSans-65" x="260.632812"/>
      <use xlink:href="#DejaVuSans-74" x="322.15625"/>
     </g>
    </g>
   </g>
   <g id="line2d_15">
    <path d="M 53.837977 69.079347 
L 59.618886 52.627711 
L 65.399795 40.575011 
L 71.180705 35.379486 
L 76.961614 31.433819 
L 82.742523 29.31977 
L 88.523432 28.676442 
L 94.304341 28.033114 
L 100.08525 27.708692 
L 105.866159 27.687284 
L 111.647068 27.665876 
L 117.427977 27.644467 
L 123.208886 27.623059 
L 128.989795 27.623059 
L 134.770705 27.623059 
L 140.551614 27.623059 
L 146.332523 27.623059 
" clip-path="url(#p147867bc75)" style="fill: none; stroke: #d62728; stroke-width: 2; stroke-linecap: square"/>
   </g>
   <g id="line2d_16">
    <path d="M 53.837977 69.079347 
L 59.618886 50.366658 
L 65.399795 42.448386 
L 71.180705 35.598476 
L 76.961614 30.708109 
L 82.742523 26.896684 
L 88.523432 23.847847 
L 94.304341 23.524281 
L 100.08525 23.524281 
L 105.866159 23.524281 
L 111.647068 23.524281 
L 117.427977 23.524281 
L 123.208886 23.524281 
L 128.989795 23.524281 
L 134.770705 23.524281 
L 140.551614 23.524281 
L 146.332523 23.524281 
" clip-path="url(#p147867bc75)" style="fill: none; stroke: #2ca02c; stroke-width: 2; stroke-linecap: square"/>
   </g>
   <g id="line2d_17">
    <path d="M 53.837977 69.079347 
L 59.618886 52.65977 
L 65.399795 44.688335 
L 71.180705 42.169209 
L 76.961614 39.730466 
L 82.742523 38.896119 
L 88.523432 38.239934 
L 94.304341 37.760055 
L 100.08525 37.561807 
L 105.866159 37.401499 
L 111.647068 37.293432 
L 117.427977 37.220193 
L 123.208886 37.1767 
L 128.989795 37.133206 
L 134.770705 37.089713 
L 140.551614 37.046219 
L 146.332523 37.035943 
" clip-path="url(#p147867bc75)" style="fill: none; stroke: #1f77b4; stroke-width: 2; stroke-linecap: square"/>
   </g>
   <g id="line2d_18">
    <path d="M 53.837977 69.079347 
L 59.618886 58.223392 
L 65.399795 54.426267 
L 71.180705 51.126386 
L 76.961614 50.333146 
L 82.742523 49.821773 
L 88.523432 49.382597 
L 94.304341 49.068744 
L 100.08525 49.068744 
L 105.866159 49.068744 
L 111.647068 49.068744 
L 117.427977 49.068744 
L 123.208886 49.068744 
L 128.989795 49.068744 
L 134.770705 49.068744 
L 140.551614 49.068744 
L 146.332523 49.068744 
" clip-path="url(#p147867bc75)" style="fill: none; stroke: #ff7f0e; stroke-width: 2; stroke-linecap: square"/>
   </g>
   <g id="patch_3">
    <path d="M 49.21325 71.378438 
L 49.21325 20.798437 
" style="fill: none; stroke: #bcbcbc; stroke-width: 0.8; stroke-linejoin: miter; stroke-linecap: square"/>
   </g>
   <g id="patch_4">
    <path d="M 150.95725 71.378438 
L 150.95725 20.798437 
" style="fill: none; stroke: #bcbcbc; stroke-width: 0.8; stroke-linejoin: miter; stroke-linecap: square"/>
   </g>
   <g id="patch_5">
    <path d="M 49.21325 71.378438 
L 150.95725 71.378438 
" style="fill: none; stroke: #bcbcbc; stroke-width: 0.8; stroke-linejoin: miter; stroke-linecap: square"/>
   </g>
   <g id="patch_6">
    <path d="M 49.21325 20.798438 
L 150.95725 20.798438 
" style="fill: none; stroke: #bcbcbc; stroke-width: 0.8; stroke-linejoin: miter; stroke-linecap: square"/>
   </g>
   <g id="text_10">
    <!-- Many Surfaces -->
    <g transform="translate(63.336812 14.798438) scale(0.1 -0.1)">
     <defs>
      <path id="DejaVuSans-4d" d="M 628 4666 
L 1569 4666 
L 2759 1491 
L 3956 4666 
L 4897 4666 
L 4897 0 
L 4281 0 
L 4281 4097 
L 3078 897 
L 2444 897 
L 1241 4097 
L 1241 0 
L 628 0 
L 628 4666 
z
" transform="scale(0.015625)"/>
      <path id="DejaVuSans-79" d="M 2059 -325 
Q 1816 -950 1584 -1140 
Q 1353 -1331 966 -1331 
L 506 -1331 
L 506 -850 
L 844 -850 
Q 1081 -850 1212 -737 
Q 1344 -625 1503 -206 
L 1606 56 
L 191 3500 
L 800 3500 
L 1894 763 
L 2988 3500 
L 3597 3500 
L 2059 -325 
z
" transform="scale(0.015625)"/>
      <path id="DejaVuSans-53" d="M 3425 4513 
L 3425 3897 
Q 3066 4069 2747 4153 
Q 2428 4238 2131 4238 
Q 1616 4238 1336 4038 
Q 1056 3838 1056 3469 
Q 1056 3159 1242 3001 
Q 1428 2844 1947 2747 
L 2328 2669 
Q 3034 2534 3370 2195 
Q 3706 1856 3706 1288 
Q 3706 609 3251 259 
Q 2797 -91 1919 -91 
Q 1588 -91 1214 -16 
Q 841 59 441 206 
L 441 856 
Q 825 641 1194 531 
Q 1563 422 1919 422 
Q 2459 422 2753 634 
Q 3047 847 3047 1241 
Q 3047 1584 2836 1778 
Q 2625 1972 2144 2069 
L 1759 2144 
Q 1053 2284 737 2584 
Q 422 2884 422 3419 
Q 422 4038 858 4394 
Q 1294 4750 2059 4750 
Q 2388 4750 2728 4690 
Q 3069 4631 3425 4513 
z
" transform="scale(0.015625)"/>
      <path id="DejaVuSans-66" d="M 2375 4863 
L 2375 4384 
L 1825 4384 
Q 1516 4384 1395 4259 
Q 1275 4134 1275 3809 
L 1275 3500 
L 2222 3500 
L 2222 3053 
L 1275 3053 
L 1275 0 
L 697 0 
L 697 3053 
L 147 3053 
L 147 3500 
L 697 3500 
L 697 3744 
Q 697 4328 969 4595 
Q 1241 4863 1831 4863 
L 2375 4863 
z
" transform="scale(0.015625)"/>
      <path id="DejaVuSans-63" d="M 3122 3366 
L 3122 2828 
Q 2878 2963 2633 3030 
Q 2388 3097 2138 3097 
Q 1578 3097 1268 2742 
Q 959 2388 959 1747 
Q 959 1106 1268 751 
Q 1578 397 2138 397 
Q 2388 397 2633 464 
Q 2878 531 3122 666 
L 3122 134 
Q 2881 22 2623 -34 
Q 2366 -91 2075 -91 
Q 1284 -91 818 406 
Q 353 903 353 1747 
Q 353 2603 823 3093 
Q 1294 3584 2113 3584 
Q 2378 3584 2631 3529 
Q 2884 3475 3122 3366 
z
" transform="scale(0.015625)"/>
     </defs>
     <use xlink:href="#DejaVuSans-4d"/>
     <use xlink:href="#DejaVuSans-61" x="86.279297"/>
     <use xlink:href="#DejaVuSans-6e" x="147.558594"/>
     <use xlink:href="#DejaVuSans-79" x="210.9375"/>
     <use xlink:href="#DejaVuSans-20" x="270.117188"/>
     <use xlink:href="#DejaVuSans-53" x="301.904297"/>
     <use xlink:href="#DejaVuSans-75" x="365.380859"/>
     <use xlink:href="#DejaVuSans-72" x="428.759766"/>
     <use xlink:href="#DejaVuSans-66" x="469.873047"/>
     <use xlink:href="#DejaVuSans-61" x="505.078125"/>
     <use xlink:href="#DejaVuSans-63" x="566.357422"/>
     <use xlink:href="#DejaVuSans-65" x="621.337891"/>
     <use xlink:href="#DejaVuSans-73" x="682.861328"/>
    </g>
   </g>
  </g>
  <g id="axes_2">
   <g id="patch_7">
    <path d="M 178.03725 71.378438 
L 279.78125 71.378438 
L 279.78125 20.798438 
L 178.03725 20.798438 
z
" style="fill: #ffffff"/>
   </g>
   <g id="PolyCollection_5">
    <defs>
     <path id="m50dd6756ca" d="M 182.661977 -48.999091 
L 182.661977 -48.999091 
L 188.442886 -69.209678 
L 194.223795 -80.949505 
L 200.004705 -87.783336 
L 205.785614 -93.757965 
L 211.566523 -94.369437 
L 217.347432 -94.980909 
L 223.128341 -94.980909 
L 228.90925 -94.980909 
L 234.690159 -94.980909 
L 240.471068 -94.980909 
L 246.251977 -94.980909 
L 252.032886 -94.980909 
L 257.813795 -94.980909 
L 263.594705 -94.980909 
L 269.375614 -94.980909 
L 275.156523 -94.980909 
L 275.156523 -94.980909 
L 275.156523 -94.980909 
L 269.375614 -94.980909 
L 263.594705 -94.980909 
L 257.813795 -94.980909 
L 252.032886 -94.980909 
L 246.251977 -94.980909 
L 240.471068 -94.980909 
L 234.690159 -94.980909 
L 228.90925 -94.980909 
L 223.128341 -94.980909 
L 217.347432 -94.980909 
L 211.566523 -94.369437 
L 205.785614 -93.757965 
L 200.004705 -87.783336 
L 194.223795 -80.949505 
L 188.442886 -69.209678 
L 182.661977 -48.999091 
z
" style="stroke: #d62728; stroke-opacity: 0.2; stroke-width: 0.5"/>
    </defs>
    <g clip-path="url(#pbf6fa4a04e)">
     <use xlink:href="#m50dd6756ca" x="0" y="118.078438" style="fill: #d62728; fill-opacity: 0.2; stroke: #d62728; stroke-opacity: 0.2; stroke-width: 0.5"/>
    </g>
   </g>
   <g id="PolyCollection_6">
    <defs>
     <path id="mdeae03fbc7" d="M 182.661977 -48.999091 
L 182.661977 -48.999091 
L 188.442886 -64.83915 
L 194.223795 -74.133114 
L 200.004705 -80.613238 
L 205.785614 -86.85738 
L 211.566523 -89.260663 
L 217.347432 -89.268843 
L 223.128341 -89.268843 
L 228.90925 -89.268843 
L 234.690159 -89.268843 
L 240.471068 -89.268843 
L 246.251977 -89.268843 
L 252.032886 -89.268843 
L 257.813795 -89.268843 
L 263.594705 -89.268843 
L 269.375614 -89.268843 
L 275.156523 -89.268843 
L 275.156523 -89.268843 
L 275.156523 -89.268843 
L 269.375614 -89.268843 
L 263.594705 -89.268843 
L 257.813795 -89.268843 
L 252.032886 -89.268843 
L 246.251977 -89.268843 
L 240.471068 -89.268843 
L 234.690159 -89.268843 
L 228.90925 -89.268843 
L 223.128341 -89.268843 
L 217.347432 -89.268843 
L 211.566523 -89.260663 
L 205.785614 -86.85738 
L 200.004705 -80.613238 
L 194.223795 -74.133114 
L 188.442886 -64.83915 
L 182.661977 -48.999091 
z
" style="stroke: #2ca02c; stroke-opacity: 0.2; stroke-width: 0.5"/>
    </defs>
    <g clip-path="url(#pbf6fa4a04e)">
     <use xlink:href="#mdeae03fbc7" x="0" y="118.078438" style="fill: #2ca02c; fill-opacity: 0.2; stroke: #2ca02c; stroke-opacity: 0.2; stroke-width: 0.5"/>
    </g>
   </g>
   <g id="PolyCollection_7">
    <defs>
     <path id="mec5b077851" d="M 182.661977 -48.999091 
L 182.661977 -48.999091 
L 188.442886 -63.744793 
L 194.223795 -68.494306 
L 200.004705 -72.44946 
L 205.785614 -73.885234 
L 211.566523 -74.421161 
L 217.347432 -74.650986 
L 223.128341 -74.865004 
L 228.90925 -74.907807 
L 234.690159 -74.950611 
L 240.471068 -74.950611 
L 246.251977 -74.950611 
L 252.032886 -74.950611 
L 257.813795 -74.950611 
L 263.594705 -74.950611 
L 269.375614 -74.950611 
L 275.156523 -74.950611 
L 275.156523 -79.268165 
L 275.156523 -79.268165 
L 269.375614 -79.268165 
L 263.594705 -79.268165 
L 257.813795 -79.268165 
L 252.032886 -79.268165 
L 246.251977 -79.268165 
L 240.471068 -79.268165 
L 234.690159 -79.268165 
L 228.90925 -79.054147 
L 223.128341 -78.877814 
L 217.347432 -78.625283 
L 211.566523 -78.346721 
L 205.785614 -77.738049 
L 200.004705 -76.045034 
L 194.223795 -71.766478 
L 188.442886 -65.898693 
L 182.661977 -48.999091 
z
" style="stroke: #1f77b4; stroke-opacity: 0.2; stroke-width: 0.5"/>
    </defs>
    <g clip-path="url(#pbf6fa4a04e)">
     <use xlink:href="#mec5b077851" x="0" y="118.078438" style="fill: #1f77b4; fill-opacity: 0.2; stroke: #1f77b4; stroke-opacity: 0.2; stroke-width: 0.5"/>
    </g>
   </g>
   <g id="PolyCollection_8">
    <defs>
     <path id="md43ea4ae81" d="M 182.661977 -48.999091 
L 182.661977 -48.999091 
L 188.442886 -58.066589 
L 194.223795 -62.973505 
L 200.004705 -64.244548 
L 205.785614 -64.550651 
L 211.566523 -64.856754 
L 217.347432 -65.162857 
L 223.128341 -65.460781 
L 228.90925 -65.460781 
L 234.690159 -65.460781 
L 240.471068 -65.460781 
L 246.251977 -65.460781 
L 252.032886 -65.460781 
L 257.813795 -65.460781 
L 263.594705 -65.460781 
L 269.375614 -65.460781 
L 275.156523 -65.460781 
L 275.156523 -68.699205 
L 275.156523 -68.699205 
L 269.375614 -68.699205 
L 263.594705 -68.699205 
L 257.813795 -68.699205 
L 252.032886 -68.699205 
L 246.251977 -68.699205 
L 240.471068 -68.699205 
L 234.690159 -68.699205 
L 228.90925 -68.699205 
L 223.128341 -68.699205 
L 217.347432 -68.401282 
L 211.566523 -68.095179 
L 205.785614 -67.789076 
L 200.004705 -67.482973 
L 194.223795 -65.802513 
L 188.442886 -60.689331 
L 182.661977 -48.999091 
z
" style="stroke: #ff7f0e; stroke-opacity: 0.2; stroke-width: 0.5"/>
    </defs>
    <g clip-path="url(#pbf6fa4a04e)">
     <use xlink:href="#md43ea4ae81" x="0" y="118.078438" style="fill: #ff7f0e; fill-opacity: 0.2; stroke: #ff7f0e; stroke-opacity: 0.2; stroke-width: 0.5"/>
    </g>
   </g>
   <g id="matplotlib.axis_3">
    <g id="xtick_5">
     <g id="line2d_19">
      <path d="M 182.661977 71.378438 
L 182.661977 20.798438 
" clip-path="url(#pbf6fa4a04e)" style="fill: none; stroke: #b0b0b0; stroke-width: 0.8; stroke-linecap: square"/>
     </g>
     <g id="line2d_20">
      <g>
       <use xlink:href="#mb6d41dfc3e" x="182.661977" y="71.378438" style="stroke: #000000; stroke-width: 0.8"/>
      </g>
     </g>
     <g id="text_11">
      <!-- 0 -->
      <g transform="translate(180.116977 80.957188) scale(0.08 -0.08)">
       <use xlink:href="#DejaVuSans-30"/>
      </g>
     </g>
    </g>
    <g id="xtick_6">
     <g id="line2d_21">
      <path d="M 211.566523 71.378438 
L 211.566523 20.798438 
" clip-path="url(#pbf6fa4a04e)" style="fill: none; stroke: #b0b0b0; stroke-width: 0.8; stroke-linecap: square"/>
     </g>
     <g id="line2d_22">
      <g>
       <use xlink:href="#mb6d41dfc3e" x="211.566523" y="71.378438" style="stroke: #000000; stroke-width: 0.8"/>
      </g>
     </g>
     <g id="text_12">
      <!-- 5 -->
      <g transform="translate(209.021523 80.957188) scale(0.08 -0.08)">
       <use xlink:href="#DejaVuSans-35"/>
      </g>
     </g>
    </g>
    <g id="xtick_7">
     <g id="line2d_23">
      <path d="M 240.471068 71.378438 
L 240.471068 20.798438 
" clip-path="url(#pbf6fa4a04e)" style="fill: none; stroke: #b0b0b0; stroke-width: 0.8; stroke-linecap: square"/>
     </g>
     <g id="line2d_24">
      <g>
       <use xlink:href="#mb6d41dfc3e" x="240.471068" y="71.378438" style="stroke: #000000; stroke-width: 0.8"/>
      </g>
     </g>
     <g id="text_13">
      <!-- 10 -->
      <g transform="translate(235.381068 80.957188) scale(0.08 -0.08)">
       <use xlink:href="#DejaVuSans-31"/>
       <use xlink:href="#DejaVuSans-30" x="63.623047"/>
      </g>
     </g>
    </g>
    <g id="xtick_8">
     <g id="line2d_25">
      <path d="M 269.375614 71.378438 
L 269.375614 20.798438 
" clip-path="url(#pbf6fa4a04e)" style="fill: none; stroke: #b0b0b0; stroke-width: 0.8; stroke-linecap: square"/>
     </g>
     <g id="line2d_26">
      <g>
       <use xlink:href="#mb6d41dfc3e" x="269.375614" y="71.378438" style="stroke: #000000; stroke-width: 0.8"/>
      </g>
     </g>
     <g id="text_14">
      <!-- 15 -->
      <g transform="translate(264.285614 80.957188) scale(0.08 -0.08)">
       <use xlink:href="#DejaVuSans-31"/>
       <use xlink:href="#DejaVuSans-35" x="63.623047"/>
      </g>
     </g>
    </g>
    <g id="text_15">
     <!-- no. iterations -->
     <g transform="translate(202.472375 92.699688) scale(0.08 -0.08)">
      <use xlink:href="#DejaVuSans-6e"/>
      <use xlink:href="#DejaVuSans-6f" x="63.378906"/>
      <use xlink:href="#DejaVuSans-2e" x="122.810547"/>
      <use xlink:href="#DejaVuSans-20" x="154.597656"/>
      <use xlink:href="#DejaVuSans-69" x="186.384766"/>
      <use xlink:href="#DejaVuSans-74" x="214.167969"/>
      <use xlink:href="#DejaVuSans-65" x="253.376953"/>
      <use xlink:href="#DejaVuSans-72" x="314.900391"/>
      <use xlink:href="#DejaVuSans-61" x="356.013672"/>
      <use xlink:href="#DejaVuSans-74" x="417.292969"/>
      <use xlink:href="#DejaVuSans-69" x="456.501953"/>
      <use xlink:href="#DejaVuSans-6f" x="484.285156"/>
      <use xlink:href="#DejaVuSans-6e" x="545.466797"/>
      <use xlink:href="#DejaVuSans-73" x="608.845703"/>
     </g>
    </g>
   </g>
   <g id="matplotlib.axis_4">
    <g id="ytick_4">
     <g id="line2d_27">
      <path d="M 178.03725 58.471207 
L 279.78125 58.471207 
" clip-path="url(#pbf6fa4a04e)" style="fill: none; stroke: #b0b0b0; stroke-width: 0.8; stroke-linecap: square"/>
     </g>
     <g id="line2d_28">
      <g>
       <use xlink:href="#m2cd0d02f1c" x="178.03725" y="58.471207" style="stroke: #000000; stroke-width: 0.8"/>
      </g>
     </g>
     <g id="text_16">
      <!-- 0.75 -->
      <g transform="translate(156.72475 61.510582) scale(0.08 -0.08)">
       <use xlink:href="#DejaVuSans-30"/>
       <use xlink:href="#DejaVuSans-2e" x="63.623047"/>
       <use xlink:href="#DejaVuSans-37" x="95.410156"/>
       <use xlink:href="#DejaVuSans-35" x="159.033203"/>
      </g>
     </g>
    </g>
    <g id="ytick_5">
     <g id="line2d_29">
      <path d="M 178.03725 42.116438 
L 279.78125 42.116438 
" clip-path="url(#pbf6fa4a04e)" style="fill: none; stroke: #b0b0b0; stroke-width: 0.8; stroke-linecap: square"/>
     </g>
     <g id="line2d_30">
      <g>
       <use xlink:href="#m2cd0d02f1c" x="178.03725" y="42.116438" style="stroke: #000000; stroke-width: 0.8"/>
      </g>
     </g>
     <g id="text_17">
      <!-- 1.00 -->
      <g transform="translate(156.72475 45.155813) scale(0.08 -0.08)">
       <use xlink:href="#DejaVuSans-31"/>
       <use xlink:href="#DejaVuSans-2e" x="63.623047"/>
       <use xlink:href="#DejaVuSans-30" x="95.410156"/>
       <use xlink:href="#DejaVuSans-30" x="159.033203"/>
      </g>
     </g>
    </g>
    <g id="ytick_6">
     <g id="line2d_31">
      <path d="M 178.03725 25.761668 
L 279.78125 25.761668 
" clip-path="url(#pbf6fa4a04e)" style="fill: none; stroke: #b0b0b0; stroke-width: 0.8; stroke-linecap: square"/>
     </g>
     <g id="line2d_32">
      <g>
       <use xlink:href="#m2cd0d02f1c" x="178.03725" y="25.761668" style="stroke: #000000; stroke-width: 0.8"/>
      </g>
     </g>
     <g id="text_18">
      <!-- 1.25 -->
      <g transform="translate(156.72475 28.801043) scale(0.08 -0.08)">
       <use xlink:href="#DejaVuSans-31"/>
       <use xlink:href="#DejaVuSans-2e" x="63.623047"/>
       <use xlink:href="#DejaVuSans-32" x="95.410156"/>
       <use xlink:href="#DejaVuSans-35" x="159.033203"/>
      </g>
     </g>
    </g>
   </g>
   <g id="line2d_33">
    <path d="M 182.661977 69.079347 
L 188.442886 48.86876 
L 194.223795 37.128933 
L 200.004705 30.295101 
L 205.785614 24.320473 
L 211.566523 23.709001 
L 217.347432 23.097528 
L 223.128341 23.097528 
L 228.90925 23.097528 
L 234.690159 23.097528 
L 240.471068 23.097528 
L 246.251977 23.097528 
L 252.032886 23.097528 
L 257.813795 23.097528 
L 263.594705 23.097528 
L 269.375614 23.097528 
L 275.156523 23.097528 
" clip-path="url(#pbf6fa4a04e)" style="fill: none; stroke: #d62728; stroke-width: 2; stroke-linecap: square"/>
   </g>
   <g id="line2d_34">
    <path d="M 182.661977 69.079347 
L 188.442886 53.239288 
L 194.223795 43.945324 
L 200.004705 37.4652 
L 205.785614 31.221058 
L 211.566523 28.817774 
L 217.347432 28.809594 
L 223.128341 28.809594 
L 228.90925 28.809594 
L 234.690159 28.809594 
L 240.471068 28.809594 
L 246.251977 28.809594 
L 252.032886 28.809594 
L 257.813795 28.809594 
L 263.594705 28.809594 
L 269.375614 28.809594 
L 275.156523 28.809594 
" clip-path="url(#pbf6fa4a04e)" style="fill: none; stroke: #2ca02c; stroke-width: 2; stroke-linecap: square"/>
   </g>
   <g id="line2d_35">
    <path d="M 182.661977 69.079347 
L 188.442886 52.974683 
L 194.223795 47.451093 
L 200.004705 43.320553 
L 205.785614 41.864133 
L 211.566523 41.300498 
L 217.347432 40.986733 
L 223.128341 40.733608 
L 228.90925 40.682244 
L 234.690159 40.630879 
L 240.471068 40.630879 
L 246.251977 40.630879 
L 252.032886 40.630879 
L 257.813795 40.630879 
L 263.594705 40.630879 
L 269.375614 40.630879 
L 275.156523 40.630879 
" clip-path="url(#pbf6fa4a04e)" style="fill: none; stroke: #1f77b4; stroke-width: 2; stroke-linecap: square"/>
   </g>
   <g id="line2d_36">
    <path d="M 182.661977 69.079347 
L 188.442886 58.661033 
L 194.223795 53.27503 
L 200.004705 52.065357 
L 205.785614 51.711713 
L 211.566523 51.40561 
L 217.347432 51.100489 
L 223.128341 50.802566 
L 228.90925 50.802566 
L 234.690159 50.802566 
L 240.471068 50.802566 
L 246.251977 50.802566 
L 252.032886 50.802566 
L 257.813795 50.802566 
L 263.594705 50.802566 
L 269.375614 50.802566 
L 275.156523 50.802566 
" clip-path="url(#pbf6fa4a04e)" style="fill: none; stroke: #ff7f0e; stroke-width: 2; stroke-linecap: square"/>
   </g>
   <g id="patch_8">
    <path d="M 178.03725 71.378438 
L 178.03725 20.798438 
" style="fill: none; stroke: #bcbcbc; stroke-width: 0.8; stroke-linejoin: miter; stroke-linecap: square"/>
   </g>
   <g id="patch_9">
    <path d="M 279.78125 71.378438 
L 279.78125 20.798438 
" style="fill: none; stroke: #bcbcbc; stroke-width: 0.8; stroke-linejoin: miter; stroke-linecap: square"/>
   </g>
   <g id="patch_10">
    <path d="M 178.03725 71.378438 
L 279.78125 71.378438 
" style="fill: none; stroke: #bcbcbc; stroke-width: 0.8; stroke-linejoin: miter; stroke-linecap: square"/>
   </g>
   <g id="patch_11">
    <path d="M 178.03725 20.798438 
L 279.78125 20.798438 
" style="fill: none; stroke: #bcbcbc; stroke-width: 0.8; stroke-linejoin: miter; stroke-linecap: square"/>
   </g>
   <g id="text_19">
    <!-- One at a Time -->
    <g transform="translate(193.638937 14.798438) scale(0.1 -0.1)">
     <defs>
      <path id="DejaVuSans-4f" d="M 2522 4238 
Q 1834 4238 1429 3725 
Q 1025 3213 1025 2328 
Q 1025 1447 1429 934 
Q 1834 422 2522 422 
Q 3209 422 3611 934 
Q 4013 1447 4013 2328 
Q 4013 3213 3611 3725 
Q 3209 4238 2522 4238 
z
M 2522 4750 
Q 3503 4750 4090 4092 
Q 4678 3434 4678 2328 
Q 4678 1225 4090 567 
Q 3503 -91 2522 -91 
Q 1538 -91 948 565 
Q 359 1222 359 2328 
Q 359 3434 948 4092 
Q 1538 4750 2522 4750 
z
" transform="scale(0.015625)"/>
      <path id="DejaVuSans-54" d="M -19 4666 
L 3928 4666 
L 3928 4134 
L 2272 4134 
L 2272 0 
L 1638 0 
L 1638 4134 
L -19 4134 
L -19 4666 
z
" transform="scale(0.015625)"/>
     </defs>
     <use xlink:href="#DejaVuSans-4f"/>
     <use xlink:href="#DejaVuSans-6e" x="78.710938"/>
     <use xlink:href="#DejaVuSans-65" x="142.089844"/>
     <use xlink:href="#DejaVuSans-20" x="203.613281"/>
     <use xlink:href="#DejaVuSans-61" x="235.400391"/>
     <use xlink:href="#DejaVuSans-74" x="296.679688"/>
     <use xlink:href="#DejaVuSans-20" x="335.888672"/>
     <use xlink:href="#DejaVuSans-61" x="367.675781"/>
     <use xlink:href="#DejaVuSans-20" x="428.955078"/>
     <use xlink:href="#DejaVuSans-54" x="460.742188"/>
     <use xlink:href="#DejaVuSans-69" x="518.701172"/>
     <use xlink:href="#DejaVuSans-6d" x="546.484375"/>
     <use xlink:href="#DejaVuSans-65" x="643.896484"/>
    </g>
   </g>
  </g>
  <g id="legend_1">
   <g id="patch_12">
    <path d="M 34.68125 110.878438 
L 275.76125 110.878438 
Q 277.36125 110.878438 277.36125 109.278438 
L 277.36125 98.335938 
Q 277.36125 96.735938 275.76125 96.735938 
L 34.68125 96.735938 
Q 33.08125 96.735938 33.08125 98.335938 
L 33.08125 109.278438 
Q 33.08125 110.878438 34.68125 110.878438 
z
" style="fill: #ffffff; opacity: 0.8; stroke: #cccccc; stroke-width: 0.5; stroke-linejoin: miter"/>
   </g>
   <g id="line2d_37">
    <path d="M 36.28125 103.214688 
L 44.28125 103.214688 
L 52.28125 103.214688 
" style="fill: none; stroke: #d62728; stroke-width: 2; stroke-linecap: square"/>
   </g>
   <g id="text_20">
    <!-- MOGP -->
    <g transform="translate(58.68125 106.014688) scale(0.08 -0.08)">
     <defs>
      <path id="DejaVuSans-47" d="M 3809 666 
L 3809 1919 
L 2778 1919 
L 2778 2438 
L 4434 2438 
L 4434 434 
Q 4069 175 3628 42 
Q 3188 -91 2688 -91 
Q 1594 -91 976 548 
Q 359 1188 359 2328 
Q 359 3472 976 4111 
Q 1594 4750 2688 4750 
Q 3144 4750 3555 4637 
Q 3966 4525 4313 4306 
L 4313 3634 
Q 3963 3931 3569 4081 
Q 3175 4231 2741 4231 
Q 1884 4231 1454 3753 
Q 1025 3275 1025 2328 
Q 1025 1384 1454 906 
Q 1884 428 2741 428 
Q 3075 428 3337 486 
Q 3600 544 3809 666 
z
" transform="scale(0.015625)"/>
      <path id="DejaVuSans-50" d="M 1259 4147 
L 1259 2394 
L 2053 2394 
Q 2494 2394 2734 2622 
Q 2975 2850 2975 3272 
Q 2975 3691 2734 3919 
Q 2494 4147 2053 4147 
L 1259 4147 
z
M 628 4666 
L 2053 4666 
Q 2838 4666 3239 4311 
Q 3641 3956 3641 3272 
Q 3641 2581 3239 2228 
Q 2838 1875 2053 1875 
L 1259 1875 
L 1259 0 
L 628 0 
L 628 4666 
z
" transform="scale(0.015625)"/>
     </defs>
     <use xlink:href="#DejaVuSans-4d"/>
     <use xlink:href="#DejaVuSans-4f" x="86.279297"/>
     <use xlink:href="#DejaVuSans-47" x="164.990234"/>
     <use xlink:href="#DejaVuSans-50" x="242.480469"/>
    </g>
   </g>
   <g id="line2d_38">
    <path d="M 98.90375 103.214688 
L 106.90375 103.214688 
L 114.90375 103.214688 
" style="fill: none; stroke: #2ca02c; stroke-width: 2; stroke-linecap: square"/>
   </g>
   <g id="text_21">
    <!-- AvgGP -->
    <g transform="translate(121.30375 106.014688) scale(0.08 -0.08)">
     <defs>
      <path id="DejaVuSans-41" d="M 2188 4044 
L 1331 1722 
L 3047 1722 
L 2188 4044 
z
M 1831 4666 
L 2547 4666 
L 4325 0 
L 3669 0 
L 3244 1197 
L 1141 1197 
L 716 0 
L 50 0 
L 1831 4666 
z
" transform="scale(0.015625)"/>
     </defs>
     <use xlink:href="#DejaVuSans-41"/>
     <use xlink:href="#DejaVuSans-76" x="62.533203"/>
     <use xlink:href="#DejaVuSans-67" x="121.712891"/>
     <use xlink:href="#DejaVuSans-47" x="185.189453"/>
     <use xlink:href="#DejaVuSans-50" x="262.679688"/>
    </g>
   </g>
   <g id="line2d_39">
    <path d="M 163.1425 103.214688 
L 171.1425 103.214688 
L 179.1425 103.214688 
" style="fill: none; stroke: #1f77b4; stroke-width: 2; stroke-linecap: square"/>
   </g>
   <g id="text_22">
    <!-- LMC -->
    <g transform="translate(185.5425 106.014688) scale(0.08 -0.08)">
     <defs>
      <path id="DejaVuSans-4c" d="M 628 4666 
L 1259 4666 
L 1259 531 
L 3531 531 
L 3531 0 
L 628 0 
L 628 4666 
z
" transform="scale(0.015625)"/>
     </defs>
     <use xlink:href="#DejaVuSans-4c"/>
     <use xlink:href="#DejaVuSans-4d" x="55.712891"/>
     <use xlink:href="#DejaVuSans-43" x="141.992188"/>
    </g>
   </g>
   <g id="line2d_40">
    <path d="M 218.48875 103.214688 
L 226.48875 103.214688 
L 234.48875 103.214688 
" style="fill: none; stroke: #ff7f0e; stroke-width: 2; stroke-linecap: square"/>
   </g>
   <g id="text_23">
    <!-- LVMOGP -->
    <g transform="translate(240.88875 106.014688) scale(0.08 -0.08)">
     <defs>
      <path id="DejaVuSans-56" d="M 1831 0 
L 50 4666 
L 709 4666 
L 2188 738 
L 3669 4666 
L 4325 4666 
L 2547 0 
L 1831 0 
z
" transform="scale(0.015625)"/>
     </defs>
     <use xlink:href="#DejaVuSans-4c"/>
     <use xlink:href="#DejaVuSans-56" x="44.712891"/>
     <use xlink:href="#DejaVuSans-4d" x="113.121094"/>
     <use xlink:href="#DejaVuSans-4f" x="199.400391"/>
     <use xlink:href="#DejaVuSans-47" x="278.111328"/>
     <use xlink:href="#DejaVuSans-50" x="355.601562"/>
    </g>
   </g>
  </g>
 </g>
 <defs>
  <clipPath id="p147867bc75">
   <rect x="49.21325" y="20.798438" width="101.744" height="50.58"/>
  </clipPath>
  <clipPath id="pbf6fa4a04e">
   <rect x="178.03725" y="20.798438" width="101.744" height="50.58"/>
  </clipPath>
 </defs>
</svg>
