<?xml version="1.0" encoding="utf-8" standalone="no"?>
<!DOCTYPE svg PUBLIC "-//W3C//DTD SVG 1.1//EN"
  "http://www.w3.org/Graphics/SVG/1.1/DTD/svg11.dtd">
<svg xmlns:xlink="http://www.w3.org/1999/xlink" width="396.586668pt" height="303.440516pt" viewBox="0 0 396.586668 303.440516" xmlns="http://www.w3.org/2000/svg" version="1.1">
 <metadata>
  <rdf:RDF xmlns:dc="http://purl.org/dc/elements/1.1/" xmlns:cc="http://creativecommons.org/ns#" xmlns:rdf="http://www.w3.org/1999/02/22-rdf-syntax-ns#">
   <cc:Work>
    <dc:type rdf:resource="http://purl.org/dc/dcmitype/StillImage"/>
    <dc:date>2023-09-13T15:29:13.281330</dc:date>
    <dc:format>image/svg+xml</dc:format>
    <dc:creator>
     <cc:Agent>
      <dc:title>Matplotlib v3.7.3, https://matplotlib.org/</dc:title>
     </cc:Agent>
    </dc:creator>
   </cc:Work>
  </rdf:RDF>
 </metadata>
 <defs>
  <style type="text/css">*{stroke-linejoin: round; stroke-linecap: butt}</style>
 </defs>
 <g id="figure_1">
  <g id="patch_1">
   <path d="M -0 303.440516 
L 396.586668 303.440516 
L 396.586668 0 
L -0 0 
z
" style="fill: #ffffff"/>
  </g>
  <g id="axes_1">
   <g id="patch_2">
    <path d="M 53.843125 117.017178 
L 194.867397 117.017178 
L 194.867397 20.798437 
L 53.843125 20.798437 
z
" style="fill: #ffffff"/>
   </g>
   <g id="PolyCollection_1">
    <defs>
     <path id="m15b503487a" d="M 53.843125 -190.796918 
L 53.843125 -190.796918 
L 60.894339 -222.575478 
L 67.945552 -239.556327 
L 74.996766 -242.523796 
L 82.047979 -244.737735 
L 89.099193 -245.171164 
L 96.150406 -245.493702 
L 103.20162 -245.816241 
L 110.252834 -245.838489 
L 117.304047 -245.860738 
L 124.355261 -245.882986 
L 131.406474 -245.905234 
L 138.457688 -245.927482 
L 145.508902 -245.949731 
L 152.560115 -245.971979 
L 159.611329 -245.994227 
L 166.662542 -246.016476 
L 173.713756 -246.038724 
L 180.764969 -246.060972 
L 187.816183 -246.083221 
L 194.867397 -246.083221 
L 194.867397 -246.083221 
L 194.867397 -246.083221 
L 187.816183 -246.083221 
L 180.764969 -246.060972 
L 173.713756 -246.038724 
L 166.662542 -246.016476 
L 159.611329 -245.994227 
L 152.560115 -245.971979 
L 145.508902 -245.949731 
L 138.457688 -245.927482 
L 131.406474 -245.905234 
L 124.355261 -245.882986 
L 117.304047 -245.860738 
L 110.252834 -245.838489 
L 103.20162 -245.816241 
L 96.150406 -245.493702 
L 89.099193 -245.171164 
L 82.047979 -244.737735 
L 74.996766 -242.523796 
L 67.945552 -239.556327 
L 60.894339 -222.575478 
L 53.843125 -190.796918 
z
" style="stroke: #d62728; stroke-opacity: 0.2; stroke-width: 0.5"/>
    </defs>
    <g clip-path="url(#pc781746cd9)">
     <use xlink:href="#m15b503487a" x="0" y="303.440516" style="fill: #d62728; fill-opacity: 0.2; stroke: #d62728; stroke-opacity: 0.2; stroke-width: 0.5"/>
    </g>
   </g>
   <g id="PolyCollection_2">
    <defs>
     <path id="m62eecb2b89" d="M 53.843125 -190.796918 
L 53.843125 -190.796918 
L 60.894339 -216.526134 
L 67.945552 -232.158181 
L 74.996766 -245.418828 
L 82.047979 -252.7964 
L 89.099193 -258.04737 
L 96.150406 -260.76284 
L 103.20162 -261.832683 
L 110.252834 -262.634343 
L 117.304047 -263.329152 
L 124.355261 -263.51194 
L 131.406474 -263.672272 
L 138.457688 -263.832604 
L 145.508902 -263.992936 
L 152.560115 -264.153268 
L 159.611329 -264.313599 
L 166.662542 -264.313599 
L 173.713756 -264.313599 
L 180.764969 -264.313599 
L 187.816183 -264.313599 
L 194.867397 -264.313599 
L 194.867397 -271.482326 
L 194.867397 -271.482326 
L 187.816183 -271.482326 
L 180.764969 -271.482326 
L 173.713756 -271.482326 
L 166.662542 -271.482326 
L 159.611329 -271.482326 
L 152.560115 -270.680666 
L 145.508902 -269.879006 
L 138.457688 -269.077346 
L 131.406474 -268.275687 
L 124.355261 -267.474027 
L 117.304047 -266.672367 
L 110.252834 -265.870707 
L 103.20162 -265.069047 
L 96.150406 -263.856207 
L 89.099193 -261.322294 
L 82.047979 -255.607683 
L 74.996766 -248.361039 
L 67.945552 -235.019219 
L 60.894339 -219.678376 
L 53.843125 -190.796918 
z
" style="stroke: #2ca02c; stroke-opacity: 0.2; stroke-width: 0.5"/>
    </defs>
    <g clip-path="url(#pc781746cd9)">
     <use xlink:href="#m62eecb2b89" x="0" y="303.440516" style="fill: #2ca02c; fill-opacity: 0.2; stroke: #2ca02c; stroke-opacity: 0.2; stroke-width: 0.5"/>
    </g>
   </g>
   <g id="PolyCollection_3">
    <defs>
     <path id="m1b7222c99f" d="M 53.843125 -190.796918 
L 53.843125 -190.796918 
L 60.894339 -224.140955 
L 67.945552 -236.799939 
L 74.996766 -243.652203 
L 82.047979 -249.350685 
L 89.099193 -252.121105 
L 96.150406 -253.410135 
L 103.20162 -254.145864 
L 110.252834 -255.091636 
L 117.304047 -255.737119 
L 124.355261 -255.759367 
L 131.406474 -255.781616 
L 138.457688 -255.803864 
L 145.508902 -255.826112 
L 152.560115 -255.84836 
L 159.611329 -255.870609 
L 166.662542 -255.892857 
L 173.713756 -255.915105 
L 180.764969 -255.937354 
L 187.816183 -255.959602 
L 194.867397 -255.98185 
L 194.867397 -278.2685 
L 194.867397 -278.2685 
L 187.816183 -277.752114 
L 180.764969 -277.235728 
L 173.713756 -276.719342 
L 166.662542 -276.202956 
L 159.611329 -275.68212 
L 152.560115 -275.161284 
L 145.508902 -274.58039 
L 138.457688 -273.934908 
L 131.406474 -273.289425 
L 124.355261 -272.643943 
L 117.304047 -271.99846 
L 110.252834 -268.191488 
L 103.20162 -264.084225 
L 96.150406 -259.976962 
L 89.099193 -255.758809 
L 82.047979 -250.439537 
L 74.996766 -244.552902 
L 67.945552 -236.799939 
L 60.894339 -224.140955 
L 53.843125 -190.796918 
z
" style="stroke: #1f77b4; stroke-opacity: 0.2; stroke-width: 0.5"/>
    </defs>
    <g clip-path="url(#pc781746cd9)">
     <use xlink:href="#m1b7222c99f" x="0" y="303.440516" style="fill: #1f77b4; fill-opacity: 0.2; stroke: #1f77b4; stroke-opacity: 0.2; stroke-width: 0.5"/>
    </g>
   </g>
   <g id="PolyCollection_4">
    <defs>
     <path id="maf4c55f816" d="M 53.843125 -190.796918 
L 53.843125 -190.796918 
L 60.894339 -213.729659 
L 67.945552 -220.685502 
L 74.996766 -227.514072 
L 82.047979 -229.737075 
L 89.099193 -229.759323 
L 96.150406 -229.781572 
L 103.20162 -229.80382 
L 110.252834 -229.826068 
L 117.304047 -229.848316 
L 124.355261 -229.870565 
L 131.406474 -229.892813 
L 138.457688 -229.915061 
L 145.508902 -229.93731 
L 152.560115 -229.959558 
L 159.611329 -229.981806 
L 166.662542 -230.004055 
L 173.713756 -230.026303 
L 180.764969 -230.048551 
L 187.816183 -230.0708 
L 194.867397 -230.093048 
L 194.867397 -245.710238 
L 194.867397 -245.710238 
L 187.816183 -245.687989 
L 180.764969 -245.665741 
L 173.713756 -245.643493 
L 166.662542 -245.621244 
L 159.611329 -245.598996 
L 152.560115 -245.07816 
L 145.508902 -244.432678 
L 138.457688 -243.787195 
L 131.406474 -243.141713 
L 124.355261 -242.49623 
L 117.304047 -241.850748 
L 110.252834 -241.205265 
L 103.20162 -240.559783 
L 96.150406 -239.9143 
L 89.099193 -239.268818 
L 82.047979 -233.597035 
L 74.996766 -228.469841 
L 67.945552 -221.163386 
L 60.894339 -213.729659 
L 53.843125 -190.796918 
z
" style="stroke: #ff7f0e; stroke-opacity: 0.2; stroke-width: 0.5"/>
    </defs>
    <g clip-path="url(#pc781746cd9)">
     <use xlink:href="#maf4c55f816" x="0" y="303.440516" style="fill: #ff7f0e; fill-opacity: 0.2; stroke: #ff7f0e; stroke-opacity: 0.2; stroke-width: 0.5"/>
    </g>
   </g>
   <g id="matplotlib.axis_1">
    <g id="xtick_1">
     <g id="line2d_1">
      <path d="M 53.843125 117.017178 
L 53.843125 20.798437 
" clip-path="url(#pc781746cd9)" style="fill: none; stroke: #b0b0b0; stroke-width: 0.8; stroke-linecap: square"/>
     </g>
     <g id="line2d_2">
      <defs>
       <path id="m2f888face0" d="M 0 0 
L 0 -3.5 
" style="stroke: #000000; stroke-width: 0.8"/>
      </defs>
      <g>
       <use xlink:href="#m2f888face0" x="53.843125" y="117.017178" style="stroke: #000000; stroke-width: 0.8"/>
      </g>
     </g>
     <g id="text_1">
      <!-- 0 -->
      <g transform="translate(51.298125 126.595928) scale(0.08 -0.08)">
       <defs>
        <path id="DejaVuSans-30" d="M 2034 4250 
Q 1547 4250 1301 3770 
Q 1056 3291 1056 2328 
Q 1056 1369 1301 889 
Q 1547 409 2034 409 
Q 2525 409 2770 889 
Q 3016 1369 3016 2328 
Q 3016 3291 2770 3770 
Q 2525 4250 2034 4250 
z
M 2034 4750 
Q 2819 4750 3233 4129 
Q 3647 3509 3647 2328 
Q 3647 1150 3233 529 
Q 2819 -91 2034 -91 
Q 1250 -91 836 529 
Q 422 1150 422 2328 
Q 422 3509 836 4129 
Q 1250 4750 2034 4750 
z
" transform="scale(0.015625)"/>
       </defs>
       <use xlink:href="#DejaVuSans-30"/>
      </g>
     </g>
    </g>
    <g id="xtick_2">
     <g id="line2d_3">
      <path d="M 89.099193 117.017178 
L 89.099193 20.798437 
" clip-path="url(#pc781746cd9)" style="fill: none; stroke: #b0b0b0; stroke-width: 0.8; stroke-linecap: square"/>
     </g>
     <g id="line2d_4">
      <g>
       <use xlink:href="#m2f888face0" x="89.099193" y="117.017178" style="stroke: #000000; stroke-width: 0.8"/>
      </g>
     </g>
     <g id="text_2">
      <!-- 5 -->
      <g transform="translate(86.554193 126.595928) scale(0.08 -0.08)">
       <defs>
        <path id="DejaVuSans-35" d="M 691 4666 
L 3169 4666 
L 3169 4134 
L 1269 4134 
L 1269 2991 
Q 1406 3038 1543 3061 
Q 1681 3084 1819 3084 
Q 2600 3084 3056 2656 
Q 3513 2228 3513 1497 
Q 3513 744 3044 326 
Q 2575 -91 1722 -91 
Q 1428 -91 1123 -41 
Q 819 9 494 109 
L 494 744 
Q 775 591 1075 516 
Q 1375 441 1709 441 
Q 2250 441 2565 725 
Q 2881 1009 2881 1497 
Q 2881 1984 2565 2268 
Q 2250 2553 1709 2553 
Q 1456 2553 1204 2497 
Q 953 2441 691 2322 
L 691 4666 
z
" transform="scale(0.015625)"/>
       </defs>
       <use xlink:href="#DejaVuSans-35"/>
      </g>
     </g>
    </g>
    <g id="xtick_3">
     <g id="line2d_5">
      <path d="M 124.355261 117.017178 
L 124.355261 20.798437 
" clip-path="url(#pc781746cd9)" style="fill: none; stroke: #b0b0b0; stroke-width: 0.8; stroke-linecap: square"/>
     </g>
     <g id="line2d_6">
      <g>
       <use xlink:href="#m2f888face0" x="124.355261" y="117.017178" style="stroke: #000000; stroke-width: 0.8"/>
      </g>
     </g>
     <g id="text_3">
      <!-- 10 -->
      <g transform="translate(119.265261 126.595928) scale(0.08 -0.08)">
       <defs>
        <path id="DejaVuSans-31" d="M 794 531 
L 1825 531 
L 1825 4091 
L 703 3866 
L 703 4441 
L 1819 4666 
L 2450 4666 
L 2450 531 
L 3481 531 
L 3481 0 
L 794 0 
L 794 531 
z
" transform="scale(0.015625)"/>
       </defs>
       <use xlink:href="#DejaVuSans-31"/>
       <use xlink:href="#DejaVuSans-30" x="63.623047"/>
      </g>
     </g>
    </g>
    <g id="xtick_4">
     <g id="line2d_7">
      <path d="M 159.611329 117.017178 
L 159.611329 20.798437 
" clip-path="url(#pc781746cd9)" style="fill: none; stroke: #b0b0b0; stroke-width: 0.8; stroke-linecap: square"/>
     </g>
     <g id="line2d_8">
      <g>
       <use xlink:href="#m2f888face0" x="159.611329" y="117.017178" style="stroke: #000000; stroke-width: 0.8"/>
      </g>
     </g>
     <g id="text_4">
      <!-- 15 -->
      <g transform="translate(154.521329 126.595928) scale(0.08 -0.08)">
       <use xlink:href="#DejaVuSans-31"/>
       <use xlink:href="#DejaVuSans-35" x="63.623047"/>
      </g>
     </g>
    </g>
    <g id="xtick_5">
     <g id="line2d_9">
      <path d="M 194.867397 117.017178 
L 194.867397 20.798437 
" clip-path="url(#pc781746cd9)" style="fill: none; stroke: #b0b0b0; stroke-width: 0.8; stroke-linecap: square"/>
     </g>
     <g id="line2d_10">
      <g>
       <use xlink:href="#m2f888face0" x="194.867397" y="117.017178" style="stroke: #000000; stroke-width: 0.8"/>
      </g>
     </g>
     <g id="text_5">
      <!-- 20 -->
      <g transform="translate(189.777397 126.595928) scale(0.08 -0.08)">
       <defs>
        <path id="DejaVuSans-32" d="M 1228 531 
L 3431 531 
L 3431 0 
L 469 0 
L 469 531 
Q 828 903 1448 1529 
Q 2069 2156 2228 2338 
Q 2531 2678 2651 2914 
Q 2772 3150 2772 3378 
Q 2772 3750 2511 3984 
Q 2250 4219 1831 4219 
Q 1534 4219 1204 4116 
Q 875 4013 500 3803 
L 500 4441 
Q 881 4594 1212 4672 
Q 1544 4750 1819 4750 
Q 2544 4750 2975 4387 
Q 3406 4025 3406 3419 
Q 3406 3131 3298 2873 
Q 3191 2616 2906 2266 
Q 2828 2175 2409 1742 
Q 1991 1309 1228 531 
z
" transform="scale(0.015625)"/>
       </defs>
       <use xlink:href="#DejaVuSans-32"/>
       <use xlink:href="#DejaVuSans-30" x="63.623047"/>
      </g>
     </g>
    </g>
    <g id="text_6">
     <!-- no. iterations -->
     <g transform="translate(97.918386 138.338428) scale(0.08 -0.08)">
      <defs>
       <path id="DejaVuSans-6e" d="M 3513 2113 
L 3513 0 
L 2938 0 
L 2938 2094 
Q 2938 2591 2744 2837 
Q 2550 3084 2163 3084 
Q 1697 3084 1428 2787 
Q 1159 2491 1159 1978 
L 1159 0 
L 581 0 
L 581 3500 
L 1159 3500 
L 1159 2956 
Q 1366 3272 1645 3428 
Q 1925 3584 2291 3584 
Q 2894 3584 3203 3211 
Q 3513 2838 3513 2113 
z
" transform="scale(0.015625)"/>
       <path id="DejaVuSans-6f" d="M 1959 3097 
Q 1497 3097 1228 2736 
Q 959 2375 959 1747 
Q 959 1119 1226 758 
Q 1494 397 1959 397 
Q 2419 397 2687 759 
Q 2956 1122 2956 1747 
Q 2956 2369 2687 2733 
Q 2419 3097 1959 3097 
z
M 1959 3584 
Q 2709 3584 3137 3096 
Q 3566 2609 3566 1747 
Q 3566 888 3137 398 
Q 2709 -91 1959 -91 
Q 1206 -91 779 398 
Q 353 888 353 1747 
Q 353 2609 779 3096 
Q 1206 3584 1959 3584 
z
" transform="scale(0.015625)"/>
       <path id="DejaVuSans-2e" d="M 684 794 
L 1344 794 
L 1344 0 
L 684 0 
L 684 794 
z
" transform="scale(0.015625)"/>
       <path id="DejaVuSans-20" transform="scale(0.015625)"/>
       <path id="DejaVuSans-69" d="M 603 3500 
L 1178 3500 
L 1178 0 
L 603 0 
L 603 3500 
z
M 603 4863 
L 1178 4863 
L 1178 4134 
L 603 4134 
L 603 4863 
z
" transform="scale(0.015625)"/>
       <path id="DejaVuSans-74" d="M 1172 4494 
L 1172 3500 
L 2356 3500 
L 2356 3053 
L 1172 3053 
L 1172 1153 
Q 1172 725 1289 603 
Q 1406 481 1766 481 
L 2356 481 
L 2356 0 
L 1766 0 
Q 1100 0 847 248 
Q 594 497 594 1153 
L 594 3053 
L 172 3053 
L 172 3500 
L 594 3500 
L 594 4494 
L 1172 4494 
z
" transform="scale(0.015625)"/>
       <path id="DejaVuSans-65" d="M 3597 1894 
L 3597 1613 
L 953 1613 
Q 991 1019 1311 708 
Q 1631 397 2203 397 
Q 2534 397 2845 478 
Q 3156 559 3463 722 
L 3463 178 
Q 3153 47 2828 -22 
Q 2503 -91 2169 -91 
Q 1331 -91 842 396 
Q 353 884 353 1716 
Q 353 2575 817 3079 
Q 1281 3584 2069 3584 
Q 2775 3584 3186 3129 
Q 3597 2675 3597 1894 
z
M 3022 2063 
Q 3016 2534 2758 2815 
Q 2500 3097 2075 3097 
Q 1594 3097 1305 2825 
Q 1016 2553 972 2059 
L 3022 2063 
z
" transform="scale(0.015625)"/>
       <path id="DejaVuSans-72" d="M 2631 2963 
Q 2534 3019 2420 3045 
Q 2306 3072 2169 3072 
Q 1681 3072 1420 2755 
Q 1159 2438 1159 1844 
L 1159 0 
L 581 0 
L 581 3500 
L 1159 3500 
L 1159 2956 
Q 1341 3275 1631 3429 
Q 1922 3584 2338 3584 
Q 2397 3584 2469 3576 
Q 2541 3569 2628 3553 
L 2631 2963 
z
" transform="scale(0.015625)"/>
       <path id="DejaVuSans-61" d="M 2194 1759 
Q 1497 1759 1228 1600 
Q 959 1441 959 1056 
Q 959 750 1161 570 
Q 1363 391 1709 391 
Q 2188 391 2477 730 
Q 2766 1069 2766 1631 
L 2766 1759 
L 2194 1759 
z
M 3341 1997 
L 3341 0 
L 2766 0 
L 2766 531 
Q 2569 213 2275 61 
Q 1981 -91 1556 -91 
Q 1019 -91 701 211 
Q 384 513 384 1019 
Q 384 1609 779 1909 
Q 1175 2209 1959 2209 
L 2766 2209 
L 2766 2266 
Q 2766 2663 2505 2880 
Q 2244 3097 1772 3097 
Q 1472 3097 1187 3025 
Q 903 2953 641 2809 
L 641 3341 
Q 956 3463 1253 3523 
Q 1550 3584 1831 3584 
Q 2591 3584 2966 3190 
Q 3341 2797 3341 1997 
z
" transform="scale(0.015625)"/>
       <path id="DejaVuSans-73" d="M 2834 3397 
L 2834 2853 
Q 2591 2978 2328 3040 
Q 2066 3103 1784 3103 
Q 1356 3103 1142 2972 
Q 928 2841 928 2578 
Q 928 2378 1081 2264 
Q 1234 2150 1697 2047 
L 1894 2003 
Q 2506 1872 2764 1633 
Q 3022 1394 3022 966 
Q 3022 478 2636 193 
Q 2250 -91 1575 -91 
Q 1294 -91 989 -36 
Q 684 19 347 128 
L 347 722 
Q 666 556 975 473 
Q 1284 391 1588 391 
Q 1994 391 2212 530 
Q 2431 669 2431 922 
Q 2431 1156 2273 1281 
Q 2116 1406 1581 1522 
L 1381 1569 
Q 847 1681 609 1914 
Q 372 2147 372 2553 
Q 372 3047 722 3315 
Q 1072 3584 1716 3584 
Q 2034 3584 2315 3537 
Q 2597 3491 2834 3397 
z
" transform="scale(0.015625)"/>
      </defs>
      <use xlink:href="#DejaVuSans-6e"/>
      <use xlink:href="#DejaVuSans-6f" x="63.378906"/>
      <use xlink:href="#DejaVuSans-2e" x="122.810547"/>
      <use xlink:href="#DejaVuSans-20" x="154.597656"/>
      <use xlink:href="#DejaVuSans-69" x="186.384766"/>
      <use xlink:href="#DejaVuSans-74" x="214.167969"/>
      <use xlink:href="#DejaVuSans-65" x="253.376953"/>
      <use xlink:href="#DejaVuSans-72" x="314.900391"/>
      <use xlink:href="#DejaVuSans-61" x="356.013672"/>
      <use xlink:href="#DejaVuSans-74" x="417.292969"/>
      <use xlink:href="#DejaVuSans-69" x="456.501953"/>
      <use xlink:href="#DejaVuSans-6f" x="484.285156"/>
      <use xlink:href="#DejaVuSans-6e" x="545.466797"/>
      <use xlink:href="#DejaVuSans-73" x="608.845703"/>
     </g>
    </g>
   </g>
   <g id="matplotlib.axis_2">
    <g id="ytick_1">
     <g id="line2d_11">
      <path d="M 53.843125 108.163457 
L 194.867397 108.163457 
" clip-path="url(#pc781746cd9)" style="fill: none; stroke: #b0b0b0; stroke-width: 0.8; stroke-linecap: square"/>
     </g>
     <g id="line2d_12">
      <defs>
       <path id="med4db6531a" d="M 0 0 
L 3.5 0 
" style="stroke: #000000; stroke-width: 0.8"/>
      </defs>
      <g>
       <use xlink:href="#med4db6531a" x="53.843125" y="108.163457" style="stroke: #000000; stroke-width: 0.8"/>
      </g>
     </g>
     <g id="text_7">
      <!-- 0.6 -->
      <g transform="translate(37.620625 111.202832) scale(0.08 -0.08)">
       <defs>
        <path id="DejaVuSans-36" d="M 2113 2584 
Q 1688 2584 1439 2293 
Q 1191 2003 1191 1497 
Q 1191 994 1439 701 
Q 1688 409 2113 409 
Q 2538 409 2786 701 
Q 3034 994 3034 1497 
Q 3034 2003 2786 2293 
Q 2538 2584 2113 2584 
z
M 3366 4563 
L 3366 3988 
Q 3128 4100 2886 4159 
Q 2644 4219 2406 4219 
Q 1781 4219 1451 3797 
Q 1122 3375 1075 2522 
Q 1259 2794 1537 2939 
Q 1816 3084 2150 3084 
Q 2853 3084 3261 2657 
Q 3669 2231 3669 1497 
Q 3669 778 3244 343 
Q 2819 -91 2113 -91 
Q 1303 -91 875 529 
Q 447 1150 447 2328 
Q 447 3434 972 4092 
Q 1497 4750 2381 4750 
Q 2619 4750 2861 4703 
Q 3103 4656 3366 4563 
z
" transform="scale(0.015625)"/>
       </defs>
       <use xlink:href="#DejaVuSans-30"/>
       <use xlink:href="#DejaVuSans-2e" x="63.623047"/>
       <use xlink:href="#DejaVuSans-36" x="95.410156"/>
      </g>
     </g>
    </g>
    <g id="ytick_2">
     <g id="line2d_13">
      <path d="M 53.843125 89.805461 
L 194.867397 89.805461 
" clip-path="url(#pc781746cd9)" style="fill: none; stroke: #b0b0b0; stroke-width: 0.8; stroke-linecap: square"/>
     </g>
     <g id="line2d_14">
      <g>
       <use xlink:href="#med4db6531a" x="53.843125" y="89.805461" style="stroke: #000000; stroke-width: 0.8"/>
      </g>
     </g>
     <g id="text_8">
      <!-- 0.8 -->
      <g transform="translate(37.620625 92.844836) scale(0.08 -0.08)">
       <defs>
        <path id="DejaVuSans-38" d="M 2034 2216 
Q 1584 2216 1326 1975 
Q 1069 1734 1069 1313 
Q 1069 891 1326 650 
Q 1584 409 2034 409 
Q 2484 409 2743 651 
Q 3003 894 3003 1313 
Q 3003 1734 2745 1975 
Q 2488 2216 2034 2216 
z
M 1403 2484 
Q 997 2584 770 2862 
Q 544 3141 544 3541 
Q 544 4100 942 4425 
Q 1341 4750 2034 4750 
Q 2731 4750 3128 4425 
Q 3525 4100 3525 3541 
Q 3525 3141 3298 2862 
Q 3072 2584 2669 2484 
Q 3125 2378 3379 2068 
Q 3634 1759 3634 1313 
Q 3634 634 3220 271 
Q 2806 -91 2034 -91 
Q 1263 -91 848 271 
Q 434 634 434 1313 
Q 434 1759 690 2068 
Q 947 2378 1403 2484 
z
M 1172 3481 
Q 1172 3119 1398 2916 
Q 1625 2713 2034 2713 
Q 2441 2713 2670 2916 
Q 2900 3119 2900 3481 
Q 2900 3844 2670 4047 
Q 2441 4250 2034 4250 
Q 1625 4250 1398 4047 
Q 1172 3844 1172 3481 
z
" transform="scale(0.015625)"/>
       </defs>
       <use xlink:href="#DejaVuSans-30"/>
       <use xlink:href="#DejaVuSans-2e" x="63.623047"/>
       <use xlink:href="#DejaVuSans-38" x="95.410156"/>
      </g>
     </g>
    </g>
    <g id="ytick_3">
     <g id="line2d_15">
      <path d="M 53.843125 71.447464 
L 194.867397 71.447464 
" clip-path="url(#pc781746cd9)" style="fill: none; stroke: #b0b0b0; stroke-width: 0.8; stroke-linecap: square"/>
     </g>
     <g id="line2d_16">
      <g>
       <use xlink:href="#med4db6531a" x="53.843125" y="71.447464" style="stroke: #000000; stroke-width: 0.8"/>
      </g>
     </g>
     <g id="text_9">
      <!-- 1.0 -->
      <g transform="translate(37.620625 74.486839) scale(0.08 -0.08)">
       <use xlink:href="#DejaVuSans-31"/>
       <use xlink:href="#DejaVuSans-2e" x="63.623047"/>
       <use xlink:href="#DejaVuSans-30" x="95.410156"/>
      </g>
     </g>
    </g>
    <g id="ytick_4">
     <g id="line2d_17">
      <path d="M 53.843125 53.089468 
L 194.867397 53.089468 
" clip-path="url(#pc781746cd9)" style="fill: none; stroke: #b0b0b0; stroke-width: 0.8; stroke-linecap: square"/>
     </g>
     <g id="line2d_18">
      <g>
       <use xlink:href="#med4db6531a" x="53.843125" y="53.089468" style="stroke: #000000; stroke-width: 0.8"/>
      </g>
     </g>
     <g id="text_10">
      <!-- 1.2 -->
      <g transform="translate(37.620625 56.128843) scale(0.08 -0.08)">
       <use xlink:href="#DejaVuSans-31"/>
       <use xlink:href="#DejaVuSans-2e" x="63.623047"/>
       <use xlink:href="#DejaVuSans-32" x="95.410156"/>
      </g>
     </g>
    </g>
    <g id="ytick_5">
     <g id="line2d_19">
      <path d="M 53.843125 34.731471 
L 194.867397 34.731471 
" clip-path="url(#pc781746cd9)" style="fill: none; stroke: #b0b0b0; stroke-width: 0.8; stroke-linecap: square"/>
     </g>
     <g id="line2d_20">
      <g>
       <use xlink:href="#med4db6531a" x="53.843125" y="34.731471" style="stroke: #000000; stroke-width: 0.8"/>
      </g>
     </g>
     <g id="text_11">
      <!-- 1.4 -->
      <g transform="translate(37.620625 37.770846) scale(0.08 -0.08)">
       <defs>
        <path id="DejaVuSans-34" d="M 2419 4116 
L 825 1625 
L 2419 1625 
L 2419 4116 
z
M 2253 4666 
L 3047 4666 
L 3047 1625 
L 3713 1625 
L 3713 1100 
L 3047 1100 
L 3047 0 
L 2419 0 
L 2419 1100 
L 313 1100 
L 313 1709 
L 2253 4666 
z
" transform="scale(0.015625)"/>
       </defs>
       <use xlink:href="#DejaVuSans-31"/>
       <use xlink:href="#DejaVuSans-2e" x="63.623047"/>
       <use xlink:href="#DejaVuSans-34" x="95.410156"/>
      </g>
     </g>
    </g>
    <g id="text_12">
     <!-- Cumulative Regret -->
     <g transform="translate(31.956875 106.192808) rotate(-90) scale(0.08 -0.08)">
      <defs>
       <path id="DejaVuSans-43" d="M 4122 4306 
L 4122 3641 
Q 3803 3938 3442 4084 
Q 3081 4231 2675 4231 
Q 1875 4231 1450 3742 
Q 1025 3253 1025 2328 
Q 1025 1406 1450 917 
Q 1875 428 2675 428 
Q 3081 428 3442 575 
Q 3803 722 4122 1019 
L 4122 359 
Q 3791 134 3420 21 
Q 3050 -91 2638 -91 
Q 1578 -91 968 557 
Q 359 1206 359 2328 
Q 359 3453 968 4101 
Q 1578 4750 2638 4750 
Q 3056 4750 3426 4639 
Q 3797 4528 4122 4306 
z
" transform="scale(0.015625)"/>
       <path id="DejaVuSans-75" d="M 544 1381 
L 544 3500 
L 1119 3500 
L 1119 1403 
Q 1119 906 1312 657 
Q 1506 409 1894 409 
Q 2359 409 2629 706 
Q 2900 1003 2900 1516 
L 2900 3500 
L 3475 3500 
L 3475 0 
L 2900 0 
L 2900 538 
Q 2691 219 2414 64 
Q 2138 -91 1772 -91 
Q 1169 -91 856 284 
Q 544 659 544 1381 
z
M 1991 3584 
L 1991 3584 
z
" transform="scale(0.015625)"/>
       <path id="DejaVuSans-6d" d="M 3328 2828 
Q 3544 3216 3844 3400 
Q 4144 3584 4550 3584 
Q 5097 3584 5394 3201 
Q 5691 2819 5691 2113 
L 5691 0 
L 5113 0 
L 5113 2094 
Q 5113 2597 4934 2840 
Q 4756 3084 4391 3084 
Q 3944 3084 3684 2787 
Q 3425 2491 3425 1978 
L 3425 0 
L 2847 0 
L 2847 2094 
Q 2847 2600 2669 2842 
Q 2491 3084 2119 3084 
Q 1678 3084 1418 2786 
Q 1159 2488 1159 1978 
L 1159 0 
L 581 0 
L 581 3500 
L 1159 3500 
L 1159 2956 
Q 1356 3278 1631 3431 
Q 1906 3584 2284 3584 
Q 2666 3584 2933 3390 
Q 3200 3197 3328 2828 
z
" transform="scale(0.015625)"/>
       <path id="DejaVuSans-6c" d="M 603 4863 
L 1178 4863 
L 1178 0 
L 603 0 
L 603 4863 
z
" transform="scale(0.015625)"/>
       <path id="DejaVuSans-76" d="M 191 3500 
L 800 3500 
L 1894 563 
L 2988 3500 
L 3597 3500 
L 2284 0 
L 1503 0 
L 191 3500 
z
" transform="scale(0.015625)"/>
       <path id="DejaVuSans-52" d="M 2841 2188 
Q 3044 2119 3236 1894 
Q 3428 1669 3622 1275 
L 4263 0 
L 3584 0 
L 2988 1197 
Q 2756 1666 2539 1819 
Q 2322 1972 1947 1972 
L 1259 1972 
L 1259 0 
L 628 0 
L 628 4666 
L 2053 4666 
Q 2853 4666 3247 4331 
Q 3641 3997 3641 3322 
Q 3641 2881 3436 2590 
Q 3231 2300 2841 2188 
z
M 1259 4147 
L 1259 2491 
L 2053 2491 
Q 2509 2491 2742 2702 
Q 2975 2913 2975 3322 
Q 2975 3731 2742 3939 
Q 2509 4147 2053 4147 
L 1259 4147 
z
" transform="scale(0.015625)"/>
       <path id="DejaVuSans-67" d="M 2906 1791 
Q 2906 2416 2648 2759 
Q 2391 3103 1925 3103 
Q 1463 3103 1205 2759 
Q 947 2416 947 1791 
Q 947 1169 1205 825 
Q 1463 481 1925 481 
Q 2391 481 2648 825 
Q 2906 1169 2906 1791 
z
M 3481 434 
Q 3481 -459 3084 -895 
Q 2688 -1331 1869 -1331 
Q 1566 -1331 1297 -1286 
Q 1028 -1241 775 -1147 
L 775 -588 
Q 1028 -725 1275 -790 
Q 1522 -856 1778 -856 
Q 2344 -856 2625 -561 
Q 2906 -266 2906 331 
L 2906 616 
Q 2728 306 2450 153 
Q 2172 0 1784 0 
Q 1141 0 747 490 
Q 353 981 353 1791 
Q 353 2603 747 3093 
Q 1141 3584 1784 3584 
Q 2172 3584 2450 3431 
Q 2728 3278 2906 2969 
L 2906 3500 
L 3481 3500 
L 3481 434 
z
" transform="scale(0.015625)"/>
      </defs>
      <use xlink:href="#DejaVuSans-43"/>
      <use xlink:href="#DejaVuSans-75" x="69.824219"/>
      <use xlink:href="#DejaVuSans-6d" x="133.203125"/>
      <use xlink:href="#DejaVuSans-75" x="230.615234"/>
      <use xlink:href="#DejaVuSans-6c" x="293.994141"/>
      <use xlink:href="#DejaVuSans-61" x="321.777344"/>
      <use xlink:href="#DejaVuSans-74" x="383.056641"/>
      <use xlink:href="#DejaVuSans-69" x="422.265625"/>
      <use xlink:href="#DejaVuSans-76" x="450.048828"/>
      <use xlink:href="#DejaVuSans-65" x="509.228516"/>
      <use xlink:href="#DejaVuSans-20" x="570.751953"/>
      <use xlink:href="#DejaVuSans-52" x="602.539062"/>
      <use xlink:href="#DejaVuSans-65" x="667.521484"/>
      <use xlink:href="#DejaVuSans-67" x="729.044922"/>
      <use xlink:href="#DejaVuSans-72" x="792.521484"/>
      <use xlink:href="#DejaVuSans-65" x="831.384766"/>
      <use xlink:href="#DejaVuSans-74" x="892.908203"/>
     </g>
    </g>
   </g>
   <g id="line2d_21">
    <path d="M 53.843125 112.643599 
L 60.894339 80.865039 
L 67.945552 63.884189 
L 74.996766 60.91672 
L 82.047979 58.702781 
L 89.099193 58.269353 
L 96.150406 57.946814 
L 103.20162 57.624275 
L 110.252834 57.602027 
L 117.304047 57.579779 
L 124.355261 57.55753 
L 131.406474 57.535282 
L 138.457688 57.513034 
L 145.508902 57.490785 
L 152.560115 57.468537 
L 159.611329 57.446289 
L 166.662542 57.424041 
L 173.713756 57.401792 
L 180.764969 57.379544 
L 187.816183 57.357296 
L 194.867397 57.357296 
" clip-path="url(#pc781746cd9)" style="fill: none; stroke-dasharray: 2,3.3; stroke-dashoffset: 0; stroke: #d62728; stroke-width: 2"/>
   </g>
   <g id="line2d_22">
    <path d="M 53.843125 112.643599 
L 60.894339 84.0982 
L 67.945552 68.733461 
L 74.996766 55.738741 
L 82.047979 48.796183 
L 89.099193 42.716617 
L 96.150406 40.173964 
L 103.20162 39.074598 
L 110.252834 38.287729 
L 117.304047 37.550202 
L 124.355261 36.812675 
L 131.406474 36.075148 
L 138.457688 35.337621 
L 145.508902 34.600094 
L 152.560115 33.862567 
L 159.611329 33.12504 
L 166.662542 33.092973 
L 173.713756 33.092973 
L 180.764969 33.092973 
L 187.816183 33.092973 
L 194.867397 33.092973 
" clip-path="url(#pc781746cd9)" style="fill: none; stroke-dasharray: 7.4,3.2; stroke-dashoffset: 0; stroke: #2ca02c; stroke-width: 2"/>
   </g>
   <g id="line2d_23">
    <path d="M 53.843125 112.643599 
L 60.894339 79.320454 
L 67.945552 66.675958 
L 74.996766 59.071881 
L 82.047979 53.223549 
L 89.099193 49.39819 
L 96.150406 47.110264 
L 103.20162 45.658846 
L 110.252834 44.225781 
L 117.304047 43.13629 
L 124.355261 42.761887 
L 131.406474 42.461365 
L 138.457688 42.239682 
L 145.508902 42.067858 
L 152.560115 41.920962 
L 159.611329 41.799887 
L 166.662542 41.68148 
L 173.713756 41.563964 
L 180.764969 41.471378 
L 187.816183 41.380571 
L 194.867397 41.315583 
" clip-path="url(#pc781746cd9)" style="fill: none; stroke-dasharray: 12.8,3.2,2,3.2; stroke-dashoffset: 0; stroke: #1f77b4; stroke-width: 2"/>
   </g>
   <g id="line2d_24">
    <path d="M 53.843125 112.643599 
L 60.894339 89.710857 
L 67.945552 82.171166 
L 74.996766 74.999674 
L 82.047979 73.188124 
L 89.099193 72.291141 
L 96.150406 72.169176 
L 103.20162 72.04721 
L 110.252834 71.925244 
L 117.304047 71.803278 
L 124.355261 71.681312 
L 131.406474 71.559347 
L 138.457688 71.46231 
L 145.508902 71.365274 
L 152.560115 71.268237 
L 159.611329 71.19613 
L 166.662542 71.173882 
L 173.713756 71.151634 
L 180.764969 71.129385 
L 187.816183 71.107137 
L 194.867397 71.084889 
" clip-path="url(#pc781746cd9)" style="fill: none; stroke: #ff7f0e; stroke-width: 2; stroke-linecap: square"/>
   </g>
   <g id="patch_3">
    <path d="M 53.843125 117.017178 
L 53.843125 20.798437 
" style="fill: none; stroke: #bcbcbc; stroke-width: 0.8; stroke-linejoin: miter; stroke-linecap: square"/>
   </g>
   <g id="patch_4">
    <path d="M 194.867397 117.017178 
L 194.867397 20.798437 
" style="fill: none; stroke: #bcbcbc; stroke-width: 0.8; stroke-linejoin: miter; stroke-linecap: square"/>
   </g>
   <g id="patch_5">
    <path d="M 53.843125 117.017178 
L 194.867397 117.017178 
" style="fill: none; stroke: #bcbcbc; stroke-width: 0.8; stroke-linejoin: miter; stroke-linecap: square"/>
   </g>
   <g id="patch_6">
    <path d="M 53.843125 20.798437 
L 194.867397 20.798437 
" style="fill: none; stroke: #bcbcbc; stroke-width: 0.8; stroke-linejoin: miter; stroke-linecap: square"/>
   </g>
   <g id="text_13">
    <!-- Centre -->
    <g transform="translate(14.798437 85.624214) rotate(-90) scale(0.1 -0.1)">
     <use xlink:href="#DejaVuSans-43"/>
     <use xlink:href="#DejaVuSans-65" x="69.824219"/>
     <use xlink:href="#DejaVuSans-6e" x="131.347656"/>
     <use xlink:href="#DejaVuSans-74" x="194.726562"/>
     <use xlink:href="#DejaVuSans-72" x="233.935547"/>
     <use xlink:href="#DejaVuSans-65" x="272.798828"/>
    </g>
   </g>
   <g id="text_14">
    <!-- Many Surfaces -->
    <g transform="translate(87.606823 14.798437) scale(0.1 -0.1)">
     <defs>
      <path id="DejaVuSans-4d" d="M 628 4666 
L 1569 4666 
L 2759 1491 
L 3956 4666 
L 4897 4666 
L 4897 0 
L 4281 0 
L 4281 4097 
L 3078 897 
L 2444 897 
L 1241 4097 
L 1241 0 
L 628 0 
L 628 4666 
z
" transform="scale(0.015625)"/>
      <path id="DejaVuSans-79" d="M 2059 -325 
Q 1816 -950 1584 -1140 
Q 1353 -1331 966 -1331 
L 506 -1331 
L 506 -850 
L 844 -850 
Q 1081 -850 1212 -737 
Q 1344 -625 1503 -206 
L 1606 56 
L 191 3500 
L 800 3500 
L 1894 763 
L 2988 3500 
L 3597 3500 
L 2059 -325 
z
" transform="scale(0.015625)"/>
      <path id="DejaVuSans-53" d="M 3425 4513 
L 3425 3897 
Q 3066 4069 2747 4153 
Q 2428 4238 2131 4238 
Q 1616 4238 1336 4038 
Q 1056 3838 1056 3469 
Q 1056 3159 1242 3001 
Q 1428 2844 1947 2747 
L 2328 2669 
Q 3034 2534 3370 2195 
Q 3706 1856 3706 1288 
Q 3706 609 3251 259 
Q 2797 -91 1919 -91 
Q 1588 -91 1214 -16 
Q 841 59 441 206 
L 441 856 
Q 825 641 1194 531 
Q 1563 422 1919 422 
Q 2459 422 2753 634 
Q 3047 847 3047 1241 
Q 3047 1584 2836 1778 
Q 2625 1972 2144 2069 
L 1759 2144 
Q 1053 2284 737 2584 
Q 422 2884 422 3419 
Q 422 4038 858 4394 
Q 1294 4750 2059 4750 
Q 2388 4750 2728 4690 
Q 3069 4631 3425 4513 
z
" transform="scale(0.015625)"/>
      <path id="DejaVuSans-66" d="M 2375 4863 
L 2375 4384 
L 1825 4384 
Q 1516 4384 1395 4259 
Q 1275 4134 1275 3809 
L 1275 3500 
L 2222 3500 
L 2222 3053 
L 1275 3053 
L 1275 0 
L 697 0 
L 697 3053 
L 147 3053 
L 147 3500 
L 697 3500 
L 697 3744 
Q 697 4328 969 4595 
Q 1241 4863 1831 4863 
L 2375 4863 
z
" transform="scale(0.015625)"/>
      <path id="DejaVuSans-63" d="M 3122 3366 
L 3122 2828 
Q 2878 2963 2633 3030 
Q 2388 3097 2138 3097 
Q 1578 3097 1268 2742 
Q 959 2388 959 1747 
Q 959 1106 1268 751 
Q 1578 397 2138 397 
Q 2388 397 2633 464 
Q 2878 531 3122 666 
L 3122 134 
Q 2881 22 2623 -34 
Q 2366 -91 2075 -91 
Q 1284 -91 818 406 
Q 353 903 353 1747 
Q 353 2603 823 3093 
Q 1294 3584 2113 3584 
Q 2378 3584 2631 3529 
Q 2884 3475 3122 3366 
z
" transform="scale(0.015625)"/>
     </defs>
     <use xlink:href="#DejaVuSans-4d"/>
     <use xlink:href="#DejaVuSans-61" x="86.279297"/>
     <use xlink:href="#DejaVuSans-6e" x="147.558594"/>
     <use xlink:href="#DejaVuSans-79" x="210.9375"/>
     <use xlink:href="#DejaVuSans-20" x="270.117188"/>
     <use xlink:href="#DejaVuSans-53" x="301.904297"/>
     <use xlink:href="#DejaVuSans-75" x="365.380859"/>
     <use xlink:href="#DejaVuSans-72" x="428.759766"/>
     <use xlink:href="#DejaVuSans-66" x="469.873047"/>
     <use xlink:href="#DejaVuSans-61" x="505.078125"/>
     <use xlink:href="#DejaVuSans-63" x="566.357422"/>
     <use xlink:href="#DejaVuSans-65" x="621.337891"/>
     <use xlink:href="#DejaVuSans-73" x="682.861328"/>
    </g>
   </g>
  </g>
  <g id="axes_2">
   <g id="patch_7">
    <path d="M 243.272397 117.017178 
L 384.296668 117.017178 
L 384.296668 20.798437 
L 243.272397 20.798437 
z
" style="fill: #ffffff"/>
   </g>
   <g id="PolyCollection_5">
    <defs>
     <path id="mc108f49c81" d="M 243.272397 -190.796918 
L 243.272397 -190.796918 
L 257.374824 -219.375365 
L 271.477251 -237.941771 
L 285.579678 -250.258088 
L 299.682105 -257.026545 
L 313.784532 -260.547837 
L 327.88696 -263.168611 
L 341.989387 -263.186925 
L 356.091814 -263.205239 
L 370.194241 -263.223553 
L 384.296668 -263.163181 
L 398.399095 -263.537744 
L 412.501523 -258.531308 
L 426.60395 -256.375726 
L 440.706377 -243.035981 
L 454.808804 -244.346976 
L 468.911231 -244.247896 
L 483.013658 -245.317548 
L 497.116086 -243.782617 
L 497.116086 -270.620638 
L 497.116086 -270.620638 
L 483.013658 -272.141124 
L 468.911231 -269.800412 
L 454.808804 -269.806691 
L 440.706377 -272.041158 
L 426.60395 -277.859494 
L 412.501523 -277.608993 
L 398.399095 -277.10423 
L 384.296668 -271.982553 
L 370.194241 -270.746787 
L 356.091814 -270.728473 
L 341.989387 -270.710159 
L 327.88696 -270.691844 
L 313.784532 -268.071071 
L 299.682105 -264.470227 
L 285.579678 -254.048041 
L 271.477251 -240.054924 
L 257.374824 -220.548563 
L 243.272397 -190.796918 
z
" style="stroke: #d62728; stroke-opacity: 0.2; stroke-width: 0.5"/>
    </defs>
    <g clip-path="url(#p25df372eab)">
     <use xlink:href="#mc108f49c81" x="0" y="303.440516" style="fill: #d62728; fill-opacity: 0.2; stroke: #d62728; stroke-opacity: 0.2; stroke-width: 0.5"/>
    </g>
   </g>
   <g id="PolyCollection_6">
    <defs>
     <path id="m344aecd8c1" d="M 243.272397 -190.796918 
L 243.272397 -190.796918 
L 257.374824 -217.831509 
L 271.477251 -240.411641 
L 285.579678 -253.19723 
L 299.682105 -260.796651 
L 313.784532 -263.940504 
L 327.88696 -265.618686 
L 341.989387 -265.618686 
L 356.091814 -265.618686 
L 370.194241 -265.618686 
L 384.296668 -265.618686 
L 398.399095 -265.618686 
L 412.501523 -264.745273 
L 426.60395 -263.744949 
L 440.706377 -256.748434 
L 454.808804 -257.564418 
L 468.911231 -256.808799 
L 483.013658 -261.846259 
L 497.116086 -256.083157 
L 497.116086 -273.452002 
L 497.116086 -273.452002 
L 483.013658 -278.2685 
L 468.911231 -278.2685 
L 454.808804 -278.2685 
L 440.706377 -272.158631 
L 426.60395 -272.158631 
L 412.501523 -272.158631 
L 398.399095 -272.158631 
L 384.296668 -272.158631 
L 370.194241 -265.618686 
L 356.091814 -265.618686 
L 341.989387 -265.618686 
L 327.88696 -265.618686 
L 313.784532 -263.940504 
L 299.682105 -260.796651 
L 285.579678 -253.19723 
L 271.477251 -240.411641 
L 257.374824 -217.831509 
L 243.272397 -190.796918 
z
" style="stroke: #2ca02c; stroke-opacity: 0.2; stroke-width: 0.5"/>
    </defs>
    <g clip-path="url(#p25df372eab)">
     <use xlink:href="#m344aecd8c1" x="0" y="303.440516" style="fill: #2ca02c; fill-opacity: 0.2; stroke: #2ca02c; stroke-opacity: 0.2; stroke-width: 0.5"/>
    </g>
   </g>
   <g id="PolyCollection_7">
    <defs>
     <path id="m43edd7d4d2" d="M 243.272397 -190.796918 
L 243.272397 -190.796918 
L 257.374824 -206.140453 
L 271.477251 -217.468799 
L 285.579678 -224.012896 
L 299.682105 -228.222513 
L 313.784532 -229.143303 
L 327.88696 -230.039739 
L 341.989387 -230.741321 
L 356.091814 -231.195711 
L 370.194241 -231.537944 
L 384.296668 -231.633213 
L 398.399095 -232.768536 
L 412.501523 -232.340416 
L 426.60395 -231.261829 
L 440.706377 -223.650547 
L 454.808804 -223.514828 
L 468.911231 -220.313053 
L 483.013658 -220.147494 
L 497.116086 -218.428943 
L 497.116086 -241.964963 
L 497.116086 -241.964963 
L 483.013658 -244.099461 
L 468.911231 -243.583297 
L 454.808804 -243.067133 
L 440.706377 -244.343259 
L 426.60395 -252.463018 
L 412.501523 -249.032818 
L 398.399095 -249.031416 
L 384.296668 -248.826963 
L 370.194241 -247.579672 
L 356.091814 -247.459643 
L 341.989387 -247.053283 
L 327.88696 -246.710823 
L 313.784532 -246.420783 
L 299.682105 -244.355594 
L 285.579678 -240.151492 
L 271.477251 -229.586636 
L 257.374824 -213.634829 
L 243.272397 -190.796918 
z
" style="stroke: #1f77b4; stroke-opacity: 0.2; stroke-width: 0.5"/>
    </defs>
    <g clip-path="url(#p25df372eab)">
     <use xlink:href="#m43edd7d4d2" x="0" y="303.440516" style="fill: #1f77b4; fill-opacity: 0.2; stroke: #1f77b4; stroke-opacity: 0.2; stroke-width: 0.5"/>
    </g>
   </g>
   <g id="PolyCollection_8">
    <defs>
     <path id="m4cf28704b7" d="M 243.272397 -190.796918 
L 243.272397 -190.796918 
L 257.374824 -203.451674 
L 271.477251 -214.809009 
L 285.579678 -221.432749 
L 299.682105 -225.455216 
L 313.784532 -227.687587 
L 327.88696 -228.545907 
L 341.989387 -229.335157 
L 356.091814 -230.124407 
L 370.194241 -230.655752 
L 384.296668 -232.199948 
L 398.399095 -233.438986 
L 412.501523 -225.983979 
L 426.60395 -225.371138 
L 440.706377 -223.856091 
L 454.808804 -219.257163 
L 468.911231 -212.515475 
L 483.013658 -212.687685 
L 497.116086 -212.222131 
L 497.116086 -239.465094 
L 497.116086 -239.465094 
L 483.013658 -245.946244 
L 468.911231 -245.928453 
L 454.808804 -246.11024 
L 440.706377 -250.179675 
L 426.60395 -247.570012 
L 412.501523 -246.092992 
L 398.399095 -245.036118 
L 384.296668 -241.894891 
L 370.194241 -240.01106 
L 356.091814 -239.300395 
L 341.989387 -238.511145 
L 327.88696 -237.721895 
L 313.784532 -235.751761 
L 299.682105 -231.30879 
L 285.579678 -225.736752 
L 271.477251 -217.048785 
L 257.374824 -205.643923 
L 243.272397 -190.796918 
z
" style="stroke: #ff7f0e; stroke-opacity: 0.2; stroke-width: 0.5"/>
    </defs>
    <g clip-path="url(#p25df372eab)">
     <use xlink:href="#m4cf28704b7" x="0" y="303.440516" style="fill: #ff7f0e; fill-opacity: 0.2; stroke: #ff7f0e; stroke-opacity: 0.2; stroke-width: 0.5"/>
    </g>
   </g>
   <g id="matplotlib.axis_3">
    <g id="xtick_6">
     <g id="line2d_25">
      <path d="M 243.272397 117.017178 
L 243.272397 20.798437 
" clip-path="url(#p25df372eab)" style="fill: none; stroke: #b0b0b0; stroke-width: 0.8; stroke-linecap: square"/>
     </g>
     <g id="line2d_26">
      <g>
       <use xlink:href="#m2f888face0" x="243.272397" y="117.017178" style="stroke: #000000; stroke-width: 0.8"/>
      </g>
     </g>
     <g id="text_15">
      <!-- 0 -->
      <g transform="translate(240.727397 126.595928) scale(0.08 -0.08)">
       <use xlink:href="#DejaVuSans-30"/>
      </g>
     </g>
    </g>
    <g id="xtick_7">
     <g id="line2d_27">
      <path d="M 271.477251 117.017178 
L 271.477251 20.798437 
" clip-path="url(#p25df372eab)" style="fill: none; stroke: #b0b0b0; stroke-width: 0.8; stroke-linecap: square"/>
     </g>
     <g id="line2d_28">
      <g>
       <use xlink:href="#m2f888face0" x="271.477251" y="117.017178" style="stroke: #000000; stroke-width: 0.8"/>
      </g>
     </g>
     <g id="text_16">
      <!-- 2 -->
      <g transform="translate(268.932251 126.595928) scale(0.08 -0.08)">
       <use xlink:href="#DejaVuSans-32"/>
      </g>
     </g>
    </g>
    <g id="xtick_8">
     <g id="line2d_29">
      <path d="M 299.682105 117.017178 
L 299.682105 20.798437 
" clip-path="url(#p25df372eab)" style="fill: none; stroke: #b0b0b0; stroke-width: 0.8; stroke-linecap: square"/>
     </g>
     <g id="line2d_30">
      <g>
       <use xlink:href="#m2f888face0" x="299.682105" y="117.017178" style="stroke: #000000; stroke-width: 0.8"/>
      </g>
     </g>
     <g id="text_17">
      <!-- 4 -->
      <g transform="translate(297.137105 126.595928) scale(0.08 -0.08)">
       <use xlink:href="#DejaVuSans-34"/>
      </g>
     </g>
    </g>
    <g id="xtick_9">
     <g id="line2d_31">
      <path d="M 327.88696 117.017178 
L 327.88696 20.798437 
" clip-path="url(#p25df372eab)" style="fill: none; stroke: #b0b0b0; stroke-width: 0.8; stroke-linecap: square"/>
     </g>
     <g id="line2d_32">
      <g>
       <use xlink:href="#m2f888face0" x="327.88696" y="117.017178" style="stroke: #000000; stroke-width: 0.8"/>
      </g>
     </g>
     <g id="text_18">
      <!-- 6 -->
      <g transform="translate(325.34196 126.595928) scale(0.08 -0.08)">
       <use xlink:href="#DejaVuSans-36"/>
      </g>
     </g>
    </g>
    <g id="xtick_10">
     <g id="line2d_33">
      <path d="M 356.091814 117.017178 
L 356.091814 20.798437 
" clip-path="url(#p25df372eab)" style="fill: none; stroke: #b0b0b0; stroke-width: 0.8; stroke-linecap: square"/>
     </g>
     <g id="line2d_34">
      <g>
       <use xlink:href="#m2f888face0" x="356.091814" y="117.017178" style="stroke: #000000; stroke-width: 0.8"/>
      </g>
     </g>
     <g id="text_19">
      <!-- 8 -->
      <g transform="translate(353.546814 126.595928) scale(0.08 -0.08)">
       <use xlink:href="#DejaVuSans-38"/>
      </g>
     </g>
    </g>
    <g id="xtick_11">
     <g id="line2d_35">
      <path d="M 384.296668 117.017178 
L 384.296668 20.798437 
" clip-path="url(#p25df372eab)" style="fill: none; stroke: #b0b0b0; stroke-width: 0.8; stroke-linecap: square"/>
     </g>
     <g id="line2d_36">
      <g>
       <use xlink:href="#m2f888face0" x="384.296668" y="117.017178" style="stroke: #000000; stroke-width: 0.8"/>
      </g>
     </g>
     <g id="text_20">
      <!-- 10 -->
      <g transform="translate(379.206668 126.595928) scale(0.08 -0.08)">
       <use xlink:href="#DejaVuSans-31"/>
       <use xlink:href="#DejaVuSans-30" x="63.623047"/>
      </g>
     </g>
    </g>
    <g id="text_21">
     <!-- no. iterations -->
     <g transform="translate(287.347657 138.338428) scale(0.08 -0.08)">
      <use xlink:href="#DejaVuSans-6e"/>
      <use xlink:href="#DejaVuSans-6f" x="63.378906"/>
      <use xlink:href="#DejaVuSans-2e" x="122.810547"/>
      <use xlink:href="#DejaVuSans-20" x="154.597656"/>
      <use xlink:href="#DejaVuSans-69" x="186.384766"/>
      <use xlink:href="#DejaVuSans-74" x="214.167969"/>
      <use xlink:href="#DejaVuSans-65" x="253.376953"/>
      <use xlink:href="#DejaVuSans-72" x="314.900391"/>
      <use xlink:href="#DejaVuSans-61" x="356.013672"/>
      <use xlink:href="#DejaVuSans-74" x="417.292969"/>
      <use xlink:href="#DejaVuSans-69" x="456.501953"/>
      <use xlink:href="#DejaVuSans-6f" x="484.285156"/>
      <use xlink:href="#DejaVuSans-6e" x="545.466797"/>
      <use xlink:href="#DejaVuSans-73" x="608.845703"/>
     </g>
    </g>
   </g>
   <g id="matplotlib.axis_4">
    <g id="ytick_6">
     <g id="line2d_37">
      <path d="M 243.272397 116.511579 
L 384.296668 116.511579 
" clip-path="url(#p25df372eab)" style="fill: none; stroke: #b0b0b0; stroke-width: 0.8; stroke-linecap: square"/>
     </g>
     <g id="line2d_38">
      <g>
       <use xlink:href="#med4db6531a" x="243.272397" y="116.511579" style="stroke: #000000; stroke-width: 0.8"/>
      </g>
     </g>
     <g id="text_22">
      <!-- 0.50 -->
      <g transform="translate(221.959897 119.550954) scale(0.08 -0.08)">
       <use xlink:href="#DejaVuSans-30"/>
       <use xlink:href="#DejaVuSans-2e" x="63.623047"/>
       <use xlink:href="#DejaVuSans-35" x="95.410156"/>
       <use xlink:href="#DejaVuSans-30" x="159.033203"/>
      </g>
     </g>
    </g>
    <g id="ytick_7">
     <g id="line2d_39">
      <path d="M 243.272397 97.621777 
L 384.296668 97.621777 
" clip-path="url(#p25df372eab)" style="fill: none; stroke: #b0b0b0; stroke-width: 0.8; stroke-linecap: square"/>
     </g>
     <g id="line2d_40">
      <g>
       <use xlink:href="#med4db6531a" x="243.272397" y="97.621777" style="stroke: #000000; stroke-width: 0.8"/>
      </g>
     </g>
     <g id="text_23">
      <!-- 0.75 -->
      <g transform="translate(221.959897 100.661152) scale(0.08 -0.08)">
       <defs>
        <path id="DejaVuSans-37" d="M 525 4666 
L 3525 4666 
L 3525 4397 
L 1831 0 
L 1172 0 
L 2766 4134 
L 525 4134 
L 525 4666 
z
" transform="scale(0.015625)"/>
       </defs>
       <use xlink:href="#DejaVuSans-30"/>
       <use xlink:href="#DejaVuSans-2e" x="63.623047"/>
       <use xlink:href="#DejaVuSans-37" x="95.410156"/>
       <use xlink:href="#DejaVuSans-35" x="159.033203"/>
      </g>
     </g>
    </g>
    <g id="ytick_8">
     <g id="line2d_41">
      <path d="M 243.272397 78.731975 
L 384.296668 78.731975 
" clip-path="url(#p25df372eab)" style="fill: none; stroke: #b0b0b0; stroke-width: 0.8; stroke-linecap: square"/>
     </g>
     <g id="line2d_42">
      <g>
       <use xlink:href="#med4db6531a" x="243.272397" y="78.731975" style="stroke: #000000; stroke-width: 0.8"/>
      </g>
     </g>
     <g id="text_24">
      <!-- 1.00 -->
      <g transform="translate(221.959897 81.77135) scale(0.08 -0.08)">
       <use xlink:href="#DejaVuSans-31"/>
       <use xlink:href="#DejaVuSans-2e" x="63.623047"/>
       <use xlink:href="#DejaVuSans-30" x="95.410156"/>
       <use xlink:href="#DejaVuSans-30" x="159.033203"/>
      </g>
     </g>
    </g>
    <g id="ytick_9">
     <g id="line2d_43">
      <path d="M 243.272397 59.842173 
L 384.296668 59.842173 
" clip-path="url(#p25df372eab)" style="fill: none; stroke: #b0b0b0; stroke-width: 0.8; stroke-linecap: square"/>
     </g>
     <g id="line2d_44">
      <g>
       <use xlink:href="#med4db6531a" x="243.272397" y="59.842173" style="stroke: #000000; stroke-width: 0.8"/>
      </g>
     </g>
     <g id="text_25">
      <!-- 1.25 -->
      <g transform="translate(221.959897 62.881548) scale(0.08 -0.08)">
       <use xlink:href="#DejaVuSans-31"/>
       <use xlink:href="#DejaVuSans-2e" x="63.623047"/>
       <use xlink:href="#DejaVuSans-32" x="95.410156"/>
       <use xlink:href="#DejaVuSans-35" x="159.033203"/>
      </g>
     </g>
    </g>
    <g id="ytick_10">
     <g id="line2d_45">
      <path d="M 243.272397 40.952371 
L 384.296668 40.952371 
" clip-path="url(#p25df372eab)" style="fill: none; stroke: #b0b0b0; stroke-width: 0.8; stroke-linecap: square"/>
     </g>
     <g id="line2d_46">
      <g>
       <use xlink:href="#med4db6531a" x="243.272397" y="40.952371" style="stroke: #000000; stroke-width: 0.8"/>
      </g>
     </g>
     <g id="text_26">
      <!-- 1.50 -->
      <g transform="translate(221.959897 43.991746) scale(0.08 -0.08)">
       <use xlink:href="#DejaVuSans-31"/>
       <use xlink:href="#DejaVuSans-2e" x="63.623047"/>
       <use xlink:href="#DejaVuSans-35" x="95.410156"/>
       <use xlink:href="#DejaVuSans-30" x="159.033203"/>
      </g>
     </g>
    </g>
    <g id="ytick_11">
     <g id="line2d_47">
      <path d="M 243.272397 22.062569 
L 384.296668 22.062569 
" clip-path="url(#p25df372eab)" style="fill: none; stroke: #b0b0b0; stroke-width: 0.8; stroke-linecap: square"/>
     </g>
     <g id="line2d_48">
      <g>
       <use xlink:href="#med4db6531a" x="243.272397" y="22.062569" style="stroke: #000000; stroke-width: 0.8"/>
      </g>
     </g>
     <g id="text_27">
      <!-- 1.75 -->
      <g transform="translate(221.959897 25.101944) scale(0.08 -0.08)">
       <use xlink:href="#DejaVuSans-31"/>
       <use xlink:href="#DejaVuSans-2e" x="63.623047"/>
       <use xlink:href="#DejaVuSans-37" x="95.410156"/>
       <use xlink:href="#DejaVuSans-35" x="159.033203"/>
      </g>
     </g>
    </g>
    <g id="text_28">
     <!-- Cumulative Regret -->
     <g transform="translate(216.296147 106.192808) rotate(-90) scale(0.08 -0.08)">
      <use xlink:href="#DejaVuSans-43"/>
      <use xlink:href="#DejaVuSans-75" x="69.824219"/>
      <use xlink:href="#DejaVuSans-6d" x="133.203125"/>
      <use xlink:href="#DejaVuSans-75" x="230.615234"/>
      <use xlink:href="#DejaVuSans-6c" x="293.994141"/>
      <use xlink:href="#DejaVuSans-61" x="321.777344"/>
      <use xlink:href="#DejaVuSans-74" x="383.056641"/>
      <use xlink:href="#DejaVuSans-69" x="422.265625"/>
      <use xlink:href="#DejaVuSans-76" x="450.048828"/>
      <use xlink:href="#DejaVuSans-65" x="509.228516"/>
      <use xlink:href="#DejaVuSans-20" x="570.751953"/>
      <use xlink:href="#DejaVuSans-52" x="602.539062"/>
      <use xlink:href="#DejaVuSans-65" x="667.521484"/>
      <use xlink:href="#DejaVuSans-67" x="729.044922"/>
      <use xlink:href="#DejaVuSans-72" x="792.521484"/>
      <use xlink:href="#DejaVuSans-65" x="831.384766"/>
      <use xlink:href="#DejaVuSans-74" x="892.908203"/>
     </g>
    </g>
   </g>
   <g id="line2d_49">
    <path d="M 243.272397 112.643599 
L 257.374824 83.820735 
L 271.477251 65.058801 
L 285.579678 52.388967 
L 299.682105 43.526534 
L 313.784532 39.864516 
L 327.88696 37.181473 
L 341.989387 37.100889 
L 356.091814 37.083338 
L 370.194241 37.065786 
L 384.296668 36.213396 
L 397.586668 35.145893 
" clip-path="url(#p25df372eab)" style="fill: none; stroke-dasharray: 2,3.3; stroke-dashoffset: 0; stroke: #d62728; stroke-width: 2"/>
   </g>
   <g id="line2d_50">
    <path d="M 243.272397 112.643599 
L 257.374824 85.609007 
L 271.477251 63.028876 
L 285.579678 50.243286 
L 299.682105 42.643866 
L 313.784532 39.500012 
L 327.88696 37.82183 
L 341.989387 37.82183 
L 356.091814 37.82183 
L 370.194241 37.82183 
L 384.296668 36.809912 
L 397.586668 35.586402 
" clip-path="url(#p25df372eab)" style="fill: none; stroke-dasharray: 7.4,3.2; stroke-dashoffset: 0; stroke: #2ca02c; stroke-width: 2"/>
   </g>
   <g id="line2d_51">
    <path d="M 243.272397 112.643599 
L 257.374824 93.03208 
L 271.477251 79.997122 
L 285.579678 71.708855 
L 299.682105 67.665421 
L 313.784532 66.431868 
L 327.88696 65.679026 
L 341.989387 64.971572 
L 356.091814 64.443335 
L 370.194241 63.969676 
L 384.296668 62.890246 
L 397.586668 62.0902 
" clip-path="url(#p25df372eab)" style="fill: none; stroke-dasharray: 12.8,3.2,2,3.2; stroke-dashoffset: 0; stroke: #1f77b4; stroke-width: 2"/>
   </g>
   <g id="line2d_52">
    <path d="M 243.272397 112.643599 
L 257.374824 98.296101 
L 271.477251 87.016108 
L 285.579678 80.540814 
L 299.682105 75.354088 
L 313.784532 71.780919 
L 327.88696 70.291441 
L 341.989387 69.406259 
L 356.091814 68.559451 
L 370.194241 67.914511 
L 384.296668 66.532403 
L 397.586668 65.006811 
" clip-path="url(#p25df372eab)" style="fill: none; stroke: #ff7f0e; stroke-width: 2; stroke-linecap: square"/>
   </g>
   <g id="patch_8">
    <path d="M 243.272397 117.017178 
L 243.272397 20.798437 
" style="fill: none; stroke: #bcbcbc; stroke-width: 0.8; stroke-linejoin: miter; stroke-linecap: square"/>
   </g>
   <g id="patch_9">
    <path d="M 384.296668 117.017178 
L 384.296668 20.798437 
" style="fill: none; stroke: #bcbcbc; stroke-width: 0.8; stroke-linejoin: miter; stroke-linecap: square"/>
   </g>
   <g id="patch_10">
    <path d="M 243.272397 117.017178 
L 384.296668 117.017178 
" style="fill: none; stroke: #bcbcbc; stroke-width: 0.8; stroke-linejoin: miter; stroke-linecap: square"/>
   </g>
   <g id="patch_11">
    <path d="M 243.272397 20.798437 
L 384.296668 20.798437 
" style="fill: none; stroke: #bcbcbc; stroke-width: 0.8; stroke-linejoin: miter; stroke-linecap: square"/>
   </g>
   <g id="text_29">
    <!-- One at a Time -->
    <g transform="translate(278.51422 14.798437) scale(0.1 -0.1)">
     <defs>
      <path id="DejaVuSans-4f" d="M 2522 4238 
Q 1834 4238 1429 3725 
Q 1025 3213 1025 2328 
Q 1025 1447 1429 934 
Q 1834 422 2522 422 
Q 3209 422 3611 934 
Q 4013 1447 4013 2328 
Q 4013 3213 3611 3725 
Q 3209 4238 2522 4238 
z
M 2522 4750 
Q 3503 4750 4090 4092 
Q 4678 3434 4678 2328 
Q 4678 1225 4090 567 
Q 3503 -91 2522 -91 
Q 1538 -91 948 565 
Q 359 1222 359 2328 
Q 359 3434 948 4092 
Q 1538 4750 2522 4750 
z
" transform="scale(0.015625)"/>
      <path id="DejaVuSans-54" d="M -19 4666 
L 3928 4666 
L 3928 4134 
L 2272 4134 
L 2272 0 
L 1638 0 
L 1638 4134 
L -19 4134 
L -19 4666 
z
" transform="scale(0.015625)"/>
     </defs>
     <use xlink:href="#DejaVuSans-4f"/>
     <use xlink:href="#DejaVuSans-6e" x="78.710938"/>
     <use xlink:href="#DejaVuSans-65" x="142.089844"/>
     <use xlink:href="#DejaVuSans-20" x="203.613281"/>
     <use xlink:href="#DejaVuSans-61" x="235.400391"/>
     <use xlink:href="#DejaVuSans-74" x="296.679688"/>
     <use xlink:href="#DejaVuSans-20" x="335.888672"/>
     <use xlink:href="#DejaVuSans-61" x="367.675781"/>
     <use xlink:href="#DejaVuSans-20" x="428.955078"/>
     <use xlink:href="#DejaVuSans-54" x="460.742188"/>
     <use xlink:href="#DejaVuSans-69" x="518.701172"/>
     <use xlink:href="#DejaVuSans-6d" x="546.484375"/>
     <use xlink:href="#DejaVuSans-65" x="643.896484"/>
    </g>
   </g>
  </g>
  <g id="axes_3">
   <g id="patch_12">
    <path d="M 53.843125 245.935918 
L 194.867397 245.935918 
L 194.867397 149.717178 
L 53.843125 149.717178 
z
" style="fill: #ffffff"/>
   </g>
   <g id="PolyCollection_9">
    <defs>
     <path id="m7328386afb" d="M 53.843125 -88.705778 
L 53.843125 -61.878178 
L 60.894339 -74.044036 
L 67.945552 -85.043154 
L 74.996766 -90.743053 
L 82.047979 -94.821436 
L 89.099193 -97.735435 
L 96.150406 -99.018012 
L 103.20162 -99.717322 
L 110.252834 -100.280735 
L 117.304047 -100.814006 
L 124.355261 -100.935004 
L 131.406474 -100.980279 
L 138.457688 -101.025555 
L 145.508902 -101.07083 
L 152.560115 -101.116106 
L 159.611329 -101.15141 
L 166.662542 -101.152971 
L 173.713756 -101.154531 
L 180.764969 -101.156092 
L 187.816183 -101.157652 
L 187.816183 -149.349759 
L 187.816183 -149.349759 
L 180.764969 -149.348199 
L 173.713756 -149.346638 
L 166.662542 -149.345078 
L 159.611329 -149.343517 
L 152.560115 -149.341957 
L 145.508902 -149.257445 
L 138.457688 -149.0095 
L 131.406474 -148.840895 
L 124.355261 -148.677462 
L 117.304047 -148.492053 
L 110.252834 -147.967936 
L 103.20162 -145.339458 
L 96.150406 -142.599971 
L 89.099193 -139.465034 
L 82.047979 -136.018506 
L 74.996766 -130.855896 
L 67.945552 -123.85492 
L 60.894339 -109.060368 
L 53.843125 -88.705778 
z
" style="stroke: #d62728; stroke-opacity: 0.2; stroke-width: 0.5"/>
    </defs>
    <g clip-path="url(#pcffb8deb79)">
     <use xlink:href="#m7328386afb" x="0" y="303.440516" style="fill: #d62728; fill-opacity: 0.2; stroke: #d62728; stroke-opacity: 0.2; stroke-width: 0.5"/>
    </g>
   </g>
   <g id="PolyCollection_10">
    <defs>
     <path id="m0f1d16e8c3" d="M 53.843125 -62.608485 
L 53.843125 -62.608485 
L 60.894339 -68.915041 
L 67.945552 -76.031663 
L 74.996766 -82.138224 
L 82.047979 -85.300265 
L 89.099193 -87.610951 
L 96.150406 -89.921637 
L 103.20162 -91.48686 
L 110.252834 -91.48686 
L 117.304047 -91.48686 
L 124.355261 -91.48686 
L 131.406474 -91.48686 
L 138.457688 -91.48686 
L 145.508902 -91.48686 
L 152.560115 -91.48686 
L 159.611329 -91.48686 
L 166.662542 -91.48686 
L 173.713756 -91.48686 
L 180.764969 -91.48686 
L 187.816183 -91.48686 
L 187.816183 -91.48686 
L 187.816183 -91.48686 
L 180.764969 -91.48686 
L 173.713756 -91.48686 
L 166.662542 -91.48686 
L 159.611329 -91.48686 
L 152.560115 -91.48686 
L 145.508902 -91.48686 
L 138.457688 -91.48686 
L 131.406474 -91.48686 
L 124.355261 -91.48686 
L 117.304047 -91.48686 
L 110.252834 -91.48686 
L 103.20162 -91.48686 
L 96.150406 -89.921637 
L 89.099193 -87.610951 
L 82.047979 -85.300265 
L 74.996766 -82.138224 
L 67.945552 -76.031663 
L 60.894339 -68.915041 
L 53.843125 -62.608485 
z
" style="stroke: #2ca02c; stroke-opacity: 0.2; stroke-width: 0.5"/>
    </defs>
    <g clip-path="url(#pcffb8deb79)">
     <use xlink:href="#m0f1d16e8c3" x="0" y="303.440516" style="fill: #2ca02c; fill-opacity: 0.2; stroke: #2ca02c; stroke-opacity: 0.2; stroke-width: 0.5"/>
    </g>
   </g>
   <g id="PolyCollection_11">
    <defs>
     <path id="m66a24c0128" d="M 53.843125 -90.274278 
L 53.843125 -63.018014 
L 60.894339 -77.395922 
L 67.945552 -86.489481 
L 74.996766 -90.408836 
L 82.047979 -93.574154 
L 89.099193 -96.00803 
L 96.150406 -98.012625 
L 103.20162 -99.92372 
L 110.252834 -101.778584 
L 117.304047 -102.257485 
L 124.355261 -102.736386 
L 131.406474 -103.215287 
L 138.457688 -103.694188 
L 145.508902 -104.173089 
L 152.560115 -104.65199 
L 159.611329 -105.130892 
L 166.662542 -105.130892 
L 173.713756 -105.130892 
L 180.764969 -105.130892 
L 187.816183 -105.130892 
L 187.816183 -147.573433 
L 187.816183 -147.573433 
L 180.764969 -147.56459 
L 173.713756 -147.555747 
L 166.662542 -147.546904 
L 159.611329 -147.53806 
L 152.560115 -147.529217 
L 145.508902 -147.520374 
L 138.457688 -147.511531 
L 131.406474 -147.03263 
L 124.355261 -146.553729 
L 117.304047 -146.074828 
L 110.252834 -145.280642 
L 103.20162 -144.486456 
L 96.150406 -143.69227 
L 89.099193 -142.845785 
L 82.047979 -139.589258 
L 74.996766 -135.381972 
L 67.945552 -125.157822 
L 60.894339 -110.041007 
L 53.843125 -90.274278 
z
" style="stroke: #1f77b4; stroke-opacity: 0.2; stroke-width: 0.5"/>
    </defs>
    <g clip-path="url(#pcffb8deb79)">
     <use xlink:href="#m66a24c0128" x="0" y="303.440516" style="fill: #1f77b4; fill-opacity: 0.2; stroke: #1f77b4; stroke-opacity: 0.2; stroke-width: 0.5"/>
    </g>
   </g>
   <g id="PolyCollection_12">
    <defs>
     <path id="m24583f4661" d="M 53.843125 -64.175296 
L 53.843125 -64.175296 
L 60.894339 -73.066362 
L 67.945552 -81.141775 
L 74.996766 -83.98434 
L 82.047979 -85.822583 
L 89.099193 -87.660827 
L 96.150406 -88.10917 
L 103.20162 -88.411008 
L 110.252834 -88.712845 
L 117.304047 -89.014683 
L 124.355261 -89.025086 
L 131.406474 -89.03549 
L 138.457688 -89.045893 
L 145.508902 -89.056297 
L 152.560115 -89.066701 
L 159.611329 -89.077104 
L 166.662542 -89.087508 
L 173.713756 -89.097912 
L 180.764969 -89.108315 
L 187.816183 -89.118719 
L 187.816183 -89.118719 
L 187.816183 -89.118719 
L 180.764969 -89.108315 
L 173.713756 -89.097912 
L 166.662542 -89.087508 
L 159.611329 -89.077104 
L 152.560115 -89.066701 
L 145.508902 -89.056297 
L 138.457688 -89.045893 
L 131.406474 -89.03549 
L 124.355261 -89.025086 
L 117.304047 -89.014683 
L 110.252834 -88.712845 
L 103.20162 -88.411008 
L 96.150406 -88.10917 
L 89.099193 -87.660827 
L 82.047979 -85.822583 
L 74.996766 -83.98434 
L 67.945552 -81.141775 
L 60.894339 -73.066362 
L 53.843125 -64.175296 
z
" style="stroke: #ff7f0e; stroke-opacity: 0.2; stroke-width: 0.5"/>
    </defs>
    <g clip-path="url(#pcffb8deb79)">
     <use xlink:href="#m24583f4661" x="0" y="303.440516" style="fill: #ff7f0e; fill-opacity: 0.2; stroke: #ff7f0e; stroke-opacity: 0.2; stroke-width: 0.5"/>
    </g>
   </g>
   <g id="matplotlib.axis_5">
    <g id="xtick_12">
     <g id="line2d_53">
      <path d="M 53.843125 245.935918 
L 53.843125 149.717178 
" clip-path="url(#pcffb8deb79)" style="fill: none; stroke: #b0b0b0; stroke-width: 0.8; stroke-linecap: square"/>
     </g>
     <g id="line2d_54">
      <g>
       <use xlink:href="#m2f888face0" x="53.843125" y="245.935918" style="stroke: #000000; stroke-width: 0.8"/>
      </g>
     </g>
     <g id="text_30">
      <!-- 0 -->
      <g transform="translate(51.298125 255.514668) scale(0.08 -0.08)">
       <use xlink:href="#DejaVuSans-30"/>
      </g>
     </g>
    </g>
    <g id="xtick_13">
     <g id="line2d_55">
      <path d="M 89.099193 245.935918 
L 89.099193 149.717178 
" clip-path="url(#pcffb8deb79)" style="fill: none; stroke: #b0b0b0; stroke-width: 0.8; stroke-linecap: square"/>
     </g>
     <g id="line2d_56">
      <g>
       <use xlink:href="#m2f888face0" x="89.099193" y="245.935918" style="stroke: #000000; stroke-width: 0.8"/>
      </g>
     </g>
     <g id="text_31">
      <!-- 5 -->
      <g transform="translate(86.554193 255.514668) scale(0.08 -0.08)">
       <use xlink:href="#DejaVuSans-35"/>
      </g>
     </g>
    </g>
    <g id="xtick_14">
     <g id="line2d_57">
      <path d="M 124.355261 245.935918 
L 124.355261 149.717178 
" clip-path="url(#pcffb8deb79)" style="fill: none; stroke: #b0b0b0; stroke-width: 0.8; stroke-linecap: square"/>
     </g>
     <g id="line2d_58">
      <g>
       <use xlink:href="#m2f888face0" x="124.355261" y="245.935918" style="stroke: #000000; stroke-width: 0.8"/>
      </g>
     </g>
     <g id="text_32">
      <!-- 10 -->
      <g transform="translate(119.265261 255.514668) scale(0.08 -0.08)">
       <use xlink:href="#DejaVuSans-31"/>
       <use xlink:href="#DejaVuSans-30" x="63.623047"/>
      </g>
     </g>
    </g>
    <g id="xtick_15">
     <g id="line2d_59">
      <path d="M 159.611329 245.935918 
L 159.611329 149.717178 
" clip-path="url(#pcffb8deb79)" style="fill: none; stroke: #b0b0b0; stroke-width: 0.8; stroke-linecap: square"/>
     </g>
     <g id="line2d_60">
      <g>
       <use xlink:href="#m2f888face0" x="159.611329" y="245.935918" style="stroke: #000000; stroke-width: 0.8"/>
      </g>
     </g>
     <g id="text_33">
      <!-- 15 -->
      <g transform="translate(154.521329 255.514668) scale(0.08 -0.08)">
       <use xlink:href="#DejaVuSans-31"/>
       <use xlink:href="#DejaVuSans-35" x="63.623047"/>
      </g>
     </g>
    </g>
    <g id="xtick_16">
     <g id="line2d_61">
      <path d="M 194.867397 245.935918 
L 194.867397 149.717178 
" clip-path="url(#pcffb8deb79)" style="fill: none; stroke: #b0b0b0; stroke-width: 0.8; stroke-linecap: square"/>
     </g>
     <g id="line2d_62">
      <g>
       <use xlink:href="#m2f888face0" x="194.867397" y="245.935918" style="stroke: #000000; stroke-width: 0.8"/>
      </g>
     </g>
     <g id="text_34">
      <!-- 20 -->
      <g transform="translate(189.777397 255.514668) scale(0.08 -0.08)">
       <use xlink:href="#DejaVuSans-32"/>
       <use xlink:href="#DejaVuSans-30" x="63.623047"/>
      </g>
     </g>
    </g>
    <g id="text_35">
     <!-- no. iterations -->
     <g transform="translate(97.918386 267.257168) scale(0.08 -0.08)">
      <use xlink:href="#DejaVuSans-6e"/>
      <use xlink:href="#DejaVuSans-6f" x="63.378906"/>
      <use xlink:href="#DejaVuSans-2e" x="122.810547"/>
      <use xlink:href="#DejaVuSans-20" x="154.597656"/>
      <use xlink:href="#DejaVuSans-69" x="186.384766"/>
      <use xlink:href="#DejaVuSans-74" x="214.167969"/>
      <use xlink:href="#DejaVuSans-65" x="253.376953"/>
      <use xlink:href="#DejaVuSans-72" x="314.900391"/>
      <use xlink:href="#DejaVuSans-61" x="356.013672"/>
      <use xlink:href="#DejaVuSans-74" x="417.292969"/>
      <use xlink:href="#DejaVuSans-69" x="456.501953"/>
      <use xlink:href="#DejaVuSans-6f" x="484.285156"/>
      <use xlink:href="#DejaVuSans-6e" x="545.466797"/>
      <use xlink:href="#DejaVuSans-73" x="608.845703"/>
     </g>
    </g>
   </g>
   <g id="matplotlib.axis_6">
    <g id="ytick_12">
     <g id="line2d_63">
      <path d="M 53.843125 240.906255 
L 194.867397 240.906255 
" clip-path="url(#pcffb8deb79)" style="fill: none; stroke: #b0b0b0; stroke-width: 0.8; stroke-linecap: square"/>
     </g>
     <g id="line2d_64">
      <g>
       <use xlink:href="#med4db6531a" x="53.843125" y="240.906255" style="stroke: #000000; stroke-width: 0.8"/>
      </g>
     </g>
     <g id="text_36">
      <!-- 0.5 -->
      <g transform="translate(37.620625 243.94563) scale(0.08 -0.08)">
       <use xlink:href="#DejaVuSans-30"/>
       <use xlink:href="#DejaVuSans-2e" x="63.623047"/>
       <use xlink:href="#DejaVuSans-35" x="95.410156"/>
      </g>
     </g>
    </g>
    <g id="ytick_13">
     <g id="line2d_65">
      <path d="M 53.843125 219.445066 
L 194.867397 219.445066 
" clip-path="url(#pcffb8deb79)" style="fill: none; stroke: #b0b0b0; stroke-width: 0.8; stroke-linecap: square"/>
     </g>
     <g id="line2d_66">
      <g>
       <use xlink:href="#med4db6531a" x="53.843125" y="219.445066" style="stroke: #000000; stroke-width: 0.8"/>
      </g>
     </g>
     <g id="text_37">
      <!-- 1.0 -->
      <g transform="translate(37.620625 222.484441) scale(0.08 -0.08)">
       <use xlink:href="#DejaVuSans-31"/>
       <use xlink:href="#DejaVuSans-2e" x="63.623047"/>
       <use xlink:href="#DejaVuSans-30" x="95.410156"/>
      </g>
     </g>
    </g>
    <g id="ytick_14">
     <g id="line2d_67">
      <path d="M 53.843125 197.983877 
L 194.867397 197.983877 
" clip-path="url(#pcffb8deb79)" style="fill: none; stroke: #b0b0b0; stroke-width: 0.8; stroke-linecap: square"/>
     </g>
     <g id="line2d_68">
      <g>
       <use xlink:href="#med4db6531a" x="53.843125" y="197.983877" style="stroke: #000000; stroke-width: 0.8"/>
      </g>
     </g>
     <g id="text_38">
      <!-- 1.5 -->
      <g transform="translate(37.620625 201.023252) scale(0.08 -0.08)">
       <use xlink:href="#DejaVuSans-31"/>
       <use xlink:href="#DejaVuSans-2e" x="63.623047"/>
       <use xlink:href="#DejaVuSans-35" x="95.410156"/>
      </g>
     </g>
    </g>
    <g id="ytick_15">
     <g id="line2d_69">
      <path d="M 53.843125 176.522689 
L 194.867397 176.522689 
" clip-path="url(#pcffb8deb79)" style="fill: none; stroke: #b0b0b0; stroke-width: 0.8; stroke-linecap: square"/>
     </g>
     <g id="line2d_70">
      <g>
       <use xlink:href="#med4db6531a" x="53.843125" y="176.522689" style="stroke: #000000; stroke-width: 0.8"/>
      </g>
     </g>
     <g id="text_39">
      <!-- 2.0 -->
      <g transform="translate(37.620625 179.562064) scale(0.08 -0.08)">
       <use xlink:href="#DejaVuSans-32"/>
       <use xlink:href="#DejaVuSans-2e" x="63.623047"/>
       <use xlink:href="#DejaVuSans-30" x="95.410156"/>
      </g>
     </g>
    </g>
    <g id="ytick_16">
     <g id="line2d_71">
      <path d="M 53.843125 155.0615 
L 194.867397 155.0615 
" clip-path="url(#pcffb8deb79)" style="fill: none; stroke: #b0b0b0; stroke-width: 0.8; stroke-linecap: square"/>
     </g>
     <g id="line2d_72">
      <g>
       <use xlink:href="#med4db6531a" x="53.843125" y="155.0615" style="stroke: #000000; stroke-width: 0.8"/>
      </g>
     </g>
     <g id="text_40">
      <!-- 2.5 -->
      <g transform="translate(37.620625 158.100875) scale(0.08 -0.08)">
       <use xlink:href="#DejaVuSans-32"/>
       <use xlink:href="#DejaVuSans-2e" x="63.623047"/>
       <use xlink:href="#DejaVuSans-35" x="95.410156"/>
      </g>
     </g>
    </g>
    <g id="text_41">
     <!-- Cumulative Regret -->
     <g transform="translate(31.956875 235.111548) rotate(-90) scale(0.08 -0.08)">
      <use xlink:href="#DejaVuSans-43"/>
      <use xlink:href="#DejaVuSans-75" x="69.824219"/>
      <use xlink:href="#DejaVuSans-6d" x="133.203125"/>
      <use xlink:href="#DejaVuSans-75" x="230.615234"/>
      <use xlink:href="#DejaVuSans-6c" x="293.994141"/>
      <use xlink:href="#DejaVuSans-61" x="321.777344"/>
      <use xlink:href="#DejaVuSans-74" x="383.056641"/>
      <use xlink:href="#DejaVuSans-69" x="422.265625"/>
      <use xlink:href="#DejaVuSans-76" x="450.048828"/>
      <use xlink:href="#DejaVuSans-65" x="509.228516"/>
      <use xlink:href="#DejaVuSans-20" x="570.751953"/>
      <use xlink:href="#DejaVuSans-52" x="602.539062"/>
      <use xlink:href="#DejaVuSans-65" x="667.521484"/>
      <use xlink:href="#DejaVuSans-67" x="729.044922"/>
      <use xlink:href="#DejaVuSans-72" x="792.521484"/>
      <use xlink:href="#DejaVuSans-65" x="831.384766"/>
      <use xlink:href="#DejaVuSans-74" x="892.908203"/>
     </g>
    </g>
   </g>
   <g id="line2d_73">
    <path d="M 53.843125 229.228748 
L 60.894339 212.484479 
L 67.945552 200.921117 
L 74.996766 194.056123 
L 82.047979 189.740596 
L 89.099193 186.660287 
L 96.150406 184.495245 
L 103.20162 182.746185 
L 110.252834 181.39067 
L 117.304047 180.600967 
L 124.355261 179.989711 
L 131.406474 179.602007 
L 138.457688 179.248244 
L 145.508902 179.039271 
L 152.560115 178.880263 
L 159.611329 178.779481 
L 166.662542 178.678699 
L 173.713756 178.613103 
L 180.764969 178.547507 
L 187.816183 178.503708 
" clip-path="url(#pcffb8deb79)" style="fill: none; stroke-dasharray: 2,3.3; stroke-dashoffset: 0; stroke: #d62728; stroke-width: 2"/>
   </g>
   <g id="line2d_74">
    <path d="M 53.843125 240.832031 
L 60.894339 234.525475 
L 67.945552 227.408854 
L 74.996766 221.302292 
L 82.047979 218.140251 
L 89.099193 215.829565 
L 96.150406 213.51888 
L 103.20162 211.953656 
L 110.252834 211.953656 
L 117.304047 211.953656 
L 124.355261 211.953656 
L 131.406474 211.953656 
L 138.457688 211.953656 
L 145.508902 211.953656 
L 152.560115 211.953656 
L 159.611329 211.953656 
L 166.662542 211.953656 
L 173.713756 211.953656 
L 180.764969 211.953656 
L 187.816183 211.953656 
" clip-path="url(#pcffb8deb79)" style="fill: none; stroke-dasharray: 7.4,3.2; stroke-dashoffset: 0; stroke: #2ca02c; stroke-width: 2"/>
   </g>
   <g id="line2d_75">
    <path d="M 53.843125 226.758283 
L 60.894339 210.440577 
L 67.945552 199.273603 
L 74.996766 191.228001 
L 82.047979 186.018868 
L 89.099193 182.94986 
L 96.150406 181.045093 
L 103.20162 179.978856 
L 110.252834 179.314139 
L 117.304047 178.947293 
L 124.355261 178.702217 
L 131.406474 178.475556 
L 138.457688 178.254999 
L 145.508902 178.140242 
L 152.560115 178.044673 
L 159.611329 177.961679 
L 166.662542 177.910883 
L 173.713756 177.860087 
L 180.764969 177.809291 
L 187.816183 177.758495 
" clip-path="url(#pcffb8deb79)" style="fill: none; stroke-dasharray: 12.8,3.2,2,3.2; stroke-dashoffset: 0; stroke: #1f77b4; stroke-width: 2"/>
   </g>
   <g id="line2d_76">
    <path d="M 53.843125 239.265221 
L 60.894339 230.374155 
L 67.945552 222.298741 
L 74.996766 219.456177 
L 82.047979 217.617933 
L 89.099193 215.779689 
L 96.150406 215.331346 
L 103.20162 215.029508 
L 110.252834 214.727671 
L 117.304047 214.425834 
L 124.355261 214.403287 
L 131.406474 214.38074 
L 138.457688 214.358194 
L 145.508902 214.335647 
L 152.560115 214.3131 
L 159.611329 214.302696 
L 166.662542 214.292293 
L 173.713756 214.281889 
L 180.764969 214.271486 
L 187.816183 214.261082 
" clip-path="url(#pcffb8deb79)" style="fill: none; stroke: #ff7f0e; stroke-width: 2; stroke-linecap: square"/>
   </g>
   <g id="patch_13">
    <path d="M 53.843125 245.935918 
L 53.843125 149.717178 
" style="fill: none; stroke: #bcbcbc; stroke-width: 0.8; stroke-linejoin: miter; stroke-linecap: square"/>
   </g>
   <g id="patch_14">
    <path d="M 194.867397 245.935918 
L 194.867397 149.717178 
" style="fill: none; stroke: #bcbcbc; stroke-width: 0.8; stroke-linejoin: miter; stroke-linecap: square"/>
   </g>
   <g id="patch_15">
    <path d="M 53.843125 245.935918 
L 194.867397 245.935918 
" style="fill: none; stroke: #bcbcbc; stroke-width: 0.8; stroke-linejoin: miter; stroke-linecap: square"/>
   </g>
   <g id="patch_16">
    <path d="M 53.843125 149.717178 
L 194.867397 149.717178 
" style="fill: none; stroke: #bcbcbc; stroke-width: 0.8; stroke-linejoin: miter; stroke-linecap: square"/>
   </g>
   <g id="text_42">
    <!-- Model's Choice -->
    <g transform="translate(14.798437 235.342173) rotate(-90) scale(0.1 -0.1)">
     <defs>
      <path id="DejaVuSans-64" d="M 2906 2969 
L 2906 4863 
L 3481 4863 
L 3481 0 
L 2906 0 
L 2906 525 
Q 2725 213 2448 61 
Q 2172 -91 1784 -91 
Q 1150 -91 751 415 
Q 353 922 353 1747 
Q 353 2572 751 3078 
Q 1150 3584 1784 3584 
Q 2172 3584 2448 3432 
Q 2725 3281 2906 2969 
z
M 947 1747 
Q 947 1113 1208 752 
Q 1469 391 1925 391 
Q 2381 391 2643 752 
Q 2906 1113 2906 1747 
Q 2906 2381 2643 2742 
Q 2381 3103 1925 3103 
Q 1469 3103 1208 2742 
Q 947 2381 947 1747 
z
" transform="scale(0.015625)"/>
      <path id="DejaVuSans-27" d="M 1147 4666 
L 1147 2931 
L 616 2931 
L 616 4666 
L 1147 4666 
z
" transform="scale(0.015625)"/>
      <path id="DejaVuSans-68" d="M 3513 2113 
L 3513 0 
L 2938 0 
L 2938 2094 
Q 2938 2591 2744 2837 
Q 2550 3084 2163 3084 
Q 1697 3084 1428 2787 
Q 1159 2491 1159 1978 
L 1159 0 
L 581 0 
L 581 4863 
L 1159 4863 
L 1159 2956 
Q 1366 3272 1645 3428 
Q 1925 3584 2291 3584 
Q 2894 3584 3203 3211 
Q 3513 2838 3513 2113 
z
" transform="scale(0.015625)"/>
     </defs>
     <use xlink:href="#DejaVuSans-4d"/>
     <use xlink:href="#DejaVuSans-6f" x="86.279297"/>
     <use xlink:href="#DejaVuSans-64" x="147.460938"/>
     <use xlink:href="#DejaVuSans-65" x="210.9375"/>
     <use xlink:href="#DejaVuSans-6c" x="272.460938"/>
     <use xlink:href="#DejaVuSans-27" x="300.244141"/>
     <use xlink:href="#DejaVuSans-73" x="327.734375"/>
     <use xlink:href="#DejaVuSans-20" x="379.833984"/>
     <use xlink:href="#DejaVuSans-43" x="411.621094"/>
     <use xlink:href="#DejaVuSans-68" x="481.445312"/>
     <use xlink:href="#DejaVuSans-6f" x="544.824219"/>
     <use xlink:href="#DejaVuSans-69" x="606.005859"/>
     <use xlink:href="#DejaVuSans-63" x="633.789062"/>
     <use xlink:href="#DejaVuSans-65" x="688.769531"/>
    </g>
   </g>
  </g>
  <g id="axes_4">
   <g id="patch_17">
    <path d="M 243.272397 245.935918 
L 384.296668 245.935918 
L 384.296668 149.717178 
L 243.272397 149.717178 
z
" style="fill: #ffffff"/>
   </g>
   <g id="PolyCollection_13">
    <defs>
     <path id="m5ab8aa42b8" d="M 243.272397 -83.419384 
L 243.272397 -71.57014 
L 257.374824 -90.912818 
L 271.477251 -104.948593 
L 285.579678 -114.421865 
L 299.682105 -120.681268 
L 313.784532 -123.090499 
L 327.88696 -124.565927 
L 341.989387 -124.580007 
L 356.091814 -124.594087 
L 370.194241 -124.608167 
L 384.296668 -122.927765 
L 398.399095 -120.605128 
L 412.501523 -120.39771 
L 426.60395 -118.271077 
L 440.706377 -116.869171 
L 454.808804 -111.423255 
L 468.911231 -107.353658 
L 483.013658 -106.515783 
L 497.116086 -106.457194 
L 511.218513 -106.457194 
L 511.218513 -139.905157 
L 511.218513 -139.905157 
L 497.116086 -139.905157 
L 483.013658 -139.905157 
L 468.911231 -140.273429 
L 454.808804 -141.603482 
L 440.706377 -143.620093 
L 426.60395 -143.374373 
L 412.501523 -143.360152 
L 398.399095 -149.349759 
L 384.296668 -149.347648 
L 370.194241 -146.529309 
L 356.091814 -146.515229 
L 341.989387 -146.501149 
L 327.88696 -146.487069 
L 313.784532 -144.202525 
L 299.682105 -140.169323 
L 285.579678 -132.223165 
L 271.477251 -121.073328 
L 257.374824 -105.334578 
L 243.272397 -83.419384 
z
" style="stroke: #d62728; stroke-opacity: 0.2; stroke-width: 0.5"/>
    </defs>
    <g clip-path="url(#p87e204d13f)">
     <use xlink:href="#m5ab8aa42b8" x="0" y="303.440516" style="fill: #d62728; fill-opacity: 0.2; stroke: #d62728; stroke-opacity: 0.2; stroke-width: 0.5"/>
    </g>
   </g>
   <g id="PolyCollection_14">
    <defs>
     <path id="mefbcd023ec" d="M 243.272397 -75.788682 
L 243.272397 -75.788682 
L 257.374824 -96.064014 
L 271.477251 -107.711675 
L 285.579678 -115.5706 
L 299.682105 -121.231284 
L 313.784532 -123.726796 
L 327.88696 -125.095519 
L 341.989387 -125.095519 
L 356.091814 -125.095519 
L 370.194241 -125.095519 
L 384.296668 -125.095519 
L 398.399095 -120.960286 
L 412.501523 -120.230539 
L 426.60395 -119.930917 
L 440.706377 -110.271706 
L 454.808804 -112.975876 
L 468.911231 -110.836137 
L 483.013658 -110.461384 
L 497.116086 -110.461384 
L 511.218513 -110.461384 
L 511.218513 -117.118842 
L 511.218513 -117.118842 
L 497.116086 -123.573191 
L 483.013658 -128.263409 
L 468.911231 -129.477092 
L 454.808804 -129.579919 
L 440.706377 -129.579919 
L 426.60395 -129.579919 
L 412.501523 -129.579919 
L 398.399095 -128.907259 
L 384.296668 -128.907259 
L 370.194241 -125.095519 
L 356.091814 -125.095519 
L 341.989387 -125.095519 
L 327.88696 -125.095519 
L 313.784532 -123.726796 
L 299.682105 -121.231284 
L 285.579678 -115.5706 
L 271.477251 -107.711675 
L 257.374824 -96.064014 
L 243.272397 -75.788682 
z
" style="stroke: #2ca02c; stroke-opacity: 0.2; stroke-width: 0.5"/>
    </defs>
    <g clip-path="url(#p87e204d13f)">
     <use xlink:href="#mefbcd023ec" x="0" y="303.440516" style="fill: #2ca02c; fill-opacity: 0.2; stroke: #2ca02c; stroke-opacity: 0.2; stroke-width: 0.5"/>
    </g>
   </g>
   <g id="PolyCollection_15">
    <defs>
     <path id="mf9698cb73e" d="M 243.272397 -84.494295 
L 243.272397 -68.722946 
L 257.374824 -82.019687 
L 271.477251 -91.622453 
L 285.579678 -99.157018 
L 299.682105 -102.438145 
L 313.784532 -103.254261 
L 327.88696 -103.912441 
L 341.989387 -104.349438 
L 356.091814 -104.75793 
L 370.194241 -105.105147 
L 384.296668 -102.465496 
L 398.399095 -102.510768 
L 412.501523 -101.502643 
L 426.60395 -101.502643 
L 440.706377 -94.282007 
L 454.808804 -95.177403 
L 468.911231 -95.177403 
L 483.013658 -88.929345 
L 497.116086 -90.287384 
L 511.218513 -90.230316 
L 511.218513 -107.884312 
L 511.218513 -107.884312 
L 497.116086 -113.504672 
L 483.013658 -113.504672 
L 468.911231 -114.942666 
L 454.808804 -117.965453 
L 440.706377 -117.965453 
L 426.60395 -117.965453 
L 412.501523 -122.244515 
L 398.399095 -121.97232 
L 384.296668 -123.666112 
L 370.194241 -123.436306 
L 356.091814 -122.859281 
L 341.989387 -122.282256 
L 327.88696 -121.515194 
L 313.784532 -120.748131 
L 299.682105 -119.879862 
L 285.579678 -116.322972 
L 271.477251 -107.742472 
L 257.374824 -97.728967 
L 243.272397 -84.494295 
z
" style="stroke: #1f77b4; stroke-opacity: 0.2; stroke-width: 0.5"/>
    </defs>
    <g clip-path="url(#p87e204d13f)">
     <use xlink:href="#mf9698cb73e" x="0" y="303.440516" style="fill: #1f77b4; fill-opacity: 0.2; stroke: #1f77b4; stroke-opacity: 0.2; stroke-width: 0.5"/>
    </g>
   </g>
   <g id="PolyCollection_16">
    <defs>
     <path id="m2b89732288" d="M 243.272397 -69.095581 
L 243.272397 -61.878178 
L 257.374824 -68.858706 
L 271.477251 -73.831985 
L 285.579678 -77.773665 
L 299.682105 -79.86704 
L 313.784532 -80.307585 
L 327.88696 -80.519939 
L 341.989387 -80.732293 
L 356.091814 -80.746373 
L 370.194241 -80.760453 
L 384.296668 -81.049288 
L 398.399095 -78.496545 
L 412.501523 -71.952942 
L 426.60395 -71.56343 
L 440.706377 -72.343917 
L 454.808804 -70.027211 
L 468.911231 -68.476398 
L 483.013658 -68.998367 
L 497.116086 -69.221054 
L 511.218513 -69.221054 
L 511.218513 -81.93216 
L 511.218513 -81.93216 
L 497.116086 -92.711865 
L 483.013658 -92.798849 
L 468.911231 -96.272245 
L 454.808804 -102.017691 
L 440.706377 -101.446296 
L 426.60395 -103.109668 
L 412.501523 -102.53486 
L 398.399095 -102.098964 
L 384.296668 -101.346361 
L 370.194241 -97.23593 
L 356.091814 -96.577516 
L 341.989387 -95.545822 
L 327.88696 -93.908242 
L 313.784532 -92.945645 
L 299.682105 -91.513957 
L 285.579678 -88.652853 
L 271.477251 -85.025304 
L 257.374824 -78.226577 
L 243.272397 -69.095581 
z
" style="stroke: #ff7f0e; stroke-opacity: 0.2; stroke-width: 0.5"/>
    </defs>
    <g clip-path="url(#p87e204d13f)">
     <use xlink:href="#m2b89732288" x="0" y="303.440516" style="fill: #ff7f0e; fill-opacity: 0.2; stroke: #ff7f0e; stroke-opacity: 0.2; stroke-width: 0.5"/>
    </g>
   </g>
   <g id="matplotlib.axis_7">
    <g id="xtick_17">
     <g id="line2d_77">
      <path d="M 243.272397 245.935918 
L 243.272397 149.717178 
" clip-path="url(#p87e204d13f)" style="fill: none; stroke: #b0b0b0; stroke-width: 0.8; stroke-linecap: square"/>
     </g>
     <g id="line2d_78">
      <g>
       <use xlink:href="#m2f888face0" x="243.272397" y="245.935918" style="stroke: #000000; stroke-width: 0.8"/>
      </g>
     </g>
     <g id="text_43">
      <!-- 0 -->
      <g transform="translate(240.727397 255.514668) scale(0.08 -0.08)">
       <use xlink:href="#DejaVuSans-30"/>
      </g>
     </g>
    </g>
    <g id="xtick_18">
     <g id="line2d_79">
      <path d="M 271.477251 245.935918 
L 271.477251 149.717178 
" clip-path="url(#p87e204d13f)" style="fill: none; stroke: #b0b0b0; stroke-width: 0.8; stroke-linecap: square"/>
     </g>
     <g id="line2d_80">
      <g>
       <use xlink:href="#m2f888face0" x="271.477251" y="245.935918" style="stroke: #000000; stroke-width: 0.8"/>
      </g>
     </g>
     <g id="text_44">
      <!-- 2 -->
      <g transform="translate(268.932251 255.514668) scale(0.08 -0.08)">
       <use xlink:href="#DejaVuSans-32"/>
      </g>
     </g>
    </g>
    <g id="xtick_19">
     <g id="line2d_81">
      <path d="M 299.682105 245.935918 
L 299.682105 149.717178 
" clip-path="url(#p87e204d13f)" style="fill: none; stroke: #b0b0b0; stroke-width: 0.8; stroke-linecap: square"/>
     </g>
     <g id="line2d_82">
      <g>
       <use xlink:href="#m2f888face0" x="299.682105" y="245.935918" style="stroke: #000000; stroke-width: 0.8"/>
      </g>
     </g>
     <g id="text_45">
      <!-- 4 -->
      <g transform="translate(297.137105 255.514668) scale(0.08 -0.08)">
       <use xlink:href="#DejaVuSans-34"/>
      </g>
     </g>
    </g>
    <g id="xtick_20">
     <g id="line2d_83">
      <path d="M 327.88696 245.935918 
L 327.88696 149.717178 
" clip-path="url(#p87e204d13f)" style="fill: none; stroke: #b0b0b0; stroke-width: 0.8; stroke-linecap: square"/>
     </g>
     <g id="line2d_84">
      <g>
       <use xlink:href="#m2f888face0" x="327.88696" y="245.935918" style="stroke: #000000; stroke-width: 0.8"/>
      </g>
     </g>
     <g id="text_46">
      <!-- 6 -->
      <g transform="translate(325.34196 255.514668) scale(0.08 -0.08)">
       <use xlink:href="#DejaVuSans-36"/>
      </g>
     </g>
    </g>
    <g id="xtick_21">
     <g id="line2d_85">
      <path d="M 356.091814 245.935918 
L 356.091814 149.717178 
" clip-path="url(#p87e204d13f)" style="fill: none; stroke: #b0b0b0; stroke-width: 0.8; stroke-linecap: square"/>
     </g>
     <g id="line2d_86">
      <g>
       <use xlink:href="#m2f888face0" x="356.091814" y="245.935918" style="stroke: #000000; stroke-width: 0.8"/>
      </g>
     </g>
     <g id="text_47">
      <!-- 8 -->
      <g transform="translate(353.546814 255.514668) scale(0.08 -0.08)">
       <use xlink:href="#DejaVuSans-38"/>
      </g>
     </g>
    </g>
    <g id="xtick_22">
     <g id="line2d_87">
      <path d="M 384.296668 245.935918 
L 384.296668 149.717178 
" clip-path="url(#p87e204d13f)" style="fill: none; stroke: #b0b0b0; stroke-width: 0.8; stroke-linecap: square"/>
     </g>
     <g id="line2d_88">
      <g>
       <use xlink:href="#m2f888face0" x="384.296668" y="245.935918" style="stroke: #000000; stroke-width: 0.8"/>
      </g>
     </g>
     <g id="text_48">
      <!-- 10 -->
      <g transform="translate(379.206668 255.514668) scale(0.08 -0.08)">
       <use xlink:href="#DejaVuSans-31"/>
       <use xlink:href="#DejaVuSans-30" x="63.623047"/>
      </g>
     </g>
    </g>
    <g id="text_49">
     <!-- no. iterations -->
     <g transform="translate(287.347657 267.257168) scale(0.08 -0.08)">
      <use xlink:href="#DejaVuSans-6e"/>
      <use xlink:href="#DejaVuSans-6f" x="63.378906"/>
      <use xlink:href="#DejaVuSans-2e" x="122.810547"/>
      <use xlink:href="#DejaVuSans-20" x="154.597656"/>
      <use xlink:href="#DejaVuSans-69" x="186.384766"/>
      <use xlink:href="#DejaVuSans-74" x="214.167969"/>
      <use xlink:href="#DejaVuSans-65" x="253.376953"/>
      <use xlink:href="#DejaVuSans-72" x="314.900391"/>
      <use xlink:href="#DejaVuSans-61" x="356.013672"/>
      <use xlink:href="#DejaVuSans-74" x="417.292969"/>
      <use xlink:href="#DejaVuSans-69" x="456.501953"/>
      <use xlink:href="#DejaVuSans-6f" x="484.285156"/>
      <use xlink:href="#DejaVuSans-6e" x="545.466797"/>
      <use xlink:href="#DejaVuSans-73" x="608.845703"/>
     </g>
    </g>
   </g>
   <g id="matplotlib.axis_8">
    <g id="ytick_17">
     <g id="line2d_89">
      <path d="M 243.272397 232.075188 
L 384.296668 232.075188 
" clip-path="url(#p87e204d13f)" style="fill: none; stroke: #b0b0b0; stroke-width: 0.8; stroke-linecap: square"/>
     </g>
     <g id="line2d_90">
      <g>
       <use xlink:href="#med4db6531a" x="243.272397" y="232.075188" style="stroke: #000000; stroke-width: 0.8"/>
      </g>
     </g>
     <g id="text_50">
      <!-- 0.5 -->
      <g transform="translate(227.049897 235.114563) scale(0.08 -0.08)">
       <use xlink:href="#DejaVuSans-30"/>
       <use xlink:href="#DejaVuSans-2e" x="63.623047"/>
       <use xlink:href="#DejaVuSans-35" x="95.410156"/>
      </g>
     </g>
    </g>
    <g id="ytick_18">
     <g id="line2d_91">
      <path d="M 243.272397 203.03069 
L 384.296668 203.03069 
" clip-path="url(#p87e204d13f)" style="fill: none; stroke: #b0b0b0; stroke-width: 0.8; stroke-linecap: square"/>
     </g>
     <g id="line2d_92">
      <g>
       <use xlink:href="#med4db6531a" x="243.272397" y="203.03069" style="stroke: #000000; stroke-width: 0.8"/>
      </g>
     </g>
     <g id="text_51">
      <!-- 1.0 -->
      <g transform="translate(227.049897 206.070065) scale(0.08 -0.08)">
       <use xlink:href="#DejaVuSans-31"/>
       <use xlink:href="#DejaVuSans-2e" x="63.623047"/>
       <use xlink:href="#DejaVuSans-30" x="95.410156"/>
      </g>
     </g>
    </g>
    <g id="ytick_19">
     <g id="line2d_93">
      <path d="M 243.272397 173.986191 
L 384.296668 173.986191 
" clip-path="url(#p87e204d13f)" style="fill: none; stroke: #b0b0b0; stroke-width: 0.8; stroke-linecap: square"/>
     </g>
     <g id="line2d_94">
      <g>
       <use xlink:href="#med4db6531a" x="243.272397" y="173.986191" style="stroke: #000000; stroke-width: 0.8"/>
      </g>
     </g>
     <g id="text_52">
      <!-- 1.5 -->
      <g transform="translate(227.049897 177.025566) scale(0.08 -0.08)">
       <use xlink:href="#DejaVuSans-31"/>
       <use xlink:href="#DejaVuSans-2e" x="63.623047"/>
       <use xlink:href="#DejaVuSans-35" x="95.410156"/>
      </g>
     </g>
    </g>
    <g id="text_53">
     <!-- Cumulative Regret -->
     <g transform="translate(221.386147 235.111548) rotate(-90) scale(0.08 -0.08)">
      <use xlink:href="#DejaVuSans-43"/>
      <use xlink:href="#DejaVuSans-75" x="69.824219"/>
      <use xlink:href="#DejaVuSans-6d" x="133.203125"/>
      <use xlink:href="#DejaVuSans-75" x="230.615234"/>
      <use xlink:href="#DejaVuSans-6c" x="293.994141"/>
      <use xlink:href="#DejaVuSans-61" x="321.777344"/>
      <use xlink:href="#DejaVuSans-74" x="383.056641"/>
      <use xlink:href="#DejaVuSans-69" x="422.265625"/>
      <use xlink:href="#DejaVuSans-76" x="450.048828"/>
      <use xlink:href="#DejaVuSans-65" x="509.228516"/>
      <use xlink:href="#DejaVuSans-20" x="570.751953"/>
      <use xlink:href="#DejaVuSans-52" x="602.539062"/>
      <use xlink:href="#DejaVuSans-65" x="667.521484"/>
      <use xlink:href="#DejaVuSans-67" x="729.044922"/>
      <use xlink:href="#DejaVuSans-72" x="792.521484"/>
      <use xlink:href="#DejaVuSans-65" x="831.384766"/>
      <use xlink:href="#DejaVuSans-74" x="892.908203"/>
     </g>
    </g>
   </g>
   <g id="line2d_95">
    <path d="M 243.272397 227.160324 
L 257.374824 205.146321 
L 271.477251 190.880199 
L 285.579678 181.137995 
L 299.682105 174.431975 
L 313.784532 171.563023 
L 327.88696 169.681803 
L 341.989387 169.66831 
L 356.091814 169.654817 
L 370.194241 169.641324 
L 384.296668 169.690754 
L 397.586668 170.400695 
" clip-path="url(#p87e204d13f)" style="fill: none; stroke-dasharray: 2,3.3; stroke-dashoffset: 0; stroke: #d62728; stroke-width: 2"/>
   </g>
   <g id="line2d_96">
    <path d="M 243.272397 227.651834 
L 257.374824 207.376502 
L 271.477251 195.728842 
L 285.579678 187.869916 
L 299.682105 182.209232 
L 313.784532 179.71372 
L 327.88696 178.344997 
L 341.989387 178.344997 
L 356.091814 178.344997 
L 370.194241 178.344997 
L 384.296668 178.130925 
L 397.586668 178.321955 
" clip-path="url(#p87e204d13f)" style="fill: none; stroke-dasharray: 7.4,3.2; stroke-dashoffset: 0; stroke: #2ca02c; stroke-width: 2"/>
   </g>
   <g id="line2d_97">
    <path d="M 243.272397 228.091622 
L 257.374824 212.999019 
L 271.477251 203.358022 
L 285.579678 197.364704 
L 299.682105 194.089591 
L 313.784532 193.095511 
L 327.88696 192.334131 
L 341.989387 191.616422 
L 356.091814 191.154484 
L 370.194241 190.779389 
L 384.296668 191.44575 
L 397.586668 192.720819 
" clip-path="url(#p87e204d13f)" style="fill: none; stroke-dasharray: 12.8,3.2,2,3.2; stroke-dashoffset: 0; stroke: #1f77b4; stroke-width: 2"/>
   </g>
   <g id="line2d_98">
    <path d="M 243.272397 238.110345 
L 257.374824 229.794914 
L 271.477251 224.032038 
L 285.579678 220.387596 
L 299.682105 217.614387 
L 313.784532 216.454555 
L 327.88696 215.692328 
L 341.989387 214.938616 
L 356.091814 214.468387 
L 370.194241 214.107134 
L 384.296668 214.007915 
L 397.586668 214.226378 
" clip-path="url(#p87e204d13f)" style="fill: none; stroke: #ff7f0e; stroke-width: 2; stroke-linecap: square"/>
   </g>
   <g id="patch_18">
    <path d="M 243.272397 245.935918 
L 243.272397 149.717178 
" style="fill: none; stroke: #bcbcbc; stroke-width: 0.8; stroke-linejoin: miter; stroke-linecap: square"/>
   </g>
   <g id="patch_19">
    <path d="M 384.296668 245.935918 
L 384.296668 149.717178 
" style="fill: none; stroke: #bcbcbc; stroke-width: 0.8; stroke-linejoin: miter; stroke-linecap: square"/>
   </g>
   <g id="patch_20">
    <path d="M 243.272397 245.935918 
L 384.296668 245.935918 
" style="fill: none; stroke: #bcbcbc; stroke-width: 0.8; stroke-linejoin: miter; stroke-linecap: square"/>
   </g>
   <g id="patch_21">
    <path d="M 243.272397 149.717178 
L 384.296668 149.717178 
" style="fill: none; stroke: #bcbcbc; stroke-width: 0.8; stroke-linejoin: miter; stroke-linecap: square"/>
   </g>
  </g>
  <g id="legend_1">
   <g id="patch_22">
    <path d="M 59.744503 296.240516 
L 361.094503 296.240516 
Q 363.094503 296.240516 363.094503 294.240516 
L 363.094503 280.562391 
Q 363.094503 278.562391 361.094503 278.562391 
L 59.744503 278.562391 
Q 57.744503 278.562391 57.744503 280.562391 
L 57.744503 294.240516 
Q 57.744503 296.240516 59.744503 296.240516 
z
" style="fill: #ffffff; opacity: 0.8; stroke: #cccccc; stroke-width: 0.5; stroke-linejoin: miter"/>
   </g>
   <g id="line2d_99">
    <path d="M 61.744503 286.660829 
L 71.744503 286.660829 
L 81.744503 286.660829 
" style="fill: none; stroke-dasharray: 2,3.3; stroke-dashoffset: 0; stroke: #d62728; stroke-width: 2"/>
   </g>
   <g id="text_54">
    <!-- MOGP -->
    <g transform="translate(89.744503 290.160829) scale(0.1 -0.1)">
     <defs>
      <path id="DejaVuSans-47" d="M 3809 666 
L 3809 1919 
L 2778 1919 
L 2778 2438 
L 4434 2438 
L 4434 434 
Q 4069 175 3628 42 
Q 3188 -91 2688 -91 
Q 1594 -91 976 548 
Q 359 1188 359 2328 
Q 359 3472 976 4111 
Q 1594 4750 2688 4750 
Q 3144 4750 3555 4637 
Q 3966 4525 4313 4306 
L 4313 3634 
Q 3963 3931 3569 4081 
Q 3175 4231 2741 4231 
Q 1884 4231 1454 3753 
Q 1025 3275 1025 2328 
Q 1025 1384 1454 906 
Q 1884 428 2741 428 
Q 3075 428 3337 486 
Q 3600 544 3809 666 
z
" transform="scale(0.015625)"/>
      <path id="DejaVuSans-50" d="M 1259 4147 
L 1259 2394 
L 2053 2394 
Q 2494 2394 2734 2622 
Q 2975 2850 2975 3272 
Q 2975 3691 2734 3919 
Q 2494 4147 2053 4147 
L 1259 4147 
z
M 628 4666 
L 2053 4666 
Q 2838 4666 3239 4311 
Q 3641 3956 3641 3272 
Q 3641 2581 3239 2228 
Q 2838 1875 2053 1875 
L 1259 1875 
L 1259 0 
L 628 0 
L 628 4666 
z
" transform="scale(0.015625)"/>
     </defs>
     <use xlink:href="#DejaVuSans-4d"/>
     <use xlink:href="#DejaVuSans-4f" x="86.279297"/>
     <use xlink:href="#DejaVuSans-47" x="164.990234"/>
     <use xlink:href="#DejaVuSans-50" x="242.480469"/>
    </g>
   </g>
   <g id="line2d_100">
    <path d="M 140.022628 286.660829 
L 150.022628 286.660829 
L 160.022628 286.660829 
" style="fill: none; stroke-dasharray: 7.4,3.2; stroke-dashoffset: 0; stroke: #2ca02c; stroke-width: 2"/>
   </g>
   <g id="text_55">
    <!-- AvgGP -->
    <g transform="translate(168.022628 290.160829) scale(0.1 -0.1)">
     <defs>
      <path id="DejaVuSans-41" d="M 2188 4044 
L 1331 1722 
L 3047 1722 
L 2188 4044 
z
M 1831 4666 
L 2547 4666 
L 4325 0 
L 3669 0 
L 3244 1197 
L 1141 1197 
L 716 0 
L 50 0 
L 1831 4666 
z
" transform="scale(0.015625)"/>
     </defs>
     <use xlink:href="#DejaVuSans-41"/>
     <use xlink:href="#DejaVuSans-76" x="62.533203"/>
     <use xlink:href="#DejaVuSans-67" x="121.712891"/>
     <use xlink:href="#DejaVuSans-47" x="185.189453"/>
     <use xlink:href="#DejaVuSans-50" x="262.679688"/>
    </g>
   </g>
   <g id="line2d_101">
    <path d="M 220.321065 286.660829 
L 230.321065 286.660829 
L 240.321065 286.660829 
" style="fill: none; stroke-dasharray: 12.8,3.2,2,3.2; stroke-dashoffset: 0; stroke: #1f77b4; stroke-width: 2"/>
   </g>
   <g id="text_56">
    <!-- LMC -->
    <g transform="translate(248.321065 290.160829) scale(0.1 -0.1)">
     <defs>
      <path id="DejaVuSans-4c" d="M 628 4666 
L 1259 4666 
L 1259 531 
L 3531 531 
L 3531 0 
L 628 0 
L 628 4666 
z
" transform="scale(0.015625)"/>
     </defs>
     <use xlink:href="#DejaVuSans-4c"/>
     <use xlink:href="#DejaVuSans-4d" x="55.712891"/>
     <use xlink:href="#DejaVuSans-43" x="141.992188"/>
    </g>
   </g>
   <g id="line2d_102">
    <path d="M 289.503878 286.660829 
L 299.503878 286.660829 
L 309.503878 286.660829 
" style="fill: none; stroke: #ff7f0e; stroke-width: 2; stroke-linecap: square"/>
   </g>
   <g id="text_57">
    <!-- LVMOGP -->
    <g transform="translate(317.503878 290.160829) scale(0.1 -0.1)">
     <defs>
      <path id="DejaVuSans-56" d="M 1831 0 
L 50 4666 
L 709 4666 
L 2188 738 
L 3669 4666 
L 4325 4666 
L 2547 0 
L 1831 0 
z
" transform="scale(0.015625)"/>
     </defs>
     <use xlink:href="#DejaVuSans-4c"/>
     <use xlink:href="#DejaVuSans-56" x="44.712891"/>
     <use xlink:href="#DejaVuSans-4d" x="113.121094"/>
     <use xlink:href="#DejaVuSans-4f" x="199.400391"/>
     <use xlink:href="#DejaVuSans-47" x="278.111328"/>
     <use xlink:href="#DejaVuSans-50" x="355.601562"/>
    </g>
   </g>
  </g>
 </g>
 <defs>
  <clipPath id="pc781746cd9">
   <rect x="53.843125" y="20.798437" width="141.024272" height="96.21874"/>
  </clipPath>
  <clipPath id="p25df372eab">
   <rect x="243.272397" y="20.798437" width="141.024272" height="96.21874"/>
  </clipPath>
  <clipPath id="pcffb8deb79">
   <rect x="53.843125" y="149.717178" width="141.024272" height="96.21874"/>
  </clipPath>
  <clipPath id="p87e204d13f">
   <rect x="243.272397" y="149.717178" width="141.024272" height="96.21874"/>
  </clipPath>
 </defs>
</svg>
